<?xml version="1.0" encoding="utf-8"?>
<!-- Generator: Adobe Illustrator 19.2.1, SVG Export Plug-In . SVG Version: 6.00 Build 0)  -->
<svg version="1.1" id="Шар_1" xmlns="http://www.w3.org/2000/svg" xmlns:xlink="http://www.w3.org/1999/xlink" x="0px" y="0px"
	 viewBox="0 0 120 56.8" style="enable-background:new 0 0 120 56.8;" xml:space="preserve">
<style type="text/css">
	.st0{fill:#8E9197;}
</style>
<path id="s7_logo" class="st0" d="M118,20.6c0.1-1.5,0.4-3.5-0.8-4c-0.1,0-1.3-0.4-1.8,0.3c-0.2,0.2-4.3,13.2-4.5,13.4
	c-0.3,0.3-0.7-11.6-0.9-12.1c-0.1-0.7-0.6-1.3-1.2-1.6c-1-0.1-1.7,0.7-3,3.9c-1.7,4.4-3.5,10.3-4,10.4c-1.3,0.2-3.6-4.6-4.1-6.2
	c1.6-2.6,3.8-4.8,6.5-6.3c-0.1-1-1-1.7-2-1.7c-1.7,0.3-4.2,3.4-7.1,8.4c0.4-4.1,0.6-8.2,0.5-12.3c-0.1-1.1,0.1-2.9-1.4-2.8
	c-1.3,0.1-1.7,2.2-1.6,3.7c-1.9,3.2-6.9,12.1-7.1,12.3c-1-0.7-1.8-1.7-2.1-2.9c0-1.3,0.5-2.5,1.5-3.4c1-0.8,2.1-1.3,3.3-1.6
	c0.4-0.4-1-2.1-2.5-2c-2.6,0.1-5.2,4.1-5.4,5.9c-0.6,0.7-4.3,8.1-4.7,8.6c-1.4-0.8,1.4-11.3-0.9-12c-1.5-0.5-4.4,4.3-5.2,5.4
	c0.2-0.8,1.3-5.9,1.1-6.8c-0.1-0.7-1.5-0.9-2.4-0.7c-0.6,0.1-0.7,3.6-1.9,6.1c-0.4,0.9-5.5,10.2-9,9.2c-1-0.3-2.3-0.9-1.9-3.9
	c1.9-0.5,3.8-1.4,5.4-2.5c2.1-1.5,4-4.9,2.7-7.1c-1.1-1.5-3-2.1-4.8-1.7c-4.8,1.1-5.9,8.1-6,9.1c-0.7,0.1-1.5,0.2-2.2,0.2
	c-0.1,0.5-0.2,1.9,0.3,2.3c0.5,0.2,1.1,0.3,1.7,0.2c0,2.3,0.8,6.8,5.4,6.2c3.9-0.5,7.7-6.5,8.8-8.6c0,0.3-0.7,6.4-0.5,7.1
	c0.3,1,1.2,1.1,2.3,0.7c0.4-0.2,0.2-6.7,4.8-11.6c0,0-1.3,6.1-0.3,10.2c0.2,0.8,0.9,2.4,1.8,2.4c2.2,0.2,5.4-9.2,5.7-10
	c0.4,2.2,2.5,3.5,3.4,4.2c-0.7,1.2-3.2,5.2-0.5,6.7c1.3,0.7,2.9,0.5,4-0.6c3.6-3.9,0.4-6.7-0.4-8c0,0,5.3-8.9,5.7-9.2
	c-0.2,5.6,0.1,10.2-0.3,15.6c0.2,0.6,0.6,1.1,2.2,0.7c0,0,1.3-5.6,1.9-6.2c0.1,0.3,2.7,7.7,5.9,6.5c1.2-0.4,1.8-3.7,2.8-6.6
	c1-2.6,2.4-6.1,2.5-6.2c0.3,1.1-0.5,11.8,2,12.5c1.3,0.4,2.4-1,2.9-2c1.4-3.2,2.4-8.8,2.8-9c0.1,1.1,0.9,12.6-0.1,20.2
	c-1.1,8.1-5.8,10.7-5.8,10.7c0.2,0.3,1.4-0.4,2.6-1.6c0.5-0.5,0.9-1,1.3-1.6c0.2,0.1-0.6,1.4-1.7,2.4c-0.6,0.6-1.3,1-2.1,1.3
	c0.4,0.7,1.7,1.5,2.2,1.1c5.7-3.8,6.9-12.1,7.1-16.1C118.8,35.7,117.9,21.9,118,20.6z M60.9,19.3c0.9,0.9,0.1,2.6-1.4,3.9
	c-1.1,0.9-2.4,1.6-3.8,1.9C56.5,19.2,59.9,18.3,60.9,19.3z M86.4,32.3c-0.3,1.4-1.6,2.1-2.1,1.3c-0.3-0.5,0.8-2.7,1.1-3.4
	C86.1,30.7,86.5,31.5,86.4,32.3z M54.5,18.4c-0.3-1.1-0.4-1.8-1.3-1.9c-4.5,0.3-8.6,0.7-13.2,0c-0.1,0.9,0.2,1.7,0.8,2.4
	c2.7,0.5,5.5,0.7,8.2,0.4c-2,2.5-3.7,5.2-4.9,8.2c-1.6,4.2-2.5,11-0.2,14.8c0.5,0.8,1.7,1,3,0c-0.3-0.5-0.4-1-0.5-1.6
	c0.1,0.4,0.4,0.8,0.7,1.1c-0.6-2.2-3.1-7,1.2-15.9C50.1,22.3,54.5,18.4,54.5,18.4z M8.1,8.9c2-1.3,9.6-4.1,17.8-3.8
	c6.4,0.2,9.4,2.6,10.1,4c0.1-0.1,0.2-0.2,0.3-0.3c0.3-2.3,0-3-1.7-4.6C29.6,0,19.9,0.6,11,3.6c-10.3,3.6-10.4,9-10.3,10
	c0.1,3.2,1.1,6,8.1,8.7c6.7,2.6,11.4,4,12.7,6.1c-5.5,2.9-11.8,7.4-10.3,12.2c0.9,2.8,8,2.3,13.6-3.5c3.2-3.3,0.6-8.2,0.5-8.4
	c0.5-0.3,1-0.5,1.6-0.7c-0.1,1,0.4,6.6,5.1,6.6c5.8,0,11-7.9,11-12.6c0-0.8-1.3-1.5-2.2-1.5c0,4.6-5.5,13.2-9.6,11.1
	c-1.4-0.7-1.7-3.7-1.3-4.5c8.5-3.2,9.9-5.6,9.3-8.5c-0.4-2.1-3.3-2.6-5-2c-4.1,1.2-5.8,5-7.2,9.1c-1.1,0.5-1.9,0.7-2.9,1.2
	c-6.3-7.5-18.9-6.6-18.9-12.8C4.8,10.9,7,9.6,8.1,8.9 M35.1,18.8c0.7-0.3,1.4,0,1.7,0.6c0.1,0.2,0.1,0.4,0.1,0.7
	c-0.2,1.5-1.9,2.5-6.5,4.4C31.2,22,32.8,19.4,35.1,18.8L35.1,18.8z M22.7,29.7C22.8,29.7,22.8,29.7,22.7,29.7
	c-2.4,1.7-4.9,3.5-7.1,5.5C17.5,32.9,20.2,31.3,22.7,29.7z M23.4,32.8c-0.5,3-3.4,4.6-6.4,6.1c-0.8,0.4-3.1,1.1-3.4,0
	c-0.5-2.5,7.2-7.8,9.1-9c0,0,0,0,0.1,0c0,0,0,0,0,0C23.4,30.8,23.6,31.8,23.4,32.8z"/>
</svg>
