<?xml version="1.0" encoding="utf-8"?>
<!-- Generator: Adobe Illustrator 19.2.1, SVG Export Plug-In . SVG Version: 6.00 Build 0)  -->
<svg version="1.1" id="Шар_1" xmlns="http://www.w3.org/2000/svg" xmlns:xlink="http://www.w3.org/1999/xlink" x="0px" y="0px"
	 viewBox="0 0 65 65" style="enable-background:new 0 0 65 65;" xml:space="preserve">
<style type="text/css">
	.st0{fill:#FFFFFF;}
</style>
<g>
	<path class="st0" d="M25.3,18.3C25.3,18.3,25.3,18.3,25.3,18.3C25.3,18.3,25.3,18.3,25.3,18.3z"/>
	<path class="st0" d="M47.4,28.9L29,18.4h0c-0.6-0.3-1.3-0.5-2-0.5l0,0c-0.6,0-1.1,0.2-1.6,0.4c0,0,0,0-0.1,0c0,0,0,0,0,0
		c0,0,0,0,0,0c0,0,0,0,0,0h0h0c-0.3,0.1-0.5,0.3-0.7,0.4c-1,0.7-1.7,1.9-1.8,3.2l0,19l0,2v0c0,2.3,1.9,4.1,4.3,4.1
		c0.7,0,1.3-0.2,1.9-0.5l18.8-10.9c0,0,0,0,0,0c1.1-0.7,1.7-1.9,1.8-3.2C49.5,31,48.7,29.7,47.4,28.9z M46,34.6c0,0-0.1,0-0.1,0.1
		l-17.3,9.9h0c-0.7,0.4-1.6,0.4-2.3,0c-0.7-0.4-1.2-1.2-1.2-2.1v0l0-1.9l0-18c0-0.9,0.5-1.6,1.2-2c0.4-0.2,0.8-0.3,1.2-0.3l0,0
		c0.4,0,0.8,0.1,1.2,0.3l17.5,10c0.8,0.4,1.2,1.2,1.2,2.1C47.3,33.4,46.8,34.2,46,34.6z"/>
	<path class="st0" d="M41,2c-0.1,0-0.1,0-0.2-0.1c-2.6-0.7-5.3-1.1-8-1.1C18.3,0.6,5.4,10.3,1.6,24.3C-2.9,41.2,7.1,58.5,24,63.1
		c0.1,0,0.2,0,0.2,0.1c17,4.6,34.5-5.4,39.2-22.4C67.9,23.8,57.9,6.5,41,2z M61,39.9c0,0.1,0,0.1,0,0.2
		c-4.3,15.6-20.5,24.8-36.1,20.6c-15.6-4-25-20-20.9-35.6C7.3,12.1,19.3,3,32.8,3.3c2.5,0,5,0.4,7.4,1C55.7,8.4,65.1,24.3,61,39.9z"
		/>
</g>
</svg>
