<?xml version="1.0" encoding="utf-8"?>
<!-- Generator: Adobe Illustrator 19.2.1, SVG Export Plug-In . SVG Version: 6.00 Build 0)  -->
<svg version="1.1" id="Шар_1" xmlns="http://www.w3.org/2000/svg" xmlns:xlink="http://www.w3.org/1999/xlink" x="0px" y="0px"
	 viewBox="0 0 19 19" style="enable-background:new 0 0 19 19;" xml:space="preserve">
<style type="text/css">
	.st0{fill:#5E7BB3;}
</style>
<path id="facebook_icon" class="st0" d="M4,0h11c2.2,0,4,1.8,4,4v11c0,2.2-1.8,4-4,4H4c-2.2,0-4-1.8-4-4V4C0,1.8,1.8,0,4,0z M7.3,12
	c0,0.1,0,0.3,0,0.4V19H10c0-1.7,0-3.5,0-5.2c0,0,0-1.7,0-1.7c0,0,0,0,0,0c0,0,1.7,0,1.7,0l0,0L12,9.6h-2c0-0.4,0-0.7,0-1.1
	c0-0.3,0-0.6,0.2-0.9L12,7.4V5c-0.3,0-0.8,0-1.1,0s-0.7,0-1.1,0c-0.6,0-1.2,0.2-1.6,0.6c-0.6,1-0.8,0.1-0.8,3.9H6V12L7.3,12z"/>
</svg>
