<?xml version="1.0" encoding="utf-8"?>
<!-- Generator: Adobe Illustrator 18.0.0, SVG Export Plug-In . SVG Version: 6.00 Build 0)  -->
<!DOCTYPE svg PUBLIC "-//W3C//DTD SVG 1.1//EN" "http://www.w3.org/Graphics/SVG/1.1/DTD/svg11.dtd">
<svg version="1.1" id="Layer_1" xmlns="http://www.w3.org/2000/svg" xmlns:xlink="http://www.w3.org/1999/xlink" x="0px" y="0px"
	 viewBox="-20.8 -5 32 32" enable-background="new -20.8 -5 32 32" xml:space="preserve">
<path id="vk" fill="#8E9197" d="M-4.8-5c8.8,0,16,7.2,16,16s-7.2,16-16,16s-16-7.2-16-16c0,0,0,0,0,0C-20.8,2.2-13.6-5-4.8-5z
	 M-1.8,10.7L-1.8,10.7c1-0.5,1.7-1.5,1.5-2.7c0-1.5-1.1-2.7-2.5-2.9c-0.3,0-3.7-0.1-5-0.1c-0.5,0-0.9,0.3-1,0.8c0,0.1,0,0.1,0,0.2
	v10c0,0.5,0.5,0.9,1,1h3.5c-0.9,0,4.7,0.3,4.5-3.5C0.3,12.2-0.6,11-1.8,10.7L-1.8,10.7z M-4.6,9.9c-0.5,0-1.1,0.1-1.1,0.1V7
	c0,0,0.3,0,1,0C-4,6.9-3.4,7.4-3.3,8.1c0,0.2,0,0.3,0,0.5C-3.2,9.3-3.8,9.9-4.6,9.9C-4.6,9.9-4.6,9.9-4.6,9.9L-4.6,9.9z M-4.2,15
	h-1.5v-3c0,0,0.9,0,1.5,0c0.8,0,1.5,0.6,1.5,1.4c0,0,0,0.1,0,0.1c0,0.8-0.6,1.5-1.4,1.5C-4.2,15-4.2,15-4.2,15z"/>
</svg>
