<?xml version="1.0" standalone="no"?>
<!DOCTYPE svg PUBLIC "-//W3C//DTD SVG 1.1//EN" "http://www.w3.org/Graphics/SVG/1.1/DTD/svg11.dtd" >
<svg xmlns="http://www.w3.org/2000/svg">
<metadata></metadata>
<defs>
<font id="exo_2medium" horiz-adv-x="1171" >
<font-face units-per-em="2048" ascent="1638" descent="-410" />
<missing-glyph horiz-adv-x="454" />
<glyph horiz-adv-x="0" />
<glyph unicode="&#xd;" horiz-adv-x="681" />
<glyph unicode=" "  horiz-adv-x="454" />
<glyph unicode="&#x09;" horiz-adv-x="454" />
<glyph unicode="&#xa0;" horiz-adv-x="454" />
<glyph unicode="!" horiz-adv-x="567" d="M184 811v612h199v-612l-21 -375h-157zM188 74v108q0 39 16.5 55.5t55.5 16.5h49q41 0 57.5 -16.5t16.5 -55.5v-108q0 -41 -16.5 -57.5t-57.5 -16.5h-49q-41 0 -56.5 16.5t-15.5 57.5z" />
<glyph unicode="&#x22;" horiz-adv-x="733" d="M137 1413h160l-12 -442h-135zM438 1413h160l-12 -442h-135z" />
<glyph unicode="#" horiz-adv-x="1409" d="M84 430l25 125h233l64 354h-236l25 125h231l66 379h157l-65 -379h356l66 379h157l-65 -379h225l-25 -125h-223l-61 -354h223l-25 -125h-221l-73 -430h-158l76 430h-359l-74 -430h-157l76 430h-238zM500 555h356l64 354h-359z" />
<glyph unicode="$" horiz-adv-x="1157" d="M113 1065q0 121 25.5 195.5t89 113.5t141 51.5t209.5 12.5h22l14 196h103l-15 -200q172 -6 302 -39l-13 -150q-180 8 -303 8l-35 -454l117 -33q158 -43 222.5 -139.5t64.5 -261.5q0 -236 -106.5 -313t-377.5 -77l-18 -231h-104l18 233q-170 8 -338 39l14 158 q262 -6 340 -8l37 463l-129 35q-152 41 -216 138t-64 263zM319 1059q0 -104 38 -147.5t135 -67.5l59 -17l35 428q-160 0 -213.5 -31.5t-53.5 -164.5zM588 166q154 0 207 39t53 162q0 109 -37 150.5t-131 66.5l-57 16z" />
<glyph unicode="%" horiz-adv-x="1835" d="M90 1020q0 229 75 324.5t259 95.5t259 -95.5t75 -324.5q0 -227 -75 -323.5t-259 -96.5t-259 96.5t-75 323.5zM242 1020q0 -168 38.5 -232.5t141.5 -64.5q104 0 143 64.5t39 232.5t-39 232.5t-143 64.5q-102 0 -141 -65.5t-39 -231.5zM393 0l903 1413h140l-904 -1413h-139 zM1077 399q0 227 75 323.5t259 96.5q182 0 257 -96t75 -324q0 -229 -75 -324t-257 -95q-184 0 -259 95t-75 324zM1229 399q-2 -168 37 -232.5t143 -64.5t143 64.5t39 232.5q0 170 -39 232.5t-143 62.5t-143 -63.5t-37 -231.5z" />
<glyph unicode="&#x26;" horiz-adv-x="1576" d="M131 358q0 170 64.5 264.5t214.5 106.5v8q-127 12 -182.5 92t-55.5 238q0 98 21.5 164.5t58.5 106.5t106.5 61.5t148.5 29t202 7.5q190 0 327 -23l-24 -153q-86 6 -310 6q-190 0 -255.5 -42t-65.5 -186q0 -135 55.5 -182t202.5 -47h369l16 252h166v-252h250v-156h-250 v-370q0 -72 27.5 -100.5t97.5 -28.5h145l23 -146q-92 -27 -223 -26q-209 0 -248 168q-90 -94 -197.5 -133.5t-267.5 -39.5q-225 0 -320.5 85t-95.5 296zM348 393q0 -137 53.5 -187t196.5 -50q256 2 406 147v350h-377q-158 0 -218.5 -54t-60.5 -206z" />
<glyph unicode="'" horiz-adv-x="432" d="M137 1413h160l-12 -442h-135z" />
<glyph unicode="(" horiz-adv-x="737" d="M104 639q0 399 133 637t416 342l25 -92q-199 -94 -290 -313.5t-91 -571.5q0 -692 381 -887l-25 -92q-283 106 -416 343t-133 634z" />
<glyph unicode=")" horiz-adv-x="737" d="M59 -246q381 195 381 887q0 352 -91 571.5t-290 313.5l25 92q285 -104 418 -342t133 -637q0 -397 -133 -633.5t-418 -343.5z" />
<glyph unicode="*" horiz-adv-x="921" d="M102 1124l39 111l240 -94v-51l-25 -33zM209 821l209 262l-17 332h119l-20 -332l209 -264l-95 -69l-155 254l-154 -252zM537 1090v51l243 94l37 -113l-254 -65z" />
<glyph unicode="+" horiz-adv-x="1126" d="M111 539v147h374v358h152v-358h377v-147h-377v-357h-150v357h-376z" />
<glyph unicode="," horiz-adv-x="475" d="M133 63v119q2 39 19.5 55.5t58.5 16.5h57q39 0 54.5 -15.5t15.5 -56.5v-131q-2 -182 -78 -325l-94 24q23 115 22 250q-55 0 -55 63z" />
<glyph unicode="-" horiz-adv-x="905" d="M141 442v152h623v-152h-623z" />
<glyph unicode="." horiz-adv-x="477" d="M133 74v108q0 41 16.5 56.5t57.5 15.5h63q41 0 57.5 -15.5t16.5 -56.5v-108q0 -41 -16.5 -57.5t-57.5 -16.5h-63q-41 0 -57.5 16.5t-16.5 57.5z" />
<glyph unicode="/" horiz-adv-x="1069" d="M51 -137l805 1550h162l-805 -1550h-162z" />
<glyph unicode="0" horiz-adv-x="1243" d="M125 706.5q0 395.5 111.5 564.5t384 169t384 -169t111.5 -564.5t-111.5 -564.5t-384 -169t-384 169t-111.5 564.5zM326 706.5q0 -307.5 64.5 -431t227.5 -123.5q170 0 235 122.5t65 432t-65 432.5t-235 123q-164 0 -228 -124t-64 -431.5z" />
<glyph unicode="1" horiz-adv-x="823" d="M41 1270l354 143h205v-1413h-205v1094q0 74 11 127l-340 -105z" />
<glyph unicode="2" horiz-adv-x="1153" d="M111 0v129q0 55 30 86l394 444q262 283 256 457q-2 88 -60.5 114.5t-189.5 26.5q-185 1 -408 -30l-12 159q229 51 438 52q223 0 330.5 -63.5t107.5 -246.5q0 -131 -53 -241.5t-192 -263.5l-394 -433q96 8 226 9h463v-199h-936z" />
<glyph unicode="3" horiz-adv-x="1140" d="M104 10l13 166q240 -20 389 -20q166 0 233.5 57t67.5 203q0 125 -55.5 185.5t-210.5 60.5h-260v159h260q145 2 190 63.5t45 178.5q-2 125 -57 161t-217 36q-168 -1 -361 -17l-14 160q211 37 405 37q236 0 338.5 -72t102.5 -256q0 -317 -207 -356v-8q131 -23 185.5 -110 t58.5 -245q4 -219 -100.5 -319.5t-352.5 -100.5q-195 0 -453 37z" />
<glyph unicode="4" horiz-adv-x="1267" d="M92 567l391 846h201l-381 -831q-16 -41 -2 -60.5t51 -19.5h451v409l37 230h157v-639h185v-146l-185 -20v-336h-194v336h-567q-92 0 -136.5 72.5t-7.5 158.5z" />
<glyph unicode="5" horiz-adv-x="1101" d="M100 27l25 166q193 -35 356 -35q182 0 243.5 61.5t66.5 204.5q2 41 -3.5 73.5t-11.5 58.5t-25.5 46.5t-34 33.5t-49 24.5t-58 17.5t-77 12t-87 9t-105.5 10l-107 10q-35 2 -56 26.5t-19 61.5l32 606h760l-8 -176h-586l-20 -352l160 -15q272 -23 384.5 -124t110.5 -322 q0 -94 -18.5 -167t-65.5 -140.5t-142 -104.5t-235 -37q-201 0 -430 52z" />
<glyph unicode="6" horiz-adv-x="1175" d="M131 680q0 244 32 395.5t106.5 230t168.5 105.5t246 27q176 0 293 -31l-16 -150q-92 6 -277 7q-98 0 -156.5 -16.5t-103.5 -68t-65.5 -144.5t-24.5 -247q70 76 148.5 107t195.5 31q221 0 305 -102.5t84 -360.5q0 -121 -17.5 -202t-64.5 -149.5t-138 -102.5t-233 -34 q-154 0 -246 32t-146 118t-72.5 213t-18.5 342zM332 643q0 -160 7 -242t38 -145t86 -83.5t153 -20.5q160 0 208 71.5t48 239.5q0 166 -52 231.5t-195 65.5q-84 0 -148.5 -25.5t-144.5 -91.5z" />
<glyph unicode="7" horiz-adv-x="1052" d="M76 1413h805q66 0 92 -36t8 -97l-436 -1280h-205l387 1130q23 66 47 109h-690z" />
<glyph unicode="8" horiz-adv-x="1243" d="M135 352q0 174 52.5 269.5t181.5 107.5v8q-201 23 -201 324q0 203 95 289t358 86q264 -2 359 -87t95 -288q0 -301 -201 -324v-8q127 -12 180.5 -107.5t53.5 -269.5q0 -201 -101.5 -286.5t-385.5 -88.5q-279 -2 -382.5 86.5t-103.5 288.5zM328 397q0 -141 59 -192t236 -51 q174 0 231 51t57 192q0 154 -56 204t-230 50q-178 -2 -237.5 -52t-59.5 -202zM354 1040q0 -135 53.5 -180t217 -45t214 44t50.5 181q0 133 -52.5 181.5t-214 48.5t-215 -48t-53.5 -182z" />
<glyph unicode="9" horiz-adv-x="1175" d="M109 948q-2 254 103 372t355 118q90 0 157 -11.5t118 -34t85 -64.5t57.5 -93t34.5 -132t16 -168t5 -212q0 -190 -20.5 -319.5t-59 -214.5t-108.5 -132t-154 -64.5t-211 -17.5q-184 0 -313 31l16 152q98 -6 295 -6t273 97t84 382q-74 -80 -154 -112t-196 -32 q-383 0 -383 461zM303 948q-2 -152 51.5 -224.5t192.5 -72.5q84 0 148.5 27t146.5 96q0 106 -2 169t-12.5 126.5t-28 94t-48 57t-75.5 35t-111 8.5q-158 0 -211 -75t-51 -241z" />
<glyph unicode=":" horiz-adv-x="495" d="M135 74v108q0 39 16.5 55.5t55.5 16.5h65q41 0 57.5 -15.5t16.5 -56.5v-108q0 -41 -16.5 -57.5t-57.5 -16.5h-65q-41 0 -56.5 16.5t-15.5 57.5zM135 723v111q0 39 16.5 55t55.5 16h65q41 0 57.5 -15.5t16.5 -55.5v-111q0 -41 -16.5 -56.5t-57.5 -15.5h-65 q-39 0 -55.5 16.5t-16.5 55.5z" />
<glyph unicode=";" horiz-adv-x="497" d="M145 723v111q0 41 16.5 56t57.5 15h64q41 0 57 -15.5t16 -55.5v-111q0 -41 -16 -56.5t-57 -15.5h-64q-41 0 -57.5 15.5t-16.5 56.5zM147 63v119q2 39 18.5 55.5t57.5 16.5h58q39 0 54 -15.5t15 -56.5v-131q-2 -182 -78 -325l-92 24q20 121 21 250q-57 0 -54 63z" />
<glyph unicode="&#x3c;" horiz-adv-x="1081" d="M104 532v156l838 354v-157l-668 -275l668 -268v-158z" />
<glyph unicode="=" horiz-adv-x="1198" d="M145 311v148h906v-148h-906zM145 743v148h906v-148h-906z" />
<glyph unicode="&#x3e;" horiz-adv-x="1081" d="M139 184v158l668 268l-668 275v157l838 -354v-156z" />
<glyph unicode="?" horiz-adv-x="1032" d="M78 1415q25 4 76 13.5t77.5 12.5t73.5 8t102.5 7t127.5 2q418 0 417 -317q0 -84 -36.5 -156t-90 -126t-106.5 -110.5t-93 -136.5t-44 -176h-168q-2 104 29.5 191.5t79.5 145.5t97.5 109.5t84 109t36.5 114.5q4 94 -56 139t-193 45q-197 0 -404 -18zM399 74v108 q0 41 16.5 56.5t57.5 15.5h49q41 0 57.5 -15.5t16.5 -56.5v-108q0 -41 -16.5 -57.5t-57.5 -16.5h-49q-41 0 -57.5 16.5t-16.5 57.5z" />
<glyph unicode="@" horiz-adv-x="1480" d="M145 547q0 156 6.5 250t30 175t58 121t105.5 67.5t156 35.5t224 8h297q156 0 235.5 -70.5t79.5 -230.5v-633h-147l-21 154q-63 -66 -170.5 -118t-222.5 -52q-123 0 -196.5 64.5t-73.5 185.5v102q0 102 59.5 157.5t175.5 55.5h410v78q0 82 -36 112.5t-132 30.5h-256 q-100 0 -151.5 -3t-103.5 -20.5t-72.5 -45t-39 -88t-22.5 -136t-4 -200.5q0 -98 2 -163t13 -123t21.5 -90t41 -59.5t56.5 -39t84 -19.5t106.5 -9t140.5 -1h534v-147q-317 -18 -532 -19q-158 -2 -254 5t-176 36t-119 69t-65.5 123t-34 180t-7.5 257zM690 539q0 -127 125 -127 q86 0 179 33.5t157 93.5v159l-340 -8q-70 -2 -95.5 -25.5t-25.5 -82.5v-43z" />
<glyph unicode="A" horiz-adv-x="1282" d="M18 0l443 1358q16 55 76 55h208q61 0 74 -55l445 -1358h-211l-131 426h-564l-131 -426h-209zM414 604h454l-166 537q-6 18 -17 57t-17 57h-56l-32 -114z" />
<glyph unicode="B" horiz-adv-x="1273" d="M172 0v1413q166 16 471 17q266 0 369.5 -77t103.5 -292q0 -154 -57 -233t-182 -91v-8q154 -14 218 -107.5t64 -269.5q0 -213 -101.5 -290.5t-352.5 -77.5q-346 0 -533 16zM373 160l301 -2q162 0 220 46t58 183q0 154 -62.5 209t-227.5 57h-289v-493zM373 811h286 q147 0 204 46t57 179q0 131 -61.5 175t-225.5 44h-260v-444z" />
<glyph unicode="C" d="M121 706.5q0 403.5 125 567.5t434 164q221 0 391 -41l-20 -158q-164 16 -371 16q-195 0 -269.5 -118.5t-74.5 -430t74.5 -430t269.5 -118.5h21q244 0 378 22l21 -155q-170 -49 -420 -50q-309 0 -434 164t-125 567.5z" />
<glyph unicode="D" horiz-adv-x="1361" d="M172 0v1413q268 18 510 19q311 0 435 -158t124 -567.5t-124 -567t-435 -157.5q-242 0 -510 18zM377 166q131 -6 305 -6q193 0 267.5 118.5t74.5 428t-75 428t-267 118.5q-61 0 -162.5 -1t-142.5 -1v-1085z" />
<glyph unicode="E" horiz-adv-x="1150" d="M160 250v913q2 117 77.5 185.5t206.5 68.5q420 0 607 -16l-11 -160h-561q-61 0 -86.5 -29.5t-25.5 -101.5v-283h596v-165h-596v-361q0 -72 25.5 -101.5t86.5 -29.5h561l11 -158q-186 -16 -607 -16q-131 0 -206.5 68.5t-77.5 185.5z" />
<glyph unicode="F" horiz-adv-x="1105" d="M168 0v1153q0 125 77 194.5t208 69.5q406 0 585 -18l-10 -158h-524q-72 0 -101.5 -29.5t-29.5 -101.5v-305h577v-166h-577v-639h-205z" />
<glyph unicode="G" horiz-adv-x="1288" d="M121 713q0 285 59.5 441.5t186.5 221t356 64.5q221 0 393 -43l-20 -156q-172 16 -361 16q-96 0 -155.5 -11t-110.5 -44t-76.5 -96.5t-40 -161.5t-14.5 -246q0 -305 62.5 -425.5t220.5 -120.5q150 0 333 124v539h201v-815h-151l-21 143q-178 -170 -420 -170 q-233 0 -337.5 178.5t-104.5 561.5z" />
<glyph unicode="H" horiz-adv-x="1372" d="M172 0v1413h205v-571h618v571h205v-1413h-205v666h-618v-666h-205z" />
<glyph unicode="I" horiz-adv-x="548" d="M172 0v1413h205v-1413h-205z" />
<glyph unicode="J" horiz-adv-x="702" d="M57 8l23 148h100q152 0 152 143v1114h205v-1104q0 -162 -72 -245q-70 -82 -201 -82h-6q-121 0 -201 26z" />
<glyph unicode="K" horiz-adv-x="1222" d="M172 0v1413h205v-434q0 -88 -15 -160h160l416 594h223l-399 -577q-33 -47 -86 -99v-6q57 -49 98 -106l414 -625h-227l-439 653h-160q14 -86 15 -145v-508h-205z" />
<glyph unicode="L" horiz-adv-x="1054" d="M168 274v1139h205v-1110q0 -72 28.5 -101.5t100.5 -29.5h502l10 -158q-199 -18 -545 -18q-301 0 -301 278z" />
<glyph unicode="M" horiz-adv-x="1804" d="M145 0l54 1329q4 84 84 84h227q63 0 86 -70l240 -827q20 -74 47 -190h37q25 109 49 192l237 825q22 70 90 70h224q80 0 84 -84l57 -1329h-205l-49 1243h-41l-287 -1005q-18 -70 -88 -70h-178q-72 0 -90 70l-289 1005h-39l-47 -1243h-203z" />
<glyph unicode="N" horiz-adv-x="1449" d="M172 0v1333q0 80 78 80h188q59 0 90 -63l428 -938q8 -18 29 -60.5t38 -80.5t32 -70h30q-10 123 -10 219v993h203v-1333q0 -80 -76 -80h-194q-61 0 -88 63l-441 963q-74 160 -84 197h-28q10 -82 10 -197v-1026h-205z" />
<glyph unicode="O" horiz-adv-x="1370" d="M121 706.5q0 413.5 125 573.5t438 160q315 0 440 -160t125 -573.5t-125 -573.5t-440 -160q-313 0 -438 160t-125 573.5zM336 706.5q0 -313.5 74.5 -432t273.5 -118.5t274.5 118.5t75.5 432t-75.5 432t-274.5 118.5t-273.5 -118.5t-74.5 -432z" />
<glyph unicode="P" horiz-adv-x="1212" d="M172 0v1413q174 18 492 19q264 0 363 -94.5t99 -352.5q0 -260 -95 -354t-343 -94q-154 0 -311 18v-555h-205zM377 713h282q150 2 205.5 57t55.5 215t-55.5 215t-205.5 55q-205 0 -282 -2v-540z" />
<glyph unicode="Q" horiz-adv-x="1374" d="M121 706.5q0 413.5 126 573.5t439 160q315 0 440 -160t125 -573.5t-125 -573.5t-440 -160q-313 0 -439 160t-126 573.5zM338 706.5q0 -313.5 74.5 -432t273.5 -118.5t274.5 118.5t75.5 432t-75.5 432t-274.5 118.5t-273.5 -118.5t-74.5 -432zM545 -209l55 125 q244 -94 559 -139l-65 -205q-262 55 -549 219z" />
<glyph unicode="R" horiz-adv-x="1269" d="M172 0v1413q174 18 494 19q256 0 361.5 -88.5t105.5 -321.5q0 -170 -60.5 -256t-200.5 -104v-11q137 -41 179 -205l133 -446h-219l-121 440q-45 141 -178 142l-291 2v-584h-203zM375 758h287q152 2 208 54t56 198q0 143 -56.5 194t-207.5 51q-209 0 -287 -2v-495z" />
<glyph unicode="S" horiz-adv-x="1153" d="M109 1065q0 121 25.5 195.5t89 113.5t141 51.5t208.5 12.5q250 0 426 -43l-12 -150q-297 10 -405 10q-160 0 -213.5 -31.5t-53.5 -164.5q0 -104 38 -147.5t132 -67.5l281 -78q158 -43 222.5 -139.5t64.5 -261.5q0 -233 -106.5 -311.5t-375.5 -78.5q-225 0 -444 41l14 152 q319 -10 434 -10q160 2 214.5 41t54.5 168q0 109 -37 150.5t-131 66.5l-287 80q-152 41 -216 138t-64 263z" />
<glyph unicode="T" horiz-adv-x="1196" d="M49 1231v182h1100v-182h-449v-1231h-206v1231h-445z" />
<glyph unicode="U" horiz-adv-x="1363" d="M162 545v868h205v-868q0 -217 69.5 -303t245.5 -86q174 0 244.5 86t70.5 303v868h205v-868q0 -311 -115.5 -441.5t-396.5 -130.5q-289 0 -408.5 130t-119.5 442z" />
<glyph unicode="V" horiz-adv-x="1253" d="M31 1413h211l319 -1100q10 -39 39 -155h55q12 59 39 155l318 1100h211l-418 -1356q-18 -57 -78 -57h-201q-59 0 -77 57z" />
<glyph unicode="W" horiz-adv-x="1947" d="M61 1413h218l202 -1077q6 -35 25 -180h47q10 88 31 180l202 1010q14 67 76 67h2h219q29 0 50.5 -19.5t27.5 -47.5l201 -1012q16 -82 31 -178h47q4 29 12 88t14 88l203 1081h217l-270 -1354q-18 -59 -80 -59h-227q-66 0 -80 61l-205 1039q-20 106 -29 160h-43l-30 -160 l-203 -1039q-4 -27 -27.5 -44t-52.5 -17h-229q-63 0 -78 59z" />
<glyph unicode="X" horiz-adv-x="1259" d="M45 0l389 731l-362 682h221l309 -602h53l310 602h221l-363 -682l389 -731h-223l-336 655h-49l-336 -655h-223z" />
<glyph unicode="Y" horiz-adv-x="1175" d="M18 1413h218l284 -579q16 -35 62 -164h14q43 127 61 161l285 582h213l-465 -924v-489h-205v492z" />
<glyph unicode="Z" horiz-adv-x="1163" d="M98 0v174l731 1065h-720v174h944v-174l-729 -1065h743v-174h-969z" />
<glyph unicode="[" horiz-adv-x="679" d="M182 -219v1673q0 53 34 86t85 33h297v-129h-199q-31 0 -30 -33v-1587q0 -33 30 -33h199v-129h-297q-119 0 -119 119z" />
<glyph unicode="\" horiz-adv-x="1071" d="M51 1413h164l805 -1550h-164z" />
<glyph unicode="]" horiz-adv-x="679" d="M82 -209h197q33 0 32 33v1587q0 33 -32 33h-197v129h297q51 0 85 -33t34 -86v-1673q0 -51 -34 -85t-85 -34h-297v129z" />
<glyph unicode="^" horiz-adv-x="886" d="M61 803l312 436h143l309 -436l-80 -49l-292 354h-17l-295 -354z" />
<glyph unicode="_" horiz-adv-x="1179" d="M141 0h897v-150h-897v150z" />
<glyph unicode="`" horiz-adv-x="659" d="M51 1335l111 152l362 -299l-65 -92z" />
<glyph unicode="a" horiz-adv-x="1128" d="M100 264v105q0 119 74 184t209 65h401v78q-2 92 -43 127t-155 35h-9q-116 0 -415 -24l-19 145q270 47 486 47q182 0 268 -73.5t86 -256.5v-696h-156l-22 158q-172 -176 -399 -176q-139 0 -222.5 73.5t-83.5 208.5zM301 289q0 -74 35 -106.5t110 -32.5q178 0 338 139v180 h-364q-66 -2 -92.5 -34t-26.5 -93v-53z" />
<glyph unicode="b" horiz-adv-x="1173" d="M150 47v1387h198v-359q0 -137 -20 -227q168 178 377 178q186 0 274 -123t88 -399q0 -268 -99.5 -398.5t-351.5 -130.5q-268 0 -466 72zM348 172q123 -31 264 -31q137 2 192.5 82t57.5 281q-2 201 -47 275.5t-180 74.5q-70 0 -132.5 -32.5t-154.5 -106.5v-543z" />
<glyph unicode="c" horiz-adv-x="1005" d="M106 499.5q0 288.5 108 407.5t370 119q201 0 331 -51l-26 -127q-154 10 -271 10q-172 0 -238.5 -75.5t-66.5 -282.5t66.5 -283t238.5 -76q168 0 295 23l19 -133q-152 -55 -348 -56q-262 0 -370 118t-108 406.5z" />
<glyph unicode="d" horiz-adv-x="1177" d="M109 504q0 287 92 404.5t288 117.5q188 0 345 -90q-8 88 -9 197v301h199v-1434h-156l-16 137q-193 -162 -393 -162q-184 0 -267 132.5t-83 396.5zM313 506q0 -207 48.5 -283t164.5 -76q76 0 134.5 26.5t164.5 98.5v533q-186 49 -286 49q-127 0 -176.5 -70.5t-49.5 -277.5 z" />
<glyph unicode="e" horiz-adv-x="1103" d="M106 502q0 291 108 407.5t355 116.5q229 0 334 -84t105 -252q0 -287 -244 -287h-449q14 -156 81 -209t218 -53q133 0 351 25l18 -131q-135 -59 -395 -60q-262 0 -372 119t-110 408zM313 557h398q98 0 98 133q-2 92 -52 130t-177 38q-147 0 -205 -62.5t-62 -238.5z" />
<glyph unicode="f" horiz-adv-x="788" d="M55 846v143l181 10v175q0 145 69.5 219.5t226.5 74.5q193 0 289 -14l-16 -147h-203q-92 0 -130 -35t-38 -121v-152h309v-153h-309v-846h-198v846h-181z" />
<glyph unicode="g" horiz-adv-x="1148" d="M78 -102q0 84 37 133t123 98q-66 54 -66 141q0 9 1 18q7 99 79 150q-131 68 -131 264q0 176 96 250t340 74q150 0 238 -27h311l-10 -106l-142 -14q35 -70 35 -174q0 -170 -97 -245t-337 -75q-111 0 -199 16q-22 -29 -22 -62q0 -16 4 -32q16 -51 82 -61l368 -58 q141 -20 202 -87.5t61 -196.5q0 -178 -104.5 -246t-379.5 -68q-276 0 -382.5 67t-106.5 241zM270 -86q0 -98 56.5 -127t238.5 -29q176 0 233.5 30t57.5 126q0 70 -30.5 91.5t-139.5 37.5l-321 43q-94 -78 -95 -172zM301 705q0 -92 56.5 -131t197.5 -39q139 0 194.5 37.5 t55.5 132.5q0 96 -54.5 132.5t-195.5 36.5q-143 0 -198.5 -36.5t-55.5 -132.5z" />
<glyph unicode="h" horiz-adv-x="1193" d="M154 0v1434h200v-387q0 -102 -14 -195q238 174 436 174q131 0 201 -70.5t70 -205.5v-750h-199v692q0 94 -27.5 130t-99.5 36q-78 0 -159 -35t-210 -112v-711h-198z" />
<glyph unicode="i" horiz-adv-x="520" d="M156 1253v115q0 57 57 57h94q57 0 58 -57v-115q0 -59 -58 -59h-94q-57 0 -57 59zM162 0v999h196v-999h-196z" />
<glyph unicode="j" horiz-adv-x="524" d="M49 -328q115 145 115 318v1009h198v-1009q0 -123 -54 -229.5t-148 -174.5zM158 1253v115q0 57 59 57h94q57 0 58 -57v-115q0 -59 -58 -59h-94q-59 0 -59 59z" />
<glyph unicode="k" horiz-adv-x="1058" d="M154 0v1434h200v-629q0 -88 -12 -170h123l301 364h229l-301 -362q-27 -37 -73 -74v-4q39 -31 73 -86l334 -473h-229l-332 492h-125q10 -88 10 -156v-336h-198z" />
<glyph unicode="l" horiz-adv-x="618" d="M156 244v1190h198v-1145v-7q0 -58 31 -88q33 -32 98 -32h92l23 -154q-57 -26 -181 -26h-9q-117 0 -184.5 68.5t-67.5 193.5z" />
<glyph unicode="m" horiz-adv-x="1792" d="M154 0v999h163l11 -153q209 180 401 180q207 0 254 -174q199 174 393 174q131 0 200 -70.5t69 -205.5v-750h-195v692q-2 88 -35 127t-110 39q-68 0 -129.5 -30.5t-180.5 -116.5v-711h-190v692q0 90 -35 128t-111 38q-66 0 -128 -30.5t-181 -114.5v-713h-196z" />
<glyph unicode="n" horiz-adv-x="1193" d="M154 0v999h168l12 -153q236 180 442 180q133 0 202 -70.5t69 -205.5v-750h-199v692q0 94 -27.5 130t-99.5 36q-78 0 -156 -35t-213 -114v-709h-198z" />
<glyph unicode="o" horiz-adv-x="1167" d="M106 497.5q0 286.5 109 407.5t369 121t368.5 -121t108.5 -407.5t-108.5 -405.5t-368.5 -119t-369 119t-109 405.5zM313 498q0 -207 57.5 -283t213 -76t213 76t57.5 283q0 209 -57.5 284.5t-213 75.5t-213 -75.5t-57.5 -284.5z" />
<glyph unicode="p" horiz-adv-x="1196" d="M154 -408v1407h163l15 -153q78 82 192.5 131t223.5 49q339 0 339 -529q0 -286 -92 -404t-288 -118q-201 0 -361 101q5 -57 5 -128q0 -36 -1 -75v-281h-196zM350 201q207 -53 303 -54q129 0 179.5 71t50.5 278q0 199 -46 278.5t-157 79.5q-129 0 -330 -145v-508z" />
<glyph unicode="q" d="M106 498q0 268 100.5 398t356.5 130q262 0 459 -74v-1360h-199v328q0 131 17 207q-186 -154 -389 -154q-174 0 -259.5 126t-85.5 399zM311 483q0 -180 43 -258t164 -78q78 0 143.5 29.5t163.5 95.5v555q-114 31 -236 31h-28q-141 -4 -195.5 -81t-54.5 -294z" />
<glyph unicode="r" horiz-adv-x="827" d="M154 0v999h153l21 -151q223 178 420 178h47l-23 -186h-61q-117 0 -359 -115v-725h-198z" />
<glyph unicode="s" horiz-adv-x="1042" d="M98 748q0 166 89 223q86 55 292 55h15q240 -4 426 -35l-17 -143q-313 10 -379 10q-145 0 -189 -17.5t-44 -92.5q0 -35 6 -56.5t31.5 -36t40 -19.5t63.5 -20l283 -69q127 -33 180 -93.5t53 -187.5q0 -176 -97 -232.5t-337 -56.5q-209 0 -397 29l14 148q115 -10 342 -11 q168 0 225.5 23.5t57.5 99.5q0 33 -8.5 54.5t-35 36t-42 19.5t-66.5 17l-278 70q-125 33 -176.5 97.5t-51.5 187.5z" />
<glyph unicode="t" horiz-adv-x="794" d="M51 846v143l182 8v295h197v-293h309v-153h-309v-557q0 -70 29.5 -98.5t101.5 -28.5h146l22 -154q-91 -26 -225 -26h-10q-127 0 -194 72.5t-67 207.5v584h-182z" />
<glyph unicode="u" d="M147 250v749h199v-692v-10q0 -84 31 -118q33 -36 112 -36q117 0 332 133v723h197v-999h-158l-14 137q-219 -164 -426 -164q-272 0 -273 277z" />
<glyph unicode="v" horiz-adv-x="1093" d="M33 999h211l233 -688l55 -172h27l59 172l232 688h211l-356 -950q-20 -49 -70 -49h-178q-51 0 -68 49z" />
<glyph unicode="w" horiz-adv-x="1691" d="M47 999h205l192 -720q25 -102 31 -154h27l35 154l147 659q14 61 74 61h178q59 0 74 -63l145 -657q4 -20 35 -154h27q14 92 30 154l193 720h205l-281 -944q-16 -55 -76 -55h-178q-61 0 -76 63l-145 658q-4 18 -9.5 50t-10.5 58.5t-11 51.5h-24l-33 -160l-144 -658 q-14 -63 -77 -63h-177q-61 0 -73 55z" />
<glyph unicode="x" horiz-adv-x="1091" d="M41 0l328 516l-303 483h213l245 -403h43l244 403h213l-301 -483l328 -516h-215l-271 442h-39l-270 -442h-215z" />
<glyph unicode="y" horiz-adv-x="1091" d="M33 999h213l248 -727q25 -63 34 -122h29q20 55 41 122l246 727h213l-387 -1046q-139 -369 -459 -373l-21 131q117 35 184.5 96.5t108.5 155.5l15 37h-41q-57 0 -70 51z" />
<glyph unicode="z" horiz-adv-x="1048" d="M98 0v162l625 676h-617v161h836v-161l-623 -676h631v-162h-852z" />
<glyph unicode="{" horiz-adv-x="661" d="M90 602v139q80 25 98.5 46.5t18.5 109.5v401q-1 306 368 275v-125q-102 0 -140 -37t-38 -129v-354q2 -127 -36.5 -181.5t-151.5 -74.5q115 -35 154.5 -87.5t42.5 -160.5v-473q0 -92 37.5 -128t140.5 -36v-125q-369 -31 -369 275v518q0 39 -5 61.5t-25.5 38.5t-34 22.5 t-60.5 24.5z" />
<glyph unicode="|" horiz-adv-x="509" d="M182 -346v1945h144v-1945h-144z" />
<glyph unicode="}" horiz-adv-x="663" d="M80 -213q102 0 140 36t38 128v473q2 109 42 161t155 87q-113 20 -152 74.5t-37 181.5v354q0 92 -38 129t-140 37v125q369 31 369 -275v-401q0 -88 18.5 -109.5t97.5 -46.5v-139q-84 -33 -102 -55q-23 -27 -22 -92v-518q0 -305 -369 -275v125z" />
<glyph unicode="~" horiz-adv-x="1071" d="M154 461q-16 129 29.5 195.5t127.5 62.5q74 -4 221.5 -57.5t198.5 -59.5t69.5 18.5t18.5 88.5h103q14 -125 -31 -191.5t-129 -60.5q-84 4 -229.5 57t-192.5 57q-51 6 -68.5 -19t-17.5 -91h-100z" />
<glyph unicode="&#xa1;" horiz-adv-x="534" d="M168 205l20 375h158l21 -375v-602h-199v602zM170 831v111q0 41 17.5 57.5t56.5 16.5h49q39 0 55.5 -16.5t16.5 -57.5v-111q0 -41 -16.5 -56t-55.5 -15h-49q-41 0 -57.5 16.5t-16.5 54.5z" />
<glyph unicode="&#xa2;" horiz-adv-x="1040" d="M104 715q0 289 109 406.5t371 117.5h16l16 174h103l-17 -178q123 -14 211 -45l-24 -133q-86 10 -203 14l-61 -715q143 1 286 21l19 -133q-143 -49 -324 -54l-18 -190h-101l19 193q-219 14 -310.5 133.5t-91.5 388.5zM301 715q0 -178 50 -257.5t171 -95.5l60 709 q-158 -6 -219.5 -83t-61.5 -273z" />
<glyph unicode="&#xa3;" horiz-adv-x="1169" d="M113 686v115h153l-14 264q-6 117 16.5 192.5t77.5 114.5t124 52.5t175 13.5q164 0 377 -21l-12 -164q-158 6 -361 7q-119 0 -162 -41t-34 -158l14 -260h420l-6 -115h-406l8 -139q8 -141 -25.5 -226t-119.5 -155q47 10 139 10h590v-176h-944v176q176 82 158 371l-9 139 h-159z" />
<glyph unicode="&#xa4;" horiz-adv-x="1212" d="M129 340l145 145q-74 102 -73 234q0 137 80 242l-146 145l86 86l144 -145q106 78 241 77q137 0 242 -80l147 148l84 -86l-147 -148q78 -106 78 -239q0 -131 -80 -238l151 -149l-88 -86l-149 149q-102 -80 -237.5 -80t-239.5 78l-146 -145zM319 721q0 -119 84 -204 t203 -83q115 -2 198 83t83 204t-83 203t-198 84q-119 0 -203 -84t-84 -203z" />
<glyph unicode="&#xa5;" horiz-adv-x="1271" d="M68 1413h213l282 -553q14 -29 37 -85t31 -77h14q6 12 28.5 71.5t35.5 90.5l282 553h213l-391 -745h283v-117h-346l-11 -23v-92h357v-117h-357v-319h-204v319h-349v117h349v92l-13 23h-334l-4 117h277z" />
<glyph unicode="&#xa6;" horiz-adv-x="514" d="M184 -346v819h144v-819h-144zM184 780v819h144v-819h-144z" />
<glyph unicode="&#xa7;" horiz-adv-x="1116" d="M123 1169q0 160 98 215.5t314 55.5q258 -4 446 -25l-12 -155q-178 12 -379 12q-70 0 -108 -2t-75.5 -11.5t-54 -32t-18.5 -61.5q-2 -66 30.5 -104.5t100.5 -73.5l319 -180q145 -78 183.5 -200t-6.5 -288h-144q10 133 -19.5 207t-123.5 127l-344 199q-106 61 -156.5 129 t-50.5 188zM135 -313l17 155q190 -12 380 -14q68 0 105 2t75 13.5t54 35t16 62.5q4 63 -28.5 103t-96.5 77l-321 178q-145 76 -184 196.5t4 288.5h143q-10 -135 19.5 -206.5t125.5 -124.5l344 -197q104 -59 155.5 -129t51.5 -193q0 -88 -27.5 -144t-87 -82.5t-126 -36 t-170.5 -9.5q-262 4 -449 25z" />
<glyph unicode="&#xa8;" horiz-adv-x="845" d="M158 1262v110q0 55 53 55h65q53 0 54 -55v-110q0 -55 -54 -56h-65q-53 0 -53 56zM520 1262v110q0 55 53 55h66q55 0 55 -55v-110q0 -55 -55 -56h-66q-53 0 -53 56z" />
<glyph unicode="&#xa9;" horiz-adv-x="1703" d="M115 706.5q0 315.5 213 524.5t524 209t524 -208t213 -525.5t-213 -525.5t-524 -208t-524 209t-213 524.5zM223 706.5q0 -268.5 183.5 -448.5t445.5 -180t445.5 180t183.5 448.5t-183.5 448.5t-445.5 180t-445.5 -180t-183.5 -448.5zM463 710.5q0 245.5 90 346t309 100.5 q162 0 277 -29l-17 -112q-117 8 -262 8q-139 0 -191.5 -67.5t-52.5 -246t52.5 -246t191.5 -67.5q185 1 285 13l14 -113q-123 -33 -297 -33q-219 0 -309 100.5t-90 346z" />
<glyph unicode="&#xaa;" horiz-adv-x="903" d="M125 725v78q0 78 51 122t143 44h291v51q0 102 -123 102q-102 0 -315 -16l-16 111q211 31 362 30q121 0 181.5 -52t60.5 -175v-461h-119l-18 123q-129 -137 -293 -137q-92 0 -148.5 47t-56.5 133zM270 758q0 -47 26 -66.5t81 -19.5q113 0 233 94v119l-243 -19 q-53 -2 -75 -21.5t-22 -56.5v-30z" />
<glyph unicode="&#xab;" horiz-adv-x="1005" d="M88 492v45l328 405l104 -68l-250 -360l252 -367l-104 -69zM469 492v45l328 405l104 -68l-250 -360l252 -367l-104 -69z" />
<glyph unicode="&#xac;" horiz-adv-x="1208" d="M145 535v149h906v-414h-150v265h-756z" />
<glyph unicode="&#xad;" horiz-adv-x="903" d="M141 442v152h623v-152h-623z" />
<glyph unicode="&#xae;" horiz-adv-x="1122" d="M104 983q0 188 133.5 321.5t323.5 133.5q188 0 321.5 -133.5t133.5 -321.5q0 -190 -133 -323.5t-322 -133.5q-190 0 -323.5 133.5t-133.5 323.5zM174 983q0 -162 113.5 -276.5t273.5 -114.5t273.5 114.5t113.5 276.5t-113.5 275.5t-273.5 113.5t-273.5 -113.5 t-113.5 -275.5zM356 725v520q72 6 224 6q115 0 163 -32.5t48 -116.5q0 -117 -119 -131v-4q59 -8 80 -78l59 -164h-96l-53 160q-23 53 -82 53h-134v-213h-90zM446 1004h132q70 2 96 20t24 68q2 53 -24.5 70.5t-95.5 17.5h-132v-176z" />
<glyph unicode="&#xaf;" horiz-adv-x="819" d="M121 1241v145h577v-145h-577z" />
<glyph unicode="&#xb0;" horiz-adv-x="735" d="M100 1180q0 106 79 183t190 77q109 0 188.5 -77t79.5 -183q0 -109 -80 -188t-188 -79q-111 0 -190 79t-79 188zM225 1180q0 -63 41 -104.5t103 -41.5q59 0 101 41t42 105q0 61 -41 101t-102.5 40t-102.5 -40t-41 -101z" />
<glyph unicode="&#xb1;" horiz-adv-x="1200" d="M147 133v148h906v-148h-906zM147 666v147h377v268h152v-268h377v-147h-379v-269h-150v269h-377z" />
<glyph unicode="&#xb2;" horiz-adv-x="888" d="M121 737v86q0 41 24 66l252 244q162 156 168 251q2 51 -35.5 67.5t-119.5 16.5q-134 0 -273 -14l-8 117q154 29 291 28q168 0 240.5 -39.5t72.5 -158.5q0 -129 -164 -287l-250 -244q57 8 138 4h309v-137h-645z" />
<glyph unicode="&#xb3;" horiz-adv-x="849" d="M117 743l8 115q133 -8 262 -8q109 0 151 30.5t42 112.5q0 59 -36 93t-134 34h-174v117h174q51 0 83.5 10t47 31.5t18.5 40t4 47.5q0 63 -37 85t-139 22q-148 -1 -246 -7l-8 113q152 23 279 23q170 0 236.5 -43t66.5 -154q0 -193 -156 -215v-4q96 -12 136 -64.5t42 -148.5 q4 -133 -67.5 -192.5t-243.5 -59.5q-129 0 -309 22z" />
<glyph unicode="&#xb4;" horiz-adv-x="657" d="M111 1188l362 299l111 -152l-408 -239z" />
<glyph unicode="&#xb6;" horiz-adv-x="1214" d="M76 922q0 283 144.5 399.5t484.5 116.5q190 0 315 -35v-1403h-148v1303q-41 2 -180 8v-1741h-147v842q-250 23 -359.5 141.5t-109.5 368.5z" />
<glyph unicode="&#xb7;" horiz-adv-x="495" d="M141 473v111q0 39 16.5 55t57.5 16h66q39 0 55 -16t16 -55v-111q0 -39 -16.5 -55.5t-54.5 -16.5h-66q-41 0 -57.5 16.5t-16.5 55.5z" />
<glyph unicode="&#xb8;" horiz-adv-x="483" d="M66 -473l32 104q78 -2 128 35t53 98q2 33 -22.5 44.5t-98.5 13.5l20 92q135 12 189.5 -14.5t52.5 -118.5q-2 -133 -102.5 -204t-251.5 -50z" />
<glyph unicode="&#xb9;" horiz-adv-x="606" d="M63 1499l238 86h154v-848h-154v627q0 55 6 84l-223 -57z" />
<glyph unicode="&#xba;" horiz-adv-x="907" d="M115 892.5q0 194.5 76 274.5t262 80q188 0 264 -80t76 -274.5t-76 -272t-264 -77.5q-186 0 -262 77.5t-76 272zM268 893q2 -133 41 -180t144 -47q106 0 145 47t39 180t-40 182t-144.5 49t-143.5 -49t-41 -182z" />
<glyph unicode="&#xbb;" horiz-adv-x="1005" d="M102 147l252 367l-250 360l107 68l326 -405v-45l-328 -414zM483 147l252 367l-250 360l105 68l328 -405v-45l-330 -414z" />
<glyph unicode="&#xbc;" horiz-adv-x="1775" d="M72 1327l235 86h154v-848h-154v627q0 45 8 84l-225 -57zM285 0l903 1413h139l-903 -1413h-139zM979 229.5q-27 36.5 2 102.5l250 516h149l-239 -492q-8 -16 2 -29.5t33 -13.5h274v236l27 135h118v-371h99v-106l-99 -12v-195h-145v193h-387q-57 0 -84 36.5z" />
<glyph unicode="&#xbd;" horiz-adv-x="1822" d="M72 1327l235 86h154v-848h-154v627q0 45 8 84l-225 -57zM268 0l903 1413h140l-901 -1413h-142zM1079 0v86q0 41 25 66l252 243q162 156 168 252q2 51 -36 67.5t-120 16.5q-133 0 -272 -14l-9 117q154 29 291 28q166 0 240 -40t74 -158q0 -125 -164 -287l-252 -244 q61 8 137 4h311v-137h-645z" />
<glyph unicode="&#xbe;" horiz-adv-x="1964" d="M111 567l8 115q133 -8 262 -8q109 0 150.5 30.5t41.5 110.5q0 61 -35.5 95t-134.5 34l-174 4v107l174 6q66 0 102 21.5t44 45t8 60.5q0 63 -37 85.5t-139 22.5q-147 0 -246 -6l-8 113q137 20 276 20q172 0 238 -42t66 -152q0 -94 -34 -148.5t-120 -66.5v-4 q96 -12 136 -64.5t42 -148.5q2 -133 -69.5 -192.5t-243.5 -59.5q-127 0 -307 22zM492 0l901 1413h141l-903 -1413h-139zM1167 332l252 516h150l-240 -492q-8 -16 1 -29.5t32 -13.5h272v236l27 135h119v-371h102v-106l-102 -12v-195h-146v193h-383q-57 0 -83.5 36.5 t-0.5 102.5z" />
<glyph unicode="&#xbf;" horiz-adv-x="1024" d="M78 -115q0 84 37 156t89 126t106.5 110.5t94.5 137.5t44 177h165q2 -104 -29.5 -192.5t-79.5 -146.5t-96.5 -109.5t-84 -109t-37.5 -114.5q-4 -94 56 -139t194 -45q158 0 405 18l10 -141q-14 -2 -56 -10.5t-56.5 -10.5t-50 -8t-58 -7t-61.5 -4t-81 -4t-93 -1 q-418 0 -418 317zM436 844v110q0 41 16.5 56.5t57.5 15.5h49q39 0 55.5 -15.5t16.5 -56.5v-110q0 -41 -15.5 -57.5t-56.5 -16.5h-49q-41 0 -57.5 16.5t-16.5 57.5z" />
<glyph unicode="&#xc0;" horiz-adv-x="1282" d="M18 0l443 1358q16 55 76 55h208q61 0 74 -55l445 -1358h-211l-131 426h-564l-131 -426h-209zM274 1726l111 152l363 -299l-66 -92zM414 604h454l-166 537q-6 18 -17 57t-17 57h-56l-32 -114z" />
<glyph unicode="&#xc1;" horiz-adv-x="1282" d="M18 0l443 1358q16 55 76 55h208q61 0 74 -55l445 -1358h-211l-131 426h-564l-131 -426h-209zM414 604h454l-166 537q-6 18 -17 57t-17 57h-56l-32 -114zM500 1579l362 299l113 -152l-408 -239z" />
<glyph unicode="&#xc2;" horiz-adv-x="1282" d="M18 0l443 1358q16 55 76 55h208q61 0 74 -55l445 -1358h-211l-131 426h-564l-131 -426h-209zM301 1577l268 264h144l270 -264l-70 -84l-264 197h-16l-266 -197zM414 604h454l-166 537q-6 18 -17 57t-17 57h-56l-32 -114z" />
<glyph unicode="&#xc3;" horiz-adv-x="1282" d="M18 0l443 1358q16 55 76 55h208q61 0 74 -55l445 -1358h-211l-131 426h-564l-131 -426h-209zM313 1563q-14 123 33 187.5t127 57.5q68 -6 162 -55t147 -55q55 -6 76 17.5t21 82.5h90q14 -119 -31 -183.5t-129 -58.5q-76 6 -173 56.5t-140 56.5q-53 6 -73 -18.5t-20 -87.5 h-90zM414 604h454l-166 537q-6 18 -17 57t-17 57h-56l-32 -114z" />
<glyph unicode="&#xc4;" horiz-adv-x="1282" d="M18 0l443 1358q16 55 76 55h208q61 0 74 -55l445 -1358h-211l-131 426h-564l-131 -426h-209zM373 1622v111q0 53 53 53h68q51 0 51 -53v-111q0 -55 -51 -55h-68q-53 0 -53 55zM414 604h454l-166 537q-6 18 -17 57t-17 57h-56l-32 -114zM735 1622v111q0 53 56 53h65 q53 0 53 -53v-111q0 -55 -53 -55h-65q-55 0 -56 55z" />
<glyph unicode="&#xc5;" horiz-adv-x="1282" d="M18 0l443 1358q16 55 76 55h208q61 0 74 -55l445 -1358h-211l-131 426h-564l-131 -426h-209zM414 604h454l-166 537q-6 18 -17 57t-17 57h-56l-32 -114zM418 1679.5q0 92.5 65.5 155.5t157.5 63t158.5 -63t66.5 -155.5t-65.5 -155t-159.5 -62.5q-92 0 -157.5 62.5 t-65.5 155zM526 1679q0 -53 33 -85.5t82 -32.5q51 0 84 32.5t33 86t-33 87t-84 33.5q-49 0 -82 -32.5t-33 -88.5z" />
<glyph unicode="&#xc6;" horiz-adv-x="1873" d="M-8 0l682 1182q74 135 176 184t307 49q397 0 615 -14l-9 -162h-518q-59 0 -95 -37t-36 -100v-275h569v-168h-569v-356q0 -70 31 -100.5t100 -30.5h518l9 -160q-195 -16 -609 -16q-109 0 -175 71.5t-66 182.5v192h-465l-250 -442h-215zM551 612h371v518q0 41 18 83t43 63 h-18q-57 -33 -111 -125z" />
<glyph unicode="&#xc7;" d="M121 706.5q0 403.5 125 567.5t434 164q221 0 391 -41l-20 -158q-164 16 -371 16q-195 0 -269.5 -118.5t-74.5 -430t74.5 -430t269.5 -118.5q260 -1 399 22l21 -155q-170 -49 -420 -50q-309 0 -434 164t-125 567.5zM457 -498l30 105q78 -2 128.5 34.5t54.5 98.5 q2 33 -22.5 44t-98.5 13l20 92q133 12 188.5 -14.5t53.5 -118.5q-4 -133 -104.5 -203.5t-249.5 -50.5z" />
<glyph unicode="&#xc8;" horiz-adv-x="1150" d="M160 250v913q2 117 77.5 185.5t206.5 68.5q420 0 607 -16l-11 -160h-561q-61 0 -86.5 -29.5t-25.5 -101.5v-283h596v-165h-596v-361q0 -72 25.5 -101.5t86.5 -29.5h561l11 -158q-186 -16 -607 -16q-131 0 -206.5 68.5t-77.5 185.5zM266 1767l113 152l362 -301l-67 -90z " />
<glyph unicode="&#xc9;" horiz-adv-x="1150" d="M160 250v913q2 117 77.5 185.5t206.5 68.5q420 0 607 -16l-11 -160h-561q-61 0 -86.5 -29.5t-25.5 -101.5v-283h596v-165h-596v-361q0 -72 25.5 -101.5t86.5 -29.5h561l11 -158q-186 -16 -607 -16q-131 0 -206.5 68.5t-77.5 185.5zM494 1618l362 301l113 -152l-410 -239z " />
<glyph unicode="&#xca;" horiz-adv-x="1150" d="M160 250v913q2 117 77.5 185.5t206.5 68.5q420 0 607 -16l-11 -160h-561q-61 0 -86.5 -29.5t-25.5 -101.5v-283h596v-165h-596v-361q0 -72 25.5 -101.5t86.5 -29.5h561l11 -158q-186 -16 -607 -16q-131 0 -206.5 68.5t-77.5 185.5zM295 1618l268 264h144l268 -264 l-68 -86l-264 199h-16l-267 -199z" />
<glyph unicode="&#xcb;" horiz-adv-x="1150" d="M160 250v913q2 117 77.5 185.5t206.5 68.5q420 0 607 -16l-11 -160h-561q-61 0 -86.5 -29.5t-25.5 -101.5v-283h596v-165h-596v-361q0 -72 25.5 -101.5t86.5 -29.5h561l11 -158q-186 -16 -607 -16q-131 0 -206.5 68.5t-77.5 185.5zM367 1661v113q0 53 53 53h65 q53 0 54 -53v-113q-1 -53 -54 -53h-65q-53 0 -53 53zM729 1661v113q0 53 55 53h64q55 0 55 -53v-113q0 -53 -55 -53h-64q-55 0 -55 53z" />
<glyph unicode="&#xcc;" horiz-adv-x="548" d="M-94 1726l112 152l363 -299l-66 -92zM172 0v1413h205v-1413h-205z" />
<glyph unicode="&#xcd;" horiz-adv-x="548" d="M133 1579l363 299l112 -152l-407 -239zM172 0v1413h205v-1413h-205z" />
<glyph unicode="&#xce;" horiz-adv-x="548" d="M-66 1577l269 264h143l270 -264l-69 -84l-264 197h-17l-266 -197zM172 0v1413h205v-1413h-205z" />
<glyph unicode="&#xcf;" horiz-adv-x="548" d="M6 1622v111q0 53 53 53h68q51 0 51 -53v-111q0 -55 -51 -55h-68q-53 0 -53 55zM172 0v1413h205v-1413h-205zM369 1622v111q0 53 55 53h65q53 0 54 -53v-111q0 -55 -54 -55h-65q-55 0 -55 55z" />
<glyph unicode="&#xd0;" horiz-adv-x="1372" d="M45 692v113h137v608q268 18 510 19q309 0 433 -159t124 -566.5t-124 -566t-433 -158.5q-242 0 -510 18v692h-137zM385 166q135 -6 307 -6q193 0 267.5 118.5t74.5 428t-74.5 428t-267.5 118.5q-63 0 -163.5 -1t-143.5 -1v-446h299v-113h-299v-526z" />
<glyph unicode="&#xd1;" horiz-adv-x="1449" d="M172 0v1333q0 80 78 80h188q59 0 90 -63l428 -938q8 -18 29 -60.5t38 -80.5t32 -70h30q-10 123 -10 219v993h203v-1333q0 -80 -76 -80h-194q-61 0 -88 63l-441 963q-74 160 -84 197h-28q10 -82 10 -197v-1026h-205zM412 1563q-14 123 33 187.5t126 57.5q68 -6 162 -55 t150 -55q53 -6 73.5 17.5t20.5 82.5h90q14 -119 -31 -183.5t-129 -58.5q-76 6 -173 56.5t-138 56.5q-55 6 -74.5 -18.5t-19.5 -87.5h-90z" />
<glyph unicode="&#xd2;" horiz-adv-x="1370" d="M121 706.5q0 413.5 125 573.5t438 160q315 0 440 -160t125 -573.5t-125 -573.5t-440 -160q-313 0 -438 160t-125 573.5zM315 1726l113 152l360 -299l-65 -92zM336 706.5q0 -313.5 74.5 -432t273.5 -118.5t274.5 118.5t75.5 432t-75.5 432t-274.5 118.5t-273.5 -118.5 t-74.5 -432z" />
<glyph unicode="&#xd3;" horiz-adv-x="1370" d="M121 706.5q0 413.5 125 573.5t438 160q315 0 440 -160t125 -573.5t-125 -573.5t-440 -160q-313 0 -438 160t-125 573.5zM336 706.5q0 -313.5 74.5 -432t273.5 -118.5t274.5 118.5t75.5 432t-75.5 432t-274.5 118.5t-273.5 -118.5t-74.5 -432zM543 1579l362 299l111 -152 l-408 -239z" />
<glyph unicode="&#xd4;" horiz-adv-x="1370" d="M121 706.5q0 413.5 125 573.5t438 160q315 0 440 -160t125 -573.5t-125 -573.5t-440 -160q-313 0 -438 160t-125 573.5zM336 706.5q0 -313.5 74.5 -432t273.5 -118.5t274.5 118.5t75.5 432t-75.5 432t-274.5 118.5t-273.5 -118.5t-74.5 -432zM344 1577l266 264h146 l268 -264l-68 -84l-266 197h-16l-264 -197z" />
<glyph unicode="&#xd5;" horiz-adv-x="1370" d="M121 706.5q0 413.5 125 573.5t438 160q315 0 440 -160t125 -573.5t-125 -573.5t-440 -160q-313 0 -438 160t-125 573.5zM336 706.5q0 -313.5 74.5 -432t273.5 -118.5t274.5 118.5t75.5 432t-75.5 432t-274.5 118.5t-273.5 -118.5t-74.5 -432zM354 1563q-14 123 33 187.5 t129 57.5q66 -6 160 -55t149.5 -55t76 17.5t20.5 82.5h90q14 -119 -32 -183.5t-130 -58.5q-76 6 -173 56.5t-138 56.5q-55 6 -75 -18.5t-20 -87.5h-90z" />
<glyph unicode="&#xd6;" horiz-adv-x="1370" d="M121 706.5q0 413.5 125 573.5t438 160q315 0 440 -160t125 -573.5t-125 -573.5t-440 -160q-313 0 -438 160t-125 573.5zM336 706.5q0 -313.5 74.5 -432t273.5 -118.5t274.5 118.5t75.5 432t-75.5 432t-274.5 118.5t-273.5 -118.5t-74.5 -432zM416 1622v111q0 53 51 53h68 q53 0 53 -53v-111q0 -55 -53 -55h-68q-51 0 -51 55zM778 1622v111q0 53 53 53h66q55 0 55 -53v-111q0 -55 -55 -55h-66q-53 0 -53 55z" />
<glyph unicode="&#xd7;" horiz-adv-x="991" d="M86 864l731 -657l96 117l-729 657z" />
<glyph unicode="&#xd8;" horiz-adv-x="1370" d="M121 707q0 414 125 573.5t438 159.5q160 0 262 -35l62 133l104 -41l-65 -141q109 -76 155.5 -230.5t46.5 -418.5q0 -414 -125 -574t-440 -160q-162 0 -266 39l-64 -133l-102 43l65 141q-104 76 -150 229.5t-46 414.5zM336 707q0 -316 78 -437l448 955q-68 33 -178 32 q-199 0 -273.5 -118.5t-74.5 -431.5zM502 193q72 -37 182 -37q199 0 274.5 118.5t75.5 432.5q0 329 -84 444z" />
<glyph unicode="&#xd9;" horiz-adv-x="1363" d="M162 545v868h205v-868q0 -217 69.5 -303t245.5 -86q174 0 244.5 86t70.5 303v868h205v-868q0 -311 -115.5 -441.5t-396.5 -130.5q-289 0 -408.5 130t-119.5 442zM315 1726l113 152l363 -299l-66 -92z" />
<glyph unicode="&#xda;" horiz-adv-x="1363" d="M162 545v868h205v-868q0 -217 69.5 -303t245.5 -86q174 0 244.5 86t70.5 303v868h205v-868q0 -311 -115.5 -441.5t-396.5 -130.5q-289 0 -408.5 130t-119.5 442zM543 1579l362 299l113 -152l-408 -239z" />
<glyph unicode="&#xdb;" horiz-adv-x="1363" d="M162 545v868h205v-868q0 -217 69.5 -303t245.5 -86q174 0 244.5 86t70.5 303v868h205v-868q0 -311 -115.5 -441.5t-396.5 -130.5q-289 0 -408.5 130t-119.5 442zM344 1577l268 264h144l270 -264l-70 -84l-264 197h-16l-266 -197z" />
<glyph unicode="&#xdc;" horiz-adv-x="1363" d="M162 545v868h205v-868q0 -217 69.5 -303t245.5 -86q174 0 244.5 86t70.5 303v868h205v-868q0 -311 -115.5 -441.5t-396.5 -130.5q-289 0 -408.5 130t-119.5 442zM416 1622v111q0 53 53 53h66q53 0 53 -53v-111q0 -55 -53 -55h-66q-53 0 -53 55zM778 1622v111q1 53 56 53 h63q55 0 55 -53v-111q0 -55 -55 -55h-63q-55 0 -56 55z" />
<glyph unicode="&#xdd;" horiz-adv-x="1175" d="M18 1413h218l284 -579q16 -35 62 -164h14q43 127 61 161l285 582h213l-465 -924v-489h-205v492zM446 1579l363 299l111 -152l-408 -239z" />
<glyph unicode="&#xde;" horiz-adv-x="1216" d="M172 0v1149v264h205v-250q78 4 289 4q262 0 361 -95t99 -359q0 -262 -95 -356.5t-343 -94.5q-135 0 -311 17v-279h-205zM377 438h282q152 2 206.5 57.5t54.5 217.5q0 166 -55.5 222t-205.5 56q-205 0 -282 -2v-551z" />
<glyph unicode="&#xdf;" horiz-adv-x="1392" d="M53 844v155h180v117q0 221 112 293t360 72q258 0 363.5 -60.5t105.5 -220.5q0 -82 -35 -142.5t-138 -125.5q-27 -18 -77 -47t-66 -41.5t-31.5 -36t-15.5 -53.5q0 -45 28.5 -68.5t104.5 -60.5l203 -97q96 -47 135 -104t39 -164q0 -166 -86 -224.5t-283 -58.5 q-147 0 -325 23l12 150q125 -10 272 -11q127 2 172 24.5t45 106.5q0 31 -6 50.5t-28.5 38t-38 26.5t-60.5 31l-207 98q-166 80 -165 234q0 31 5 57t21.5 50t27.5 39t39.5 36.5t42 30t52.5 31t51 30.5q72 47 98.5 82t26.5 92q0 63 -56.5 93t-217.5 30q-166 0 -223.5 -45 t-57.5 -180v-1094h-199v844h-180z" />
<glyph unicode="&#xe0;" horiz-adv-x="1128" d="M100 264v105q0 119 74 184t209 65h401v78q-2 92 -43 127t-155 35q-113 1 -424 -24l-19 145q270 47 486 47q182 0 268 -73.5t86 -256.5v-696h-156l-22 158q-172 -176 -399 -176q-139 0 -222.5 73.5t-83.5 208.5zM184 1360l111 151l362 -301l-65 -90zM301 289 q0 -74 35 -106.5t110 -32.5q178 0 338 139v180h-364q-66 -2 -92.5 -34t-26.5 -93v-53z" />
<glyph unicode="&#xe1;" horiz-adv-x="1128" d="M100 264v105q0 119 74 184t209 65h401v78q-2 92 -43 127t-155 35q-113 1 -424 -24l-19 145q270 47 486 47q182 0 268 -73.5t86 -256.5v-696h-156l-22 158q-172 -176 -399 -176q-139 0 -222.5 73.5t-83.5 208.5zM301 289q0 -74 35 -106.5t110 -32.5q178 0 338 139v180 h-364q-66 -2 -92.5 -34t-26.5 -93v-53zM412 1210l362 301l111 -151l-408 -240z" />
<glyph unicode="&#xe2;" horiz-adv-x="1128" d="M100 264v105q0 119 74 184t209 65h401v78q-2 92 -43 127t-155 35q-113 1 -424 -24l-19 145q270 47 486 47q182 0 268 -73.5t86 -256.5v-696h-156l-22 158q-172 -176 -399 -176q-139 0 -222.5 73.5t-83.5 208.5zM211 1210l268 265h144l270 -265l-70 -86l-264 199h-16 l-267 -199zM301 289q0 -74 35 -106.5t110 -32.5q178 0 338 139v180h-364q-66 -2 -92.5 -34t-26.5 -93v-53z" />
<glyph unicode="&#xe3;" horiz-adv-x="1128" d="M100 264v105q0 119 74 184t209 65h401v78q-2 92 -43 127t-155 35q-113 1 -424 -24l-19 145q270 47 486 47q182 0 268 -73.5t86 -256.5v-696h-156l-22 158q-172 -176 -399 -176q-139 0 -222.5 73.5t-83.5 208.5zM223 1196q-14 121 33 185.5t127 58.5q68 -6 162 -54.5 t149 -54.5q53 -8 73.5 16.5t20.5 82.5h91q14 -119 -31 -182.5t-129 -57.5q-76 6 -173 56t-138 57q-55 6 -75 -20t-20 -87h-90zM301 289q0 -74 35 -106.5t110 -32.5q178 0 338 139v180h-364q-66 -2 -92.5 -34t-26.5 -93v-53z" />
<glyph unicode="&#xe4;" horiz-adv-x="1128" d="M100 264v105q0 119 74 184t209 65h401v78q-2 92 -43 127t-155 35q-113 1 -424 -24l-19 145q270 47 486 47q182 0 268 -73.5t86 -256.5v-696h-156l-22 158q-172 -176 -399 -176q-139 0 -222.5 73.5t-83.5 208.5zM285 1253v111q0 55 51 55h67q53 0 54 -55v-111 q-1 -55 -54 -55h-67q-51 0 -51 55zM301 289q0 -74 35 -106.5t110 -32.5q178 0 338 139v180h-364q-66 -2 -92.5 -34t-26.5 -93v-53zM647 1253v111q0 55 53 55h66q55 0 55 -55v-111q0 -55 -55 -55h-66q-53 0 -53 55z" />
<glyph unicode="&#xe5;" horiz-adv-x="1128" d="M100 264v105q0 119 74 184t209 65h401v78q-2 92 -43 127t-155 35q-113 1 -424 -24l-19 145q270 47 486 47q182 0 268 -73.5t86 -256.5v-696h-156l-22 158q-172 -176 -399 -176q-139 0 -222.5 73.5t-83.5 208.5zM301 289q0 -74 35 -106.5t110 -32.5q178 0 338 139v180 h-364q-66 -2 -92.5 -34t-26.5 -93v-53zM330 1313q0 92 65.5 155.5t157.5 63.5t157.5 -63.5t65.5 -155.5t-65.5 -155.5t-157.5 -63.5q-94 0 -158.5 62.5t-64.5 156.5zM436 1313q0 -53 33 -86t84 -33q49 0 82 33t33 86t-33 86t-82 33q-51 0 -84 -32t-33 -87z" />
<glyph unicode="&#xe6;" horiz-adv-x="1781" d="M100 264v105q0 119 74 184t209 65h401v78q0 92 -42 127t-156 35q-113 0 -424 -24l-19 145q270 47 486 47q205 0 286 -92q106 92 332 92q227 0 331.5 -84t104.5 -252q5 -287 -251 -287h-439q12 -156 79 -209t218 -53q137 0 350 25l19 -131q-133 -59 -393 -60 q-174 0 -277.5 50.5t-154.5 160.5q-66 -78 -178.5 -141t-249.5 -63q-139 0 -222.5 73.5t-83.5 208.5zM301 289q0 -74 35 -106.5t110 -32.5q78 0 174.5 37.5t178.5 113.5q-14 82 -17 168h-362q-66 -2 -92.5 -34t-26.5 -93v-53zM989 557h387q109 0 109 133q0 90 -51.5 129 t-178.5 39q-147 0 -204.5 -62.5t-61.5 -238.5z" />
<glyph unicode="&#xe7;" horiz-adv-x="1005" d="M106 499.5q0 288.5 108 407.5t370 119q201 0 331 -51l-26 -127q-154 10 -271 10q-172 0 -238.5 -75.5t-66.5 -282.5t66.5 -283t238.5 -76q168 0 295 23l19 -133q-152 -55 -348 -56q-262 0 -370 118t-108 406.5zM360 -498l31 105q78 -2 128 34.5t54 98.5q2 33 -22 44 t-98 13l20 92q133 12 188.5 -14.5t53.5 -118.5q-4 -133 -104.5 -203.5t-250.5 -50.5z" />
<glyph unicode="&#xe8;" horiz-adv-x="1103" d="M106 502q0 291 108 407.5t355 116.5q229 0 334 -84t105 -252q0 -287 -244 -287h-449q14 -156 81 -209t218 -53q133 0 351 25l18 -131q-135 -59 -395 -60q-262 0 -372 119t-110 408zM207 1360l110 151l363 -301l-66 -90zM313 557h398q98 0 98 133q-2 92 -52 130t-177 38 q-147 0 -205 -62.5t-62 -238.5z" />
<glyph unicode="&#xe9;" horiz-adv-x="1103" d="M106 502q0 291 108 407.5t355 116.5q229 0 334 -84t105 -252q0 -287 -244 -287h-449q14 -156 81 -209t218 -53q133 0 351 25l18 -131q-135 -59 -395 -60q-262 0 -372 119t-110 408zM313 557h398q98 0 98 133q-2 92 -52 130t-177 38q-147 0 -205 -62.5t-62 -238.5z M434 1210l361 301l112 -151l-407 -240z" />
<glyph unicode="&#xea;" horiz-adv-x="1103" d="M106 502q0 291 108 407.5t355 116.5q229 0 334 -84t105 -252q0 -287 -244 -287h-449q14 -156 81 -209t218 -53q133 0 351 25l18 -131q-135 -59 -395 -60q-262 0 -372 119t-110 408zM233 1210l269 265h143l270 -265l-69 -86l-264 199h-17l-266 -199zM313 557h398 q98 0 98 133q-2 92 -52 130t-177 38q-147 0 -205 -62.5t-62 -238.5z" />
<glyph unicode="&#xeb;" horiz-adv-x="1103" d="M106 502q0 291 108 407.5t355 116.5q229 0 334 -84t105 -252q0 -287 -244 -287h-449q14 -156 81 -209t218 -53q133 0 351 25l18 -131q-135 -59 -395 -60q-262 0 -372 119t-110 408zM307 1253v111q0 55 51 55h68q53 0 53 -55v-111q0 -55 -53 -55h-68q-51 0 -51 55z M313 557h398q98 0 98 133q-2 92 -52 130t-177 38q-147 0 -205 -62.5t-62 -238.5zM670 1253v111q0 55 53 55h65q53 0 54 -55v-111q-1 -55 -54 -55h-65q-53 0 -53 55z" />
<glyph unicode="&#xec;" horiz-adv-x="522" d="M-106 1360l112 151l363 -301l-66 -90zM162 0v999h198v-999h-198z" />
<glyph unicode="&#xed;" horiz-adv-x="522" d="M121 1210l362 301l113 -151l-408 -240zM162 0v999h198v-999h-198z" />
<glyph unicode="&#xee;" horiz-adv-x="522" d="M-78 1210l268 265h144l270 -265l-69 -86l-265 199h-16l-266 -199zM162 0v999h198v-999h-198z" />
<glyph unicode="&#xef;" horiz-adv-x="522" d="M-6 1253v111q0 55 53 55h68q51 0 51 -55v-111q0 -55 -51 -55h-68q-53 0 -53 55zM162 0v999h198v-999h-198zM356 1253v111q1 55 56 55h65q53 0 53 -55v-111q0 -55 -53 -55h-65q-55 0 -56 55z" />
<glyph unicode="&#xf0;" horiz-adv-x="1148" d="M109 446q0 238 97 356t322 118q154 0 269 -68q-37 203 -152 313l-153 -121l-70 86l129 103q-123 59 -307 53l22 144q242 12 422 -91l156 125l71 -90l-133 -102q244 -217 244 -692q0 -301 -99.5 -454t-361.5 -153q-236 0 -346 114t-110 359zM315 449q0 -170 58.5 -240 t193.5 -70q156 0 204 103.5t48 347.5q0 84 -4 123q-111 39 -254 39q-135 0 -190.5 -75t-55.5 -228z" />
<glyph unicode="&#xf1;" horiz-adv-x="1193" d="M154 0v999h168l12 -153q236 180 442 180q133 0 202 -70.5t69 -205.5v-750h-199v692q0 94 -27.5 130t-99.5 36q-78 0 -156 -35t-213 -114v-709h-198zM283 1196q-14 123 31.5 186.5t127.5 57.5q68 -6 162 -54.5t148 -54.5q55 -8 75.5 16.5t20.5 82.5h90q14 -119 -31 -182.5 t-129 -57.5q-76 6 -173 56t-140 57q-53 6 -72.5 -20t-19.5 -87h-90z" />
<glyph unicode="&#xf2;" horiz-adv-x="1167" d="M106 497.5q0 286.5 109 407.5t369 121t368.5 -121t108.5 -407.5t-108.5 -405.5t-368.5 -119t-369 119t-109 405.5zM213 1360l113 151l362 -301l-65 -90zM313 498q0 -207 57.5 -283t213 -76t213 76t57.5 283q0 209 -57.5 284.5t-213 75.5t-213 -75.5t-57.5 -284.5z" />
<glyph unicode="&#xf3;" horiz-adv-x="1167" d="M106 497.5q0 286.5 109 407.5t369 121t368.5 -121t108.5 -407.5t-108.5 -405.5t-368.5 -119t-369 119t-109 405.5zM313 498q0 -207 57.5 -283t213 -76t213 76t57.5 283q0 209 -57.5 284.5t-213 75.5t-213 -75.5t-57.5 -284.5zM440 1210l363 301l112 -151l-407 -240z" />
<glyph unicode="&#xf4;" horiz-adv-x="1167" d="M106 497.5q0 286.5 109 407.5t369 121t368.5 -121t108.5 -407.5t-108.5 -405.5t-368.5 -119t-369 119t-109 405.5zM242 1210l268 265h143l271 -265l-70 -86l-264 199h-17l-266 -199zM313 498q0 -207 57.5 -283t213 -76t213 76t57.5 283q0 209 -57.5 284.5t-213 75.5 t-213 -75.5t-57.5 -284.5z" />
<glyph unicode="&#xf5;" horiz-adv-x="1167" d="M106 497.5q0 286.5 109 407.5t369 121t368.5 -121t108.5 -407.5t-108.5 -405.5t-368.5 -119t-369 119t-109 405.5zM254 1196q-14 123 32 186.5t128 57.5q68 -6 162 -54.5t147 -54.5q55 -8 75.5 16.5t20.5 82.5h90q14 -119 -30.5 -182.5t-128.5 -57.5q-76 6 -173.5 56 t-140.5 57q-53 6 -72.5 -20t-19.5 -87h-90zM313 498q0 -207 57.5 -283t213 -76t213 76t57.5 283q0 209 -57.5 284.5t-213 75.5t-213 -75.5t-57.5 -284.5z" />
<glyph unicode="&#xf6;" horiz-adv-x="1167" d="M106 497.5q0 286.5 109 407.5t369 121t368.5 -121t108.5 -407.5t-108.5 -405.5t-368.5 -119t-369 119t-109 405.5zM313 498q0 -207 57.5 -283t213 -76t213 76t57.5 283q0 209 -57.5 284.5t-213 75.5t-213 -75.5t-57.5 -284.5zM313 1253v111q1 55 54 55h67q51 0 51 -55 v-111q0 -55 -51 -55h-67q-53 0 -54 55zM676 1253v111q0 55 55 55h66q53 0 53 -55v-111q0 -55 -53 -55h-66q-55 0 -55 55z" />
<glyph unicode="&#xf7;" horiz-adv-x="1161" d="M127 530v148h907v-148h-907zM481 195v92q0 41 15.5 57t56.5 16h51q41 0 56.5 -16t15.5 -57v-92q0 -41 -15.5 -56.5t-56.5 -15.5h-51q-41 0 -56.5 15.5t-15.5 56.5zM481 915v95q0 41 15.5 57t56.5 16h51q41 0 56.5 -16t15.5 -57v-95q0 -39 -15.5 -54t-56.5 -15h-51 q-41 0 -56.5 14t-15.5 55z" />
<glyph unicode="&#xf8;" horiz-adv-x="1167" d="M106 498q0 287 109 407.5t369 120.5q96 0 178 -16l67 145l89 -43l-62 -135q109 -51 157 -167t48 -312q0 -287 -108.5 -406t-368.5 -119q-106 0 -187 19l-71 -152l-88 43l65 144q-102 51 -149.5 165.5t-47.5 305.5zM313 498q0 -225 72 -297l301 649q-39 8 -102 8 q-156 0 -213.5 -75.5t-57.5 -284.5zM471 152q47 -12 113 -13q156 0 213 76t57 283q0 237 -78 309z" />
<glyph unicode="&#xf9;" d="M147 250v749h199v-692q-2 -92 31 -128t112 -36q117 0 332 133v723h197v-999h-158l-14 137q-219 -164 -426 -164q-272 0 -273 277zM223 1368l113 152l360 -299l-65 -93z" />
<glyph unicode="&#xfa;" d="M147 250v749h199v-692q-2 -92 31 -128t112 -36q117 0 332 133v723h197v-999h-158l-14 137q-219 -164 -426 -164q-272 0 -273 277zM451 1221l362 299l111 -152l-408 -240z" />
<glyph unicode="&#xfb;" d="M147 250v749h199v-692q-2 -92 31 -128t112 -36q117 0 332 133v723h197v-999h-158l-14 137q-219 -164 -426 -164q-272 0 -273 277zM250 1219l268 264h144l270 -264l-68 -84l-266 196h-16l-265 -196z" />
<glyph unicode="&#xfc;" d="M147 250v749h199v-692q-2 -92 31 -128t112 -36q117 0 332 133v723h197v-999h-158l-14 137q-219 -164 -426 -164q-272 0 -273 277zM324 1264v110q0 53 51 53h67q53 0 54 -53v-110q-1 -56 -54 -56h-67q-51 0 -51 56zM686 1264v110q0 53 53 53h66q55 0 55 -53v-110 q0 -56 -55 -56h-66q-53 0 -53 56z" />
<glyph unicode="&#xfd;" horiz-adv-x="1091" d="M33 999h213l248 -727q25 -63 34 -122h29q20 55 41 122l246 727h213l-387 -1046q-139 -369 -459 -373l-21 131q117 35 184.5 96.5t108.5 155.5l15 37h-41q-57 0 -70 51zM410 1210l362 301l113 -151l-410 -240z" />
<glyph unicode="&#xfe;" horiz-adv-x="1179" d="M154 -408v1842h198v-334q0 -139 -8 -209q170 133 364.5 133t277.5 -126t83 -406q0 -287 -86 -403t-281 -116q-190 0 -356 86q6 -61 6 -186v-281h-198zM352 207q176 -70 285 -70q127 0 177 77t50 280q0 207 -50 284.5t-169 77.5q-117 0 -293 -129v-520z" />
<glyph unicode="&#xff;" horiz-adv-x="1091" d="M33 999h213l248 -727q25 -63 34 -122h29q20 55 41 122l246 727h213l-387 -1046q-139 -369 -459 -373l-21 131q117 35 184.5 96.5t108.5 155.5l15 37h-41q-57 0 -70 51zM283 1253v111q0 55 53 55h65q53 0 54 -55v-111q-1 -55 -54 -55h-65q-53 0 -53 55zM645 1253v111 q0 55 55 55h64q55 0 55 -55v-111q0 -55 -55 -55h-64q-55 0 -55 55z" />
<glyph unicode="&#x100;" horiz-adv-x="1282" d="M18 0l443 1358q16 55 76 55h208q61 0 74 -55l445 -1358h-211l-131 426h-564l-131 -426h-209zM352 1602v145h580v-145h-580zM414 604h454l-166 537q-6 18 -17 57t-17 57h-56l-32 -114z" />
<glyph unicode="&#x101;" horiz-adv-x="1128" d="M100 264v105q0 119 74 184t209 65h401v78q-2 92 -43 127t-155 35q-113 1 -424 -24l-19 145q270 47 486 47q182 0 268 -73.5t86 -256.5v-696h-156l-22 158q-172 -176 -399 -176q-139 0 -222.5 73.5t-83.5 208.5zM262 1235v145h580v-145h-580zM301 289q0 -74 35 -106.5 t110 -32.5q178 0 338 139v180h-364q-66 -2 -92.5 -34t-26.5 -93v-53z" />
<glyph unicode="&#x102;" horiz-adv-x="1282" d="M18 0l443 1358q16 55 76 55h208q61 0 74 -55l445 -1358h-211l-131 426h-564l-131 -426h-209zM328 1798l100 17q0 -145 215 -146q100 0 155.5 38t53.5 108l100 -17q10 -121 -75.5 -197.5t-235.5 -76.5q-152 0 -238 76.5t-75 197.5zM414 604h454l-166 537q-6 18 -17 57 t-17 57h-56l-32 -114z" />
<glyph unicode="&#x103;" horiz-adv-x="1128" d="M100 264v105q0 119 74 184t209 65h401v78q-2 92 -43 127t-155 35q-113 1 -424 -24l-19 145q270 47 486 47q182 0 268 -73.5t86 -256.5v-696h-156l-22 158q-172 -176 -399 -176q-139 0 -222.5 73.5t-83.5 208.5zM238 1432l100 14q0 -145 215 -146q100 0 155.5 38t55.5 108 l98 -14q10 -123 -75 -200t-234 -77q-152 0 -239 77t-76 200zM301 289q0 -74 35 -106.5t110 -32.5q178 0 338 139v180h-364q-66 -2 -92.5 -34t-26.5 -93v-53z" />
<glyph unicode="&#x104;" horiz-adv-x="1282" d="M18 0l443 1358q16 55 76 55h208q61 0 74 -55l445 -1358q-106 -125 -146 -227q-31 -72 14.5 -94.5t139.5 8.5l24 -82q-133 -53 -211.5 -39t-105.5 68.5t0 127.5q45 121 192 238h-118l-131 426h-564l-131 -426h-209zM414 604h454l-166 537q-6 18 -17 57t-17 57h-56 l-32 -114z" />
<glyph unicode="&#x105;" horiz-adv-x="1128" d="M100 264v105q0 119 74 184t209 65h401v78q-2 92 -43 127t-155 35q-113 0 -424 -24l-19 145q270 47 486 47q182 0 268 -73.5t86 -256.5v-696q-106 -125 -145 -227q-31 -72 14 -94.5t139 8.5l25 -82q-133 -53 -212 -39t-105.5 68.5t-0.5 127.5q45 121 193 238h-64l-22 158 q-172 -176 -399 -176q-139 0 -222.5 73.5t-83.5 208.5zM301 289q0 -74 35 -106.5t110 -32.5q178 0 338 139v180h-364q-66 -2 -92.5 -34t-26.5 -93v-53z" />
<glyph unicode="&#x106;" d="M121 706.5q0 403.5 125 567.5t434 164q221 0 391 -41l-20 -158q-164 16 -371 16q-195 0 -269.5 -118.5t-74.5 -430t74.5 -430t269.5 -118.5q260 -1 399 22l21 -155q-170 -49 -420 -50q-309 0 -434 164t-125 567.5zM514 1579l363 299l112 -152l-407 -239z" />
<glyph unicode="&#x107;" horiz-adv-x="1005" d="M106 499.5q0 288.5 108 407.5t370 119q201 0 331 -51l-26 -127q-154 10 -271 10q-172 0 -238.5 -75.5t-66.5 -282.5t66.5 -283t238.5 -76q168 0 295 23l19 -133q-152 -55 -348 -56q-262 0 -370 118t-108 406.5zM406 1210l362 301l111 -151l-408 -240z" />
<glyph unicode="&#x10a;" d="M121 706.5q0 403.5 125 567.5t434 164q221 0 391 -41l-20 -158q-164 16 -371 16q-195 0 -269.5 -118.5t-74.5 -430t74.5 -430t269.5 -118.5q260 -1 399 22l21 -155q-170 -49 -420 -50q-309 0 -434 164t-125 567.5zM565 1606v114q1 60 60 60h63q57 0 57 -60v-114 q0 -57 -57 -58h-63q-59 0 -60 58z" />
<glyph unicode="&#x10b;" horiz-adv-x="1005" d="M106 499.5q0 288.5 108 407.5t370 119q201 0 331 -51l-26 -127q-154 10 -271 10q-172 0 -238.5 -75.5t-66.5 -282.5t66.5 -283t238.5 -76q168 0 295 23l19 -133q-152 -55 -348 -56q-262 0 -370 118t-108 406.5zM457 1239v115q0 57 57 57h64q59 0 59 -57v-115 q0 -59 -59 -59h-64q-57 0 -57 59z" />
<glyph unicode="&#x10c;" d="M121 706.5q0 403.5 125 567.5t434 164q221 0 391 -41l-20 -158q-164 16 -371 16q-195 0 -269.5 -118.5t-74.5 -430t74.5 -430t269.5 -118.5q260 -1 399 22l21 -155q-170 -49 -420 -50q-309 0 -434 164t-125 567.5zM317 1786l66 84l266 -172h17l264 172l69 -84l-297 -264 h-90z" />
<glyph unicode="&#x10d;" horiz-adv-x="1005" d="M106 499.5q0 288.5 108 407.5t370 119q201 0 331 -51l-26 -127q-154 10 -271 10q-172 0 -238.5 -75.5t-66.5 -282.5t66.5 -283t238.5 -76q168 0 295 23l19 -133q-152 -55 -348 -56q-262 0 -370 118t-108 406.5zM209 1417l65 86l267 -174h16l264 174l70 -86l-297 -264h-90 z" />
<glyph unicode="&#x10e;" horiz-adv-x="1361" d="M172 0v1413q268 18 510 19q311 0 435 -158t124 -567.5t-124 -567t-435 -157.5q-242 0 -510 18zM311 1786l66 84l266 -172h16l265 172l69 -84l-297 -264h-90zM377 166q131 -6 305 -6q193 0 267.5 118.5t74.5 428t-75 428t-267 118.5q-61 0 -162.5 -1t-142.5 -1v-1085z" />
<glyph unicode="&#x10f;" horiz-adv-x="1177" d="M109 504q0 287 92 404.5t288 117.5q188 0 345 -90q-8 88 -9 197v301h199v-1434h-156l-16 137q-193 -162 -393 -162q-184 0 -267 132.5t-83 396.5zM313 506q0 -207 48.5 -283t164.5 -76q76 0 134.5 26.5t164.5 98.5v533q-186 49 -286 49q-127 0 -176.5 -70.5t-49.5 -277.5 zM1130 1290v92q2 57 68 58h53q37 0 50.5 -12.5t13.5 -45.5v-100q-2 -139 -70 -254l-86 21q20 94 21 192q-23 0 -37.5 14.5t-12.5 34.5z" />
<glyph unicode="&#x110;" horiz-adv-x="1372" d="M45 692v113h137v608q268 18 510 19q309 0 433 -159t124 -566.5t-124 -566t-433 -158.5q-242 0 -510 18v692h-137zM385 166q135 -6 307 -6q193 0 267.5 118.5t74.5 428t-74.5 428t-267.5 118.5q-63 0 -163.5 -1t-143.5 -1v-446h299v-113h-299v-526z" />
<glyph unicode="&#x111;" horiz-adv-x="1167" d="M109 504q0 287 92 404.5t288 117.5q188 0 345 -90q-8 88 -9 197v34h-305v113h305v154h199v-154h135v-113h-135v-1167h-156l-16 137q-193 -162 -393 -162q-184 0 -267 132.5t-83 396.5zM313 506q0 -207 48.5 -283t164.5 -76q76 0 134.5 26.5t164.5 98.5v533 q-186 49 -286 49q-127 0 -176.5 -70.5t-49.5 -277.5z" />
<glyph unicode="&#x112;" horiz-adv-x="1150" d="M160 250v913q2 117 77.5 185.5t206.5 68.5q420 0 607 -16l-11 -160h-561q-61 0 -86.5 -29.5t-25.5 -101.5v-283h596v-165h-596v-361q0 -72 25.5 -101.5t86.5 -29.5h561l11 -158q-186 -16 -607 -16q-131 0 -206.5 68.5t-77.5 185.5zM346 1642v146h578v-146h-578z" />
<glyph unicode="&#x113;" horiz-adv-x="1103" d="M106 502q0 291 108 407.5t355 116.5q229 0 334 -84t105 -252q0 -287 -244 -287h-449q14 -156 81 -209t218 -53q133 0 351 25l18 -131q-135 -59 -395 -60q-262 0 -372 119t-110 408zM285 1235v145h579v-145h-579zM313 557h398q98 0 98 133q-2 92 -52 130t-177 38 q-147 0 -205 -62.5t-62 -238.5z" />
<glyph unicode="&#x116;" horiz-adv-x="1150" d="M160 250v913q2 117 77.5 185.5t206.5 68.5q420 0 607 -16l-11 -160h-561q-61 0 -86.5 -29.5t-25.5 -101.5v-283h596v-165h-596v-361q0 -72 25.5 -101.5t86.5 -29.5h561l11 -158q-186 -16 -607 -16q-131 0 -206.5 68.5t-77.5 185.5zM545 1647v114q0 57 59 58h62 q59 0 59 -58v-114q0 -60 -59 -60h-62q-59 0 -59 60z" />
<glyph unicode="&#x117;" horiz-adv-x="1103" d="M106 502q0 291 108 407.5t355 116.5q229 0 334 -84t105 -252q0 -287 -244 -287h-449q14 -156 81 -209t218 -53q133 0 351 25l18 -131q-135 -59 -395 -60q-262 0 -372 119t-110 408zM313 557h398q98 0 98 133q-2 92 -52 130t-177 38q-147 0 -205 -62.5t-62 -238.5z M483 1239v115q0 57 60 57h63q57 0 58 -57v-115q-1 -59 -58 -59h-63q-59 0 -60 59z" />
<glyph unicode="&#x118;" horiz-adv-x="1150" d="M160 250v913q2 117 77.5 185.5t206.5 68.5q420 0 607 -16l-11 -160h-561q-61 0 -86.5 -29.5t-25.5 -101.5v-283h596v-165h-596v-361q0 -72 25.5 -101.5t86.5 -29.5h561l11 -158q-106 -129 -146 -227q-31 -72 14.5 -95.5t139.5 7.5l22 -80q-197 -72 -277.5 -16.5 t-37.5 174.5q41 117 184 229q-162 -8 -506 -8q-131 0 -206.5 68.5t-77.5 185.5z" />
<glyph unicode="&#x119;" horiz-adv-x="1103" d="M106 502q0 291 108 407.5t355 116.5q229 0 334 -84t105 -252q0 -287 -244 -287h-449q14 -156 81 -209t218 -53q133 0 351 25l18 -131q-106 -125 -145 -228q-31 -72 14 -94.5t139 8.5l23 -81q-195 -70 -277 -14.5t-39 171.5q37 104 148 201q-121 -23 -258 -23 q-262 0 -372 119t-110 408zM313 557h398q98 0 98 133q-2 92 -52 130t-177 38q-147 0 -205 -62.5t-62 -238.5z" />
<glyph unicode="&#x11a;" horiz-adv-x="1150" d="M160 250v913q2 117 77.5 185.5t206.5 68.5q420 0 607 -16l-11 -160h-561q-61 0 -86.5 -29.5t-25.5 -101.5v-283h596v-165h-596v-361q0 -72 25.5 -101.5t86.5 -29.5h561l11 -158q-186 -16 -607 -16q-131 0 -206.5 68.5t-77.5 185.5zM297 1827l65 84l267 -172h16l264 172 l70 -84l-297 -266h-90z" />
<glyph unicode="&#x11b;" horiz-adv-x="1103" d="M106 502q0 291 108 407.5t355 116.5q229 0 334 -84t105 -252q0 -287 -244 -287h-449q14 -156 81 -209t218 -53q133 0 351 25l18 -131q-135 -59 -395 -60q-262 0 -372 119t-110 408zM236 1417l65 86l266 -174h17l264 174l70 -86l-297 -264h-91zM313 557h398q98 0 98 133 q-2 92 -52 130t-177 38q-147 0 -205 -62.5t-62 -238.5z" />
<glyph unicode="&#x11e;" horiz-adv-x="1288" d="M121 713q0 285 59.5 441.5t186.5 221t356 64.5q221 0 393 -43l-20 -156q-172 16 -361 16q-96 0 -155.5 -11t-110.5 -44t-76.5 -96.5t-40 -161.5t-14.5 -246q0 -305 62.5 -425.5t220.5 -120.5q150 0 333 124v539h201v-815h-151l-21 143q-178 -170 -420 -170 q-233 0 -337.5 178.5t-104.5 561.5zM358 1798l101 17q0 -145 215 -146q100 0 155.5 38t53.5 108l100 -17q10 -121 -76 -197.5t-235 -76.5q-152 0 -238 76.5t-76 197.5z" />
<glyph unicode="&#x11f;" horiz-adv-x="1148" d="M78 -102q0 84 37 133t123 98q-72 59 -65 158.5t79 150.5q-131 68 -131 264q0 176 96 250t340 74q150 0 238 -27h311l-10 -106l-142 -14q35 -70 35 -174q0 -170 -97 -245t-337 -75q-111 0 -199 16q-33 -43 -17.5 -94t81.5 -61l368 -58q141 -20 202 -87.5t61 -196.5 q0 -178 -104.5 -246t-379.5 -68q-276 0 -382.5 67t-106.5 241zM244 1432l100 14q0 -145 215 -146q100 0 155.5 38t55.5 108l98 -14q10 -123 -74.5 -200t-234.5 -77q-152 0 -239 77t-76 200zM270 -86q0 -98 56.5 -127t238.5 -29q176 0 233.5 30t57.5 126q0 70 -30.5 91.5 t-139.5 37.5l-321 43q-94 -78 -95 -172zM301 705q0 -92 56.5 -131t197.5 -39q139 0 194.5 37.5t55.5 132.5q0 96 -54.5 132.5t-195.5 36.5q-143 0 -198.5 -36.5t-55.5 -132.5z" />
<glyph unicode="&#x120;" horiz-adv-x="1288" d="M121 713q0 285 59.5 441.5t186.5 221t356 64.5q221 0 393 -43l-20 -156q-172 16 -361 16q-96 0 -155.5 -11t-110.5 -44t-76.5 -96.5t-40 -161.5t-14.5 -246q0 -305 62.5 -425.5t220.5 -120.5q150 0 333 124v539h201v-815h-151l-21 143q-178 -170 -420 -170 q-233 0 -337.5 178.5t-104.5 561.5zM582 1606v114q0 59 59 60h64q57 0 57 -60v-114q0 -58 -57 -58h-64q-59 0 -59 58z" />
<glyph unicode="&#x121;" horiz-adv-x="1148" d="M78 -102q0 84 37 133t123 98q-72 59 -65 158.5t79 150.5q-131 68 -131 264q0 176 96 250t340 74q150 0 238 -27h311l-10 -106l-142 -14q35 -70 35 -174q0 -170 -97 -245t-337 -75q-111 0 -199 16q-33 -43 -17.5 -94t81.5 -61l368 -58q141 -20 202 -87.5t61 -196.5 q0 -178 -104.5 -246t-379.5 -68q-276 0 -382.5 67t-106.5 241zM270 -86q0 -98 56.5 -127t238.5 -29q176 0 233.5 30t57.5 126q0 70 -30.5 91.5t-139.5 37.5l-321 43q-94 -78 -95 -172zM301 705q0 -92 56.5 -131t197.5 -39q139 0 194.5 37.5t55.5 132.5q0 96 -54.5 132.5 t-195.5 36.5q-143 0 -198.5 -36.5t-55.5 -132.5zM469 1239v115q0 57 57 57h64q59 0 59 -57v-115q0 -59 -59 -59h-64q-57 0 -57 59z" />
<glyph unicode="&#x122;" horiz-adv-x="1288" d="M121 713q0 285 59.5 441.5t186.5 221t356 64.5q221 0 393 -43l-20 -156q-172 16 -361 16q-96 0 -155.5 -11t-110.5 -44t-76.5 -96.5t-40 -161.5t-14.5 -246q0 -305 62.5 -425.5t220.5 -120.5q150 0 333 124v539h201v-815h-151l-21 143q-178 -170 -420 -170 q-233 0 -337.5 178.5t-104.5 561.5zM573 -180q2 35 16.5 48t51.5 13h53q37 0 50.5 -13t13.5 -48v-111q-2 -154 -70 -276l-86 22q20 102 21 211q-23 0 -37.5 14.5t-12.5 38.5v101z" />
<glyph unicode="&#x123;" horiz-adv-x="1148" d="M78 -102q0 84 37 133t123 98q-72 59 -65 158.5t79 150.5q-131 68 -131 264q0 176 96 250t340 74q150 0 238 -27h311l-10 -106l-142 -14q35 -70 35 -174q0 -170 -97 -245t-337 -75q-111 0 -199 16q-33 -43 -17.5 -94t81.5 -61l368 -58q141 -20 202 -87.5t61 -196.5 q0 -178 -104.5 -246t-379.5 -68q-276 0 -382.5 67t-106.5 241zM270 -86q0 -98 56.5 -127t238.5 -29q176 0 233.5 30t57.5 126q0 70 -30.5 91.5t-139.5 37.5l-321 43q-94 -78 -95 -172zM301 705q0 -92 56.5 -131t197.5 -39q139 0 194.5 37.5t55.5 132.5q0 96 -54.5 132.5 t-195.5 36.5q-143 0 -198.5 -36.5t-55.5 -132.5zM494 1200v111q2 150 71 276l86 -22q-20 -100 -20 -211q49 0 49 -54v-100q-2 -61 -70 -61h-51q-37 0 -51 13t-14 48z" />
<glyph unicode="&#x126;" horiz-adv-x="1388" d="M39 1061v106h141v246h205v-246h619v246h204v-246h140v-106h-140v-1061h-204v666h-619v-666h-205v1061h-141zM385 842h619v219h-619v-219z" />
<glyph unicode="&#x127;" horiz-adv-x="1202" d="M10 1167v113h152v154h198v-154h291v-113h-289v-120q0 -102 -14 -195q238 174 436 174q131 0 201 -70.5t70 -205.5v-750h-199v692q0 94 -27.5 130t-99.5 36q-78 0 -159 -35t-210 -112v-711h-198v1167h-152z" />
<glyph unicode="&#x12a;" horiz-adv-x="548" d="M-14 1602v145h577v-145h-577zM172 0v1413h205v-1413h-205z" />
<glyph unicode="&#x12b;" horiz-adv-x="522" d="M-27 1235v145h578v-145h-578zM162 0v999h198v-999h-198z" />
<glyph unicode="&#x12e;" horiz-adv-x="548" d="M56 -319.5q1 38.5 14 81.5q41 121 192 238h-90v1413h205v-1413h-25q-106 -125 -145 -227q-31 -70 15 -93.5t138 7.5l25 -82q-78 -31 -140.5 -39t-100.5 6t-63.5 42t-24.5 66.5z" />
<glyph unicode="&#x12f;" horiz-adv-x="522" d="M48 -319.5q1 38.5 13 81.5q41 121 191 238h-90v999h198v-999h-16q-106 -125 -145 -227q-31 -70 15 -93.5t138 7.5l25 -82q-78 -31 -140.5 -39t-100.5 6t-63.5 42t-24.5 66.5zM172 1239v115q0 57 59 57h64q57 0 57 -57v-115q0 -59 -57 -59h-64q-59 0 -59 59z" />
<glyph unicode="&#x130;" horiz-adv-x="548" d="M172 0v1413h205v-1413h-205zM184 1606v114q1 60 60 60h63q57 0 58 -60v-114q0 -57 -58 -58h-63q-59 0 -60 58z" />
<glyph unicode="&#x131;" horiz-adv-x="522" d="M162 0v999h198v-999h-198z" />
<glyph unicode="&#x132;" horiz-adv-x="1251" d="M172 0v1413h205v-1413h-205zM606 8l23 148h98q154 0 154 143v1114h204v-1104q0 -160 -71.5 -244.5t-206.5 -82.5q-125 0 -201 26z" />
<glyph unicode="&#x133;" horiz-adv-x="1044" d="M156 1253v115q0 57 57 57h94q57 0 58 -57v-115q0 -59 -58 -59h-94q-57 0 -57 59zM162 0v999h196v-999h-196zM569 -328q115 145 115 318v1009h199v-1009q0 -123 -54.5 -229.5t-148.5 -174.5zM678 1253v115q0 57 59 57h94q57 0 58 -57v-115q0 -59 -58 -59h-94q-59 0 -59 59 z" />
<glyph unicode="&#x136;" horiz-adv-x="1222" d="M172 0v1413h205v-434q0 -88 -15 -160h160l416 594h223l-399 -577q-33 -47 -86 -99v-6q57 -49 98 -106l414 -625h-227l-439 653h-160q14 -86 15 -145v-508h-205zM553 -180q2 35 18.5 48t51.5 13h53q37 0 50 -13t13 -48v-111q-2 -154 -69 -276l-86 22q20 102 20 211 q-51 0 -51 53v101z" />
<glyph unicode="&#x137;" horiz-adv-x="1058" d="M154 0v1434h200v-629q0 -88 -12 -170h123l301 364h229l-301 -362q-27 -37 -73 -74v-4q39 -31 73 -86l334 -473h-229l-332 492h-125q10 -88 10 -156v-336h-198zM477 -180q2 35 18.5 48t51.5 13h53q35 0 49.5 -13t14.5 -48v-111q-2 -154 -70 -276l-86 22q20 119 20 211 q-51 0 -51 53v101z" />
<glyph unicode="&#x139;" horiz-adv-x="1054" d="M133 1579l363 299l110 -152l-407 -239zM168 274v1139h205v-1110q0 -72 28.5 -101.5t100.5 -29.5h502l10 -158q-199 -18 -545 -18q-301 0 -301 278z" />
<glyph unicode="&#x13a;" horiz-adv-x="618" d="M119 1622l362 301l113 -154l-408 -237zM156 244v1190h198v-1145q-2 -63 31 -95t98 -32h92l23 -154q-59 -27 -190 -26q-117 0 -184.5 68.5t-67.5 193.5z" />
<glyph unicode="&#x13b;" horiz-adv-x="1054" d="M168 274v1139h205v-1110q0 -72 28.5 -101.5t100.5 -29.5h502l10 -158q-199 -18 -545 -18q-301 0 -301 278zM510 -182q2 61 70 61h51q37 0 51 -13t14 -48v-111q-2 -150 -71 -276l-86 22q20 100 20 211q-49 0 -49 53v101z" />
<glyph unicode="&#x13c;" horiz-adv-x="618" d="M156 244v1190h198v-1145q-2 -63 31 -95t98 -32h92l23 -154q-59 -27 -190 -26q-117 0 -184.5 68.5t-67.5 193.5zM262 -182q2 61 70 61h51q37 0 51.5 -13t14.5 -48v-111q-2 -150 -72 -276l-86 22q20 100 20 211q-49 0 -49 53v101z" />
<glyph unicode="&#x13d;" horiz-adv-x="1054" d="M168 274v1139h205v-1110q0 -72 28.5 -101.5t100.5 -29.5h502l10 -158q-199 -18 -545 -18q-301 0 -301 278zM600 1253v101q2 61 68 61h53q37 0 51 -13t14 -48v-111q-2 -150 -71 -276l-86 22q20 100 20 211q-23 0 -37 14.5t-12 38.5z" />
<glyph unicode="&#x13e;" horiz-adv-x="618" d="M156 244v1190h198v-1145q-2 -63 31 -95t98 -32h92l23 -154q-59 -27 -190 -26q-117 0 -184.5 68.5t-67.5 193.5zM461 1290v92q1 58 69 58h52q37 0 51 -12.5t14 -45.5v-100q-2 -135 -72 -254l-86 21q20 94 21 192q-49 0 -49 49z" />
<glyph unicode="&#x13f;" horiz-adv-x="1054" d="M168 274v1139h205v-1110q0 -72 28.5 -101.5t100.5 -29.5h502l10 -158q-199 -18 -545 -18q-301 0 -301 278zM715 754v114q0 59 59 60h64q57 0 57 -60v-114q0 -58 -57 -58h-64q-59 0 -59 58z" />
<glyph unicode="&#x140;" horiz-adv-x="669" d="M156 244v1190h198v-1145q-2 -63 31 -95t98 -32h92l23 -154q-59 -27 -190 -26q-117 0 -184.5 68.5t-67.5 193.5zM494 741v115q0 57 59 57h63q57 0 58 -57v-115q-1 -59 -58 -59h-63q-59 0 -59 59z" />
<glyph unicode="&#x141;" horiz-adv-x="1067" d="M39 618v125l141 60v610h205v-526l233 96v-125l-233 -96v-459q0 -72 29.5 -101.5t101.5 -29.5h502l8 -158q-199 -18 -543 -18q-303 0 -303 278v404z" />
<glyph unicode="&#x142;" horiz-adv-x="679" d="M39 606v127l160 68v633h198v-551l217 90v-127l-219 -90v-467q0 -127 131 -127h92l25 -154q-59 -27 -192 -26q-117 0 -184.5 68.5t-67.5 193.5v430z" />
<glyph unicode="&#x143;" horiz-adv-x="1449" d="M172 0v1333q0 80 78 80h188q59 0 90 -63l428 -938q8 -18 29 -60.5t38 -80.5t32 -70h30q-10 123 -10 219v993h203v-1333q0 -80 -76 -80h-194q-61 0 -88 63l-441 963q-74 160 -84 197h-28q10 -82 10 -197v-1026h-205zM600 1579l361 299l112 -152l-407 -239z" />
<glyph unicode="&#x144;" horiz-adv-x="1193" d="M154 0v999h168l12 -153q236 180 442 180q133 0 202 -70.5t69 -205.5v-750h-199v692q0 94 -27.5 130t-99.5 36q-78 0 -156 -35t-213 -114v-709h-198zM469 1210l362 301l113 -151l-407 -240z" />
<glyph unicode="&#x145;" horiz-adv-x="1449" d="M172 0v1333q0 80 78 80h188q59 0 90 -63l428 -938q8 -18 29 -60.5t38 -80.5t32 -70h30q-10 123 -10 219v993h203v-1333q0 -80 -76 -80h-194q-61 0 -88 63l-441 963q-74 160 -84 197h-28q10 -82 10 -197v-1026h-205zM604 -180q2 35 18.5 48t51.5 13h53q37 0 50.5 -13 t13.5 -48v-111q-2 -154 -70 -276l-86 22q20 102 20 211q-51 0 -51 53v101z" />
<glyph unicode="&#x146;" horiz-adv-x="1193" d="M154 0v999h168l12 -153q236 180 442 180q133 0 202 -70.5t69 -205.5v-750h-199v692q0 94 -27.5 130t-99.5 36q-78 0 -156 -35t-213 -114v-709h-198zM502 -180q1 61 69 61h52q37 0 51 -13t14 -48v-111q-2 -150 -72 -276l-86 22q20 102 21 211q-49 0 -49 53v101z" />
<glyph unicode="&#x147;" horiz-adv-x="1449" d="M172 0v1333q0 80 78 80h188q59 0 90 -63l428 -938q8 -18 29 -60.5t38 -80.5t32 -70h30q-10 123 -10 219v993h203v-1333q0 -80 -76 -80h-194q-61 0 -88 63l-441 963q-74 160 -84 197h-28q10 -82 10 -197v-1026h-205zM401 1786l66 84l266 -172h17l264 172l69 -84l-297 -264 h-90z" />
<glyph unicode="&#x148;" horiz-adv-x="1193" d="M154 0v999h168l12 -153q236 180 442 180q133 0 202 -70.5t69 -205.5v-750h-199v692q0 94 -27.5 130t-99.5 36q-78 0 -156 -35t-213 -114v-709h-198zM272 1417l66 86l266 -174h17l264 174l69 -86l-297 -264h-90z" />
<glyph unicode="&#x14a;" horiz-adv-x="1449" d="M172 0v1333q0 80 78 80h149q57 0 90 -63l465 -901q41 -78 99 -213h30q-10 119 -10 215v962h205v-1567q0 -137 -76 -212.5t-205 -73.5q-109 0 -190 28l22 129h97q160 0 159 146v137h-71q-29 0 -60 57l-477 932q-39 74 -86 197h-24q10 -66 10 -199v-987h-205z" />
<glyph unicode="&#x14b;" horiz-adv-x="1193" d="M154 0v999h153l19 -161q236 188 448 188q272 0 273 -276v-881q0 -139 -67 -214t-192 -73q-102 0 -188 29l23 127h86q139 0 139 147v807q0 84 -28.5 118t-104.5 34q-127 0 -363 -135v-709h-198z" />
<glyph unicode="&#x14c;" horiz-adv-x="1370" d="M121 706.5q0 413.5 125 573.5t438 160q315 0 440 -160t125 -573.5t-125 -573.5t-440 -160q-313 0 -438 160t-125 573.5zM336 706.5q0 -313.5 74.5 -432t273.5 -118.5t274.5 118.5t75.5 432t-75.5 432t-274.5 118.5t-273.5 -118.5t-74.5 -432zM393 1602v145h580v-145h-580 z" />
<glyph unicode="&#x14d;" horiz-adv-x="1167" d="M106 497.5q0 286.5 109 407.5t369 121t368.5 -121t108.5 -407.5t-108.5 -405.5t-368.5 -119t-369 119t-109 405.5zM293 1235v145h579v-145h-579zM313 498q0 -207 57.5 -283t213 -76t213 76t57.5 283q0 209 -57.5 284.5t-213 75.5t-213 -75.5t-57.5 -284.5z" />
<glyph unicode="&#x150;" horiz-adv-x="1370" d="M121 706.5q0 413.5 125 573.5t438 160q315 0 440 -160t125 -573.5t-125 -573.5t-440 -160q-313 0 -438 160t-125 573.5zM336 706.5q0 -313.5 74.5 -432t273.5 -118.5t274.5 118.5t75.5 432t-75.5 432t-274.5 118.5t-273.5 -118.5t-74.5 -432zM399 1540l226 363l143 -99 l-283 -329zM748 1540l223 363l143 -99l-283 -329z" />
<glyph unicode="&#x151;" horiz-adv-x="1167" d="M106 497.5q0 286.5 109 407.5t369 121t368.5 -121t108.5 -407.5t-108.5 -405.5t-368.5 -119t-369 119t-109 405.5zM299 1171l225 363l144 -98l-283 -328zM313 498q0 -207 57.5 -283t213 -76t213 76t57.5 283q0 209 -57.5 284.5t-213 75.5t-213 -75.5t-57.5 -284.5z M645 1171l225 363l142 -98l-281 -328z" />
<glyph unicode="&#x152;" horiz-adv-x="1880" d="M121 706.5q0 413.5 125 573.5t438 160q186 0 348 -64q63 41 148 41q414 0 598 -16l-9 -160h-520q-72 0 -101.5 -29.5t-29.5 -101.5v-283h572v-168h-572v-358q0 -72 30 -101.5t101 -29.5h520l9 -158q-188 -16 -617 -16q-80 0 -141 45q-147 -68 -336 -68q-313 0 -438 160 t-125 573.5zM336 707q0 -313 74.5 -432t273.5 -119q135 0 240 28q-13 43 -13 90v865q0 41 15 90q-121 29 -242 28q-199 0 -273.5 -117.5t-74.5 -432.5z" />
<glyph unicode="&#x153;" horiz-adv-x="1853" d="M106 497.5q0 286.5 109 407.5t369 121q262 0 370 -121q102 121 351 121q451 0 450 -313q2 -170 -69.5 -234.5t-243.5 -64.5h-379q12 -164 77.5 -218.5t223.5 -54.5q133 0 346 25l21 -131q-135 -59 -396 -60q-268 0 -377 123q-106 -125 -374 -125q-260 0 -369 119 t-109 405.5zM313 498q0 -207 57.5 -283t213.5 -76q145 0 204.5 66.5t65.5 245.5l-2 57q0 33 2 49q-8 172 -67.5 236.5t-202.5 64.5q-156 0 -213.5 -75.5t-57.5 -284.5zM1059 559h371q74 0 102.5 35t23.5 121q-6 74 -64 108.5t-181 34.5q-135 0 -190.5 -64.5t-61.5 -234.5z " />
<glyph unicode="&#x154;" horiz-adv-x="1269" d="M172 0v1413q174 18 494 19q256 0 361.5 -88.5t105.5 -321.5q0 -170 -60.5 -256t-200.5 -104v-11q137 -41 179 -205l133 -446h-219l-121 440q-45 141 -178 142l-291 2v-584h-203zM375 758h287q152 2 208 54t56 198q0 143 -56.5 194t-207.5 51q-209 0 -287 -2v-495z M479 1579l363 299l112 -152l-409 -239z" />
<glyph unicode="&#x155;" horiz-adv-x="827" d="M154 0v999h153l21 -151q223 178 420 178h47l-23 -186h-61q-117 0 -359 -115v-725h-198zM328 1210l362 301l111 -151l-408 -240z" />
<glyph unicode="&#x156;" horiz-adv-x="1269" d="M172 0v1413q174 18 494 19q256 0 361.5 -88.5t105.5 -321.5q0 -170 -60.5 -256t-200.5 -104v-11q137 -41 179 -205l133 -446h-219l-121 440q-45 141 -178 142l-291 2v-584h-203zM375 758h287q152 2 208 54t56 198q0 143 -56.5 194t-207.5 51q-209 0 -287 -2v-495z M578 -180q2 35 18 48t51 13h51q37 0 51.5 -13t14.5 -48v-111q-2 -150 -72 -276l-84 22q20 119 21 211q-51 0 -51 53v101z" />
<glyph unicode="&#x157;" horiz-adv-x="827" d="M141 -180q2 61 70 61h51q37 0 51.5 -13t14.5 -48v-111q-2 -150 -72 -276l-84 22q18 106 18 211q-49 0 -49 53v101zM154 0v999h153l21 -151q223 178 420 178h47l-23 -186h-61q-117 0 -359 -115v-725h-198z" />
<glyph unicode="&#x158;" horiz-adv-x="1269" d="M172 0v1413q174 18 494 19q256 0 361.5 -88.5t105.5 -321.5q0 -170 -60.5 -256t-200.5 -104v-11q137 -41 179 -205l133 -446h-219l-121 440q-45 141 -178 142l-291 2v-584h-203zM283 1786l65 84l266 -172h17l264 172l70 -84l-297 -264h-90zM375 758h287q152 2 208 54 t56 198q0 143 -56.5 194t-207.5 51q-209 0 -287 -2v-495z" />
<glyph unicode="&#x159;" horiz-adv-x="827" d="M131 1417l66 86l266 -174h16l264 174l70 -86l-297 -264h-90zM154 0v999h153l21 -151q223 178 420 178h47l-23 -186h-61q-117 0 -359 -115v-725h-198z" />
<glyph unicode="&#x15a;" horiz-adv-x="1153" d="M109 1065q0 121 25.5 195.5t89 113.5t141 51.5t208.5 12.5q250 0 426 -43l-12 -150q-297 10 -405 10q-160 0 -213.5 -31.5t-53.5 -164.5q0 -104 38 -147.5t132 -67.5l281 -78q158 -43 222.5 -139.5t64.5 -261.5q0 -233 -106.5 -311.5t-375.5 -78.5q-225 0 -444 41l14 152 q319 -10 434 -10q160 2 214.5 41t54.5 168q0 109 -37 150.5t-131 66.5l-287 80q-152 41 -216 138t-64 263zM428 1579l363 299l112 -152l-407 -239z" />
<glyph unicode="&#x15b;" horiz-adv-x="1042" d="M98 748q0 166 89 223t307 55q240 -4 426 -35l-17 -143q-313 10 -379 10q-145 0 -189 -17.5t-44 -92.5q0 -35 6 -56.5t31.5 -36t40 -19.5t63.5 -20l283 -69q127 -33 180 -93.5t53 -187.5q0 -176 -97 -232.5t-337 -56.5q-209 0 -397 29l14 148q115 -10 342 -11 q168 0 225.5 23.5t57.5 99.5q0 33 -8.5 54.5t-35 36t-42 19.5t-66.5 17l-278 70q-125 33 -176.5 97.5t-51.5 187.5zM389 1210l363 301l112 -151l-409 -240z" />
<glyph unicode="&#x15e;" horiz-adv-x="1153" d="M109 1065q0 121 25.5 195.5t89 113.5t141 51.5t208.5 12.5q250 0 426 -43l-12 -150q-297 10 -405 10q-160 0 -213.5 -31.5t-53.5 -164.5q0 -104 38 -147.5t132 -67.5l281 -78q158 -43 222.5 -139.5t64.5 -261.5q0 -233 -106.5 -311.5t-375.5 -78.5q-225 0 -444 41l14 152 q319 -10 434 -10q160 2 214.5 41t54.5 168q0 109 -37 150.5t-131 66.5l-287 80q-152 41 -216 138t-64 263zM375 -498l33 105q78 -2 127 34.5t53 98.5q2 35 -22.5 46t-98.5 11l20 92q135 12 189.5 -14.5t52.5 -118.5q-2 -133 -102.5 -203.5t-251.5 -50.5z" />
<glyph unicode="&#x15f;" horiz-adv-x="1042" d="M98 748q0 166 89 223t307 55q240 -4 426 -35l-17 -143q-313 10 -379 10q-145 0 -189 -17.5t-44 -92.5q0 -35 6 -56.5t31.5 -36t40 -19.5t63.5 -20l283 -69q127 -33 180 -93.5t53 -187.5q0 -176 -97 -232.5t-337 -56.5q-209 0 -397 29l14 148q115 -10 342 -11 q168 0 225.5 23.5t57.5 99.5q0 33 -8.5 54.5t-35 36t-42 19.5t-66.5 17l-278 70q-125 33 -176.5 97.5t-51.5 187.5zM303 -496l33 105q78 -2 128 35t52 98q2 33 -22.5 44t-98.5 13l21 92q135 12 189 -14.5t52 -118.5q-2 -133 -102 -203.5t-252 -50.5z" />
<glyph unicode="&#x160;" horiz-adv-x="1153" d="M109 1065q0 121 25.5 195.5t89 113.5t141 51.5t208.5 12.5q250 0 426 -43l-12 -150q-297 10 -405 10q-160 0 -213.5 -31.5t-53.5 -164.5q0 -104 38 -147.5t132 -67.5l281 -78q158 -43 222.5 -139.5t64.5 -261.5q0 -233 -106.5 -311.5t-375.5 -78.5q-225 0 -444 41l14 152 q319 -10 434 -10q160 2 214.5 41t54.5 168q0 109 -37 150.5t-131 66.5l-287 80q-152 41 -216 138t-64 263zM231 1786l66 84l266 -172h17l264 172l69 -84l-297 -264h-90z" />
<glyph unicode="&#x161;" horiz-adv-x="1042" d="M98 748q0 166 89 223t307 55q240 -4 426 -35l-17 -143q-313 10 -379 10q-145 0 -189 -17.5t-44 -92.5q0 -35 6 -56.5t31.5 -36t40 -19.5t63.5 -20l283 -69q127 -33 180 -93.5t53 -187.5q0 -176 -97 -232.5t-337 -56.5q-209 0 -397 29l14 148q115 -10 342 -11 q168 0 225.5 23.5t57.5 99.5q0 33 -8.5 54.5t-35 36t-42 19.5t-66.5 17l-278 70q-125 33 -176.5 97.5t-51.5 187.5zM193 1417l65 86l266 -174h17l264 174l69 -86l-296 -264h-91z" />
<glyph unicode="&#x162;" horiz-adv-x="1196" d="M49 1231v182h1100v-182h-449v-1231h-206v1231h-445zM385 -473l31 104q78 -2 128 35t54 98q0 33 -23.5 44.5t-97.5 13.5l21 92q133 12 188 -14.5t53 -118.5q-4 -133 -104 -204t-250 -50z" />
<glyph unicode="&#x163;" horiz-adv-x="794" d="M51 846v143l182 8v295h197v-293h309v-153h-309v-557q0 -70 29.5 -98.5t101.5 -28.5h146l22 -154q-94 -27 -235 -26q-127 0 -194 72.5t-67 207.5v584h-182zM240 -494l30 105q78 -2 128.5 36t54.5 99q2 33 -22.5 44t-98.5 11l20 93q133 14 188.5 -13.5t53.5 -120.5 q-4 -133 -104.5 -202.5t-249.5 -51.5z" />
<glyph unicode="&#x164;" horiz-adv-x="1196" d="M49 1231v182h1100v-182h-449v-1231h-206v1231h-445zM260 1786l66 84l266 -172h16l264 172l68 -84l-295 -264h-90z" />
<glyph unicode="&#x165;" horiz-adv-x="794" d="M51 846v143l182 8v295h197v-293h309v-153h-309v-557q0 -70 29.5 -98.5t101.5 -28.5h146l22 -154q-94 -27 -235 -26q-127 0 -194 72.5t-67 207.5v584h-182zM555 1425v101q2 61 70 61h51q37 0 51 -13t14 -48v-111q-1 -149 -71 -276l-86 22q20 100 20 211q-49 0 -49 53z" />
<glyph unicode="&#x166;" horiz-adv-x="1196" d="M49 1231v182h1100v-182h-449v-371h283v-112h-283v-748h-206v748h-283v112h283v371h-445z" />
<glyph unicode="&#x167;" horiz-adv-x="794" d="M51 846v143l182 8v295h197v-293h309v-153h-309v-187h258v-108h-258v-262q0 -70 29.5 -98.5t101.5 -28.5h146l22 -154q-94 -27 -235 -26q-127 0 -194 72.5t-67 207.5v289h-131v108h131v187h-182z" />
<glyph unicode="&#x16a;" horiz-adv-x="1363" d="M162 545v868h205v-868q0 -217 69.5 -303t245.5 -86q174 0 244.5 86t70.5 303v868h205v-868q0 -311 -115.5 -441.5t-396.5 -130.5q-289 0 -408.5 130t-119.5 442zM395 1602v145h578v-145h-578z" />
<glyph unicode="&#x16b;" d="M147 250v749h199v-692q-2 -92 31 -128t112 -36q117 0 332 133v723h197v-999h-158l-14 137q-219 -164 -426 -164q-272 0 -273 277zM301 1243v146h580v-146h-580z" />
<glyph unicode="&#x16e;" horiz-adv-x="1363" d="M162 545v868h205v-868q0 -217 69.5 -303t245.5 -86q174 0 244.5 86t70.5 303v868h205v-868q0 -311 -115.5 -441.5t-396.5 -130.5q-289 0 -408.5 130t-119.5 442zM461 1679.5q0 92.5 65.5 155.5t157.5 63t157.5 -63t65.5 -155.5t-65.5 -155t-157.5 -62.5 q-94 0 -158.5 62.5t-64.5 155zM569 1679q0 -53 33 -85.5t82 -32.5q51 0 84 32.5t33 86t-34 87t-83 33.5t-82 -32.5t-33 -88.5z" />
<glyph unicode="&#x16f;" d="M147 250v749h199v-692q-2 -92 31 -128t112 -36q117 0 332 133v723h197v-999h-158l-14 137q-219 -164 -426 -164q-272 0 -273 277zM369 1321q0 92 65.5 155.5t157.5 63.5t157.5 -63.5t65.5 -155.5t-65.5 -154.5t-157.5 -62.5q-94 0 -158.5 62.5t-64.5 154.5zM475 1321 q0 -53 33 -86t84 -33q49 0 83 33t34 86t-34 87t-83 34q-51 0 -84 -33t-33 -88z" />
<glyph unicode="&#x170;" horiz-adv-x="1363" d="M162 545v868h205v-868q0 -217 69.5 -303t245.5 -86q174 0 244.5 86t70.5 303v868h205v-868q0 -311 -115.5 -441.5t-396.5 -130.5q-289 0 -408.5 130t-119.5 442zM401 1540l226 363l143 -99l-283 -329zM748 1540l223 363l143 -99l-283 -329z" />
<glyph unicode="&#x171;" d="M147 250v749h199v-692q-2 -92 31 -128t112 -36q117 0 332 133v723h197v-999h-158l-14 137q-219 -164 -426 -164q-272 0 -273 277zM307 1182l225 362l144 -98l-283 -330zM655 1182l224 362l143 -98l-283 -330z" />
<glyph unicode="&#x172;" horiz-adv-x="1363" d="M162 545v868h205v-868q0 -217 69.5 -303t245.5 -86q174 0 244.5 86t70.5 303v868h205v-868q0 -291 -100.5 -423t-339.5 -147q-100 -115 -141 -221q-31 -72 14 -94t139 8l23 -82q-96 -39 -169 -41t-108 26t-49 73t10 100q41 119 185 229q-274 6 -389 137.5t-115 434.5z " />
<glyph unicode="&#x173;" d="M147 250v749h199v-692q-2 -92 31 -128t112 -36q117 0 332 133v723h197v-999h6q-104 -125 -147 -227q-29 -72 16 -94.5t139 8.5l23 -82q-96 -39 -169 -41t-108 25.5t-49 72.5t10 100q39 117 193 238h-72l-14 137q-219 -164 -426 -164q-272 0 -273 277z" />
<glyph unicode="&#x174;" horiz-adv-x="1947" d="M61 1413h218l202 -1077q6 -35 25 -180h47q10 88 31 180l202 1010q14 68 78 67h219q29 0 50.5 -19.5t27.5 -47.5l201 -1012q16 -82 31 -178h47q4 29 12 88t14 88l203 1081h217l-270 -1354q-18 -59 -80 -59h-227q-66 0 -80 61l-205 1039q-20 106 -29 160h-43l-30 -160 l-203 -1039q-4 -27 -27.5 -44t-52.5 -17h-229q-63 0 -78 59zM635 1575l268 266h144l270 -266l-70 -84l-264 199h-16l-267 -199z" />
<glyph unicode="&#x175;" horiz-adv-x="1691" d="M47 999h205l192 -720q25 -102 31 -154h27l35 154l147 659q14 61 74 61h178q59 0 74 -63l145 -657q4 -20 35 -154h27q14 92 30 154l193 720h205l-281 -944q-16 -55 -76 -55h-178q-61 0 -76 63l-145 658q-4 18 -9.5 50t-10.5 58.5t-11 51.5h-24l-33 -160l-144 -658 q-14 -63 -77 -63h-177q-61 0 -73 55zM508 1210l266 265h146l268 -265l-68 -86l-264 199h-16l-267 -199z" />
<glyph unicode="&#x176;" horiz-adv-x="1175" d="M18 1413h218l284 -579q16 -35 62 -164h14q43 127 61 161l285 582h213l-465 -924v-489h-205v492zM246 1577l268 264h143l271 -264l-70 -84l-264 197h-16l-267 -197z" />
<glyph unicode="&#x177;" horiz-adv-x="1091" d="M33 999h213l248 -727q25 -63 34 -122h29q20 55 41 122l246 727h213l-387 -1046q-139 -369 -459 -373l-21 131q117 35 184.5 96.5t108.5 155.5l15 37h-41q-57 0 -70 51zM211 1210l268 265h144l268 -265l-68 -86l-264 199h-16l-267 -199z" />
<glyph unicode="&#x178;" horiz-adv-x="1175" d="M18 1413h218l284 -579q16 -35 62 -164h14q43 127 61 161l285 582h213l-465 -924v-489h-205v492zM319 1622v111q0 53 52 53h67q53 0 54 -53v-111q-1 -55 -54 -55h-67q-51 0 -52 55zM682 1622v111q0 53 53 53h66q55 0 55 -53v-111q0 -55 -55 -55h-66q-53 0 -53 55z" />
<glyph unicode="&#x179;" horiz-adv-x="1163" d="M98 0v174l731 1065h-720v174h944v-174l-729 -1065h743v-174h-969zM446 1579l363 299l111 -152l-408 -239z" />
<glyph unicode="&#x17a;" horiz-adv-x="1048" d="M98 0v162l625 676h-617v161h836v-161l-623 -676h631v-162h-852zM385 1210l363 301l110 -151l-407 -240z" />
<glyph unicode="&#x17b;" horiz-adv-x="1163" d="M98 0v174l731 1065h-720v174h944v-174l-729 -1065h743v-174h-969zM498 1606v114q0 59 57 60h63q59 0 60 -60v-114q-1 -58 -60 -58h-63q-57 0 -57 58z" />
<glyph unicode="&#x17c;" horiz-adv-x="1048" d="M98 0v162l625 676h-617v161h836v-161l-623 -676h631v-162h-852zM436 1239v115q0 57 58 57h63q59 0 59 -57v-115q0 -59 -59 -59h-63q-57 0 -58 59z" />
<glyph unicode="&#x17d;" horiz-adv-x="1163" d="M98 0v174l731 1065h-720v174h944v-174l-729 -1065h743v-174h-969zM250 1786l65 84l267 -172h16l264 172l70 -84l-297 -264h-90z" />
<glyph unicode="&#x17e;" horiz-adv-x="1048" d="M98 0v162l625 676h-617v161h836v-161l-623 -676h631v-162h-852zM186 1417l68 86l264 -174h17l266 174l67 -86l-295 -264h-92z" />
<glyph unicode="&#x192;" horiz-adv-x="919" d="M-88 -291l25 150h137q86 0 124 34.5t48 118.5l61 654h-203l11 147l207 6l28 320q27 297 324 297q143 0 219 -17l-27 -149h-145q-90 0 -128 -31t-46 -123l-27 -295h283l-15 -155h-282l-64 -676q-12 -145 -85.5 -220t-225.5 -75q-135 0 -219 14z" />
<glyph unicode="&#x218;" horiz-adv-x="1153" d="M109 1065q0 121 25.5 195.5t89 113.5t141 51.5t208.5 12.5q250 0 426 -43l-12 -150q-297 10 -405 10q-160 0 -213.5 -31.5t-53.5 -164.5q0 -104 38 -147.5t132 -67.5l281 -78q158 -43 222.5 -139.5t64.5 -261.5q0 -233 -106.5 -311.5t-375.5 -78.5q-225 0 -444 41l14 152 q319 -10 434 -10q160 2 214.5 41t54.5 168q0 109 -37 150.5t-131 66.5l-287 80q-152 41 -216 138t-64 263zM487 -180q2 35 18.5 48t51.5 13h53q35 0 49.5 -13t14.5 -48v-111q-2 -154 -70 -276l-86 22q20 119 21 211q-51 0 -52 53v101z" />
<glyph unicode="&#x219;" horiz-adv-x="1042" d="M98 748q0 166 89 223t307 55q240 -4 426 -35l-17 -143q-313 10 -379 10q-145 0 -189 -17.5t-44 -92.5q0 -35 6 -56.5t31.5 -36t40 -19.5t63.5 -20l283 -69q127 -33 180 -93.5t53 -187.5q0 -176 -97 -232.5t-337 -56.5q-209 0 -397 29l14 148q115 -10 342 -11 q168 0 225.5 23.5t57.5 99.5q0 33 -8.5 54.5t-35 36t-42 19.5t-66.5 17l-278 70q-125 33 -176.5 97.5t-51.5 187.5zM438 -180q2 35 18.5 48t51.5 13h53q35 0 49.5 -13t14.5 -48v-111q-2 -156 -72 -276l-84 22q20 119 20 211q-51 0 -51 53v101z" />
<glyph unicode="&#x21a;" horiz-adv-x="1196" d="M49 1231v182h1100v-182h-449v-1231h-206v1231h-445zM479 -180q2 35 18.5 48t51.5 13h51q37 0 51.5 -13t14.5 -48v-111q-2 -150 -72 -276l-84 22q20 119 20 211q-51 0 -51 53v101z" />
<glyph unicode="&#x21b;" horiz-adv-x="794" d="M51 846v143l182 8v295h197v-293h309v-153h-309v-557q0 -70 29.5 -98.5t101.5 -28.5h146l22 -154q-94 -27 -235 -26q-127 0 -194 72.5t-67 207.5v584h-182zM375 -180q2 35 18 48t51 13h54q35 0 49 -13t14 -48v-111q-2 -156 -72 -276l-83 22q20 119 20 211q-51 0 -51 53 v101z" />
<glyph unicode="&#x2c6;" horiz-adv-x="870" d="M98 1198l267 264h145l268 -264l-67 -84l-267 197h-16l-264 -197z" />
<glyph unicode="&#x2da;" horiz-adv-x="618" d="M86 1302.5q0 92.5 65.5 156t157.5 63.5t157.5 -63.5t65.5 -156t-65.5 -155t-157.5 -62.5q-94 0 -158.5 62.5t-64.5 155zM195 1303q0 -53 32.5 -85t81.5 -32q51 0 84 31.5t33 85t-33 87t-84 33.5q-49 0 -81.5 -32.5t-32.5 -87.5z" />
<glyph unicode="&#x2dc;" horiz-adv-x="868" d="M106 1192q-14 123 32 187.5t128 58.5q66 -6 160 -54.5t149 -54.5q55 -8 76 15.5t21 82.5h90q14 -119 -31 -182t-129 -57q-76 6 -173 56t-140 56q-53 6 -72.5 -19.5t-19.5 -88.5h-91z" />
<glyph unicode="&#x401;" horiz-adv-x="1148" d="M160 250v913q0 117 75.5 185.5t206.5 68.5q420 0 607 -16l-9 -160h-563q-61 0 -86.5 -29.5t-25.5 -101.5v-283h596v-165h-596v-361q0 -72 25.5 -101.5t86.5 -29.5h563l9 -158q-186 -16 -607 -16q-131 0 -206.5 68.5t-75.5 185.5zM365 1661v113q0 53 53 53h65q53 0 54 -53 v-113q-1 -53 -54 -53h-65q-53 0 -53 53zM727 1661v113q0 53 55 53h64q55 0 55 -53v-113q0 -53 -55 -53h-64q-55 0 -55 53z" />
<glyph unicode="&#x402;" horiz-adv-x="1542" d="M49 1231v182h1100v-182h-449v-432q186 111 404 110q166 0 260 -91t94 -339q0 -270 -136 -384.5t-390 -104.5l-19 149q182 12 261 79t79 241q0 172 -48 223t-169 51q-156 0 -336 -96v-637h-206v1231h-445z" />
<glyph unicode="&#x403;" horiz-adv-x="1060" d="M168 0v1139q0 123 74.5 200.5t191.5 77.5q406 0 588 -18l-8 -158h-510q-72 0 -101.5 -30.5t-29.5 -110.5v-1100h-205zM461 1579l362 299l113 -152l-408 -239z" />
<glyph unicode="&#x404;" horiz-adv-x="1183" d="M121 706.5q0 403.5 128 567.5t443 164q227 0 398 -41l-23 -160q-164 16 -375 16q-184 0 -265 -94t-93 -332h596v-159h-598q2 -287 82 -397.5t278 -110.5q246 0 389 20l21 -155q-164 -49 -410 -50q-315 0 -443 164t-128 567.5z" />
<glyph unicode="&#x405;" horiz-adv-x="1153" d="M109 1065q0 121 25.5 195.5t89 113.5t141 51.5t208.5 12.5q250 0 426 -43l-12 -150q-297 10 -405 10q-160 0 -213.5 -31.5t-53.5 -164.5q0 -104 38 -147.5t132 -67.5l281 -78q158 -43 222.5 -139.5t64.5 -261.5q0 -233 -106.5 -311.5t-375.5 -78.5q-225 0 -444 41l14 152 q319 -10 434 -10q160 2 214.5 41t54.5 168q0 109 -37 150.5t-131 66.5l-287 80q-152 41 -216 138t-64 263z" />
<glyph unicode="&#x406;" horiz-adv-x="548" d="M172 0v1413h205v-1413h-205z" />
<glyph unicode="&#x407;" horiz-adv-x="548" d="M6 1620v111q0 55 53 55h66q53 0 53 -55v-111q0 -55 -53 -55h-66q-53 0 -53 55zM172 0v1413h205v-1413h-205zM369 1620v111q0 55 55 55h63q55 0 56 -55v-111q0 -55 -56 -55h-63q-55 0 -55 55z" />
<glyph unicode="&#x408;" horiz-adv-x="702" d="M57 8l23 148h100q152 0 152 143v1114h205v-1104q0 -162 -72 -245.5t-207 -81.5q-121 0 -201 26z" />
<glyph unicode="&#x409;" horiz-adv-x="1988" d="M43 137q119 43 197 193q14 29 25 59.5t20.5 57t18.5 67.5t14.5 65.5t11.5 76t9 78t9 91t8 92t8.5 107.5t8.5 115q18 274 307 274h471v-559h276q264 0 367.5 -96t103.5 -340q0 -250 -98 -342t-342 -92q-328 0 -510 16l2 10v1237h-252q-115 0 -127 -139 q-37 -399 -60.5 -552t-78.5 -284q-61 -141 -146 -204.5t-227 -71.5zM1151 164l276 -2q160 0 212.5 51t52.5 207q0 152 -52.5 208t-212.5 56h-276v-520z" />
<glyph unicode="&#x40a;" horiz-adv-x="2002" d="M172 0v1413h205v-561h586v561h202v-561h275q266 0 369.5 -95t103.5 -343t-98.5 -339t-341.5 -91q-330 0 -510 16v684h-586v-684h-205zM1165 164l275 -2q162 0 214 51t52 205q0 152 -52 209t-214 57h-275v-520z" />
<glyph unicode="&#x40b;" horiz-adv-x="1583" d="M49 1231v182h1100v-182h-449v-434q225 113 445 112q170 0 250 -78.5t80 -244.5v-586h-205v545q0 102 -43 143t-152 41q-180 0 -375 -96v-633h-206v1231h-445z" />
<glyph unicode="&#x40c;" horiz-adv-x="1239" d="M172 0v1413h205v-434q0 -70 -15 -160h142q68 0 122 27.5t94 76t75.5 122t66.5 157.5t68 191q4 14 6 20h207q-117 -342 -164 -434q-96 -193 -244 -229q-22 -7 -49 -9v-8q41 -4 76 -16t62.5 -24.5t56 -43.5t47 -51t44 -69.5t40 -77t40 -96t38 -103.5t43 -121t47.5 -131 h-215q-125 354 -162 432q-84 170 -199 207q-45 14 -100 14h-142q14 -86 15 -145v-508h-205zM485 1579l363 299l113 -152l-408 -239z" />
<glyph unicode="&#x40d;" horiz-adv-x="1421" d="M172 0v1413h197v-987q0 -86 -13 -174h11q35 84 79 160l590 1001h213v-1413h-198v997q0 102 12 168h-12q-29 -76 -74 -159l-594 -1006h-211zM348 1726l113 152l360 -299l-65 -92z" />
<glyph unicode="&#x40e;" horiz-adv-x="1161" d="M39 1413h209l274 -801q14 -31 43 -30h78l291 831h209l-375 -1063q-63 -172 -135 -263t-193 -101q-127 -10 -266 30l23 150q66 -4 102.5 -5t73.5 -1t57.5 10t38.5 19.5t32.5 36t27 51t30.5 73.5l25 60h-76q-61 0 -95 23.5t-55 78.5zM268 1798l99 17q0 -70 55 -108t160 -38 q100 0 155.5 38t55.5 108l100 -17q10 -121 -76 -197.5t-235 -76.5q-152 0 -238 76.5t-76 197.5z" />
<glyph unicode="&#x40f;" horiz-adv-x="1384" d="M172 0v1413h205v-1247h629v1247h206v-1413h-434l-10 -309h-139l-13 309h-444z" />
<glyph unicode="&#x410;" horiz-adv-x="1282" d="M18 0l443 1358q16 55 76 55h208q61 0 74 -55l445 -1358h-211l-131 426h-564l-131 -426h-209zM414 604h454l-166 537q-6 18 -17 57t-17 57h-56l-32 -114z" />
<glyph unicode="&#x411;" horiz-adv-x="1228" d="M172 0v1413q262 14 444.5 14t434.5 -14l-17 -172h-657v-428h280q266 0 369.5 -92t103.5 -328q0 -113 -22.5 -188.5t-58 -119.5t-105.5 -67.5t-139.5 -29.5t-183.5 -6q-240 0 -445 18h-4zM377 160l280 -2q164 0 215.5 48t51.5 197q0 145 -52.5 197.5t-214.5 52.5h-280 v-493z" />
<glyph unicode="&#x412;" horiz-adv-x="1273" d="M172 0v1413q166 16 471 17q266 0 369.5 -77t103.5 -292q0 -154 -57 -233t-182 -91v-8q154 -14 218 -107.5t64 -269.5q0 -213 -101.5 -290.5t-352.5 -77.5q-346 0 -533 16zM373 160l301 -2q162 0 220 46t58 183q0 154 -62.5 209t-227.5 57h-289v-493zM373 811h286 q147 0 204 46t57 179q0 131 -61.5 175t-225.5 44h-260v-444z" />
<glyph unicode="&#x413;" horiz-adv-x="1060" d="M168 0v1139q0 123 74.5 200.5t191.5 77.5q406 0 588 -18l-8 -158h-510q-72 0 -101.5 -30.5t-29.5 -110.5v-1100h-205z" />
<glyph unicode="&#x414;" horiz-adv-x="1433" d="M45 166h139q164 358 201 973q4 127 85 200.5t218 73.5h508v-1247h174v-475h-139l-19 309h-1007l-19 -309h-141v475zM381 166h610v1081h-266q-74 0 -105.5 -30.5t-37.5 -108.5q-23 -317 -66 -535.5t-135 -406.5z" />
<glyph unicode="&#x415;" horiz-adv-x="1148" d="M160 250v913q0 117 75.5 185.5t206.5 68.5q420 0 607 -16l-9 -160h-563q-61 0 -86.5 -29.5t-25.5 -101.5v-283h596v-165h-596v-361q0 -72 25.5 -101.5t86.5 -29.5h563l9 -158q-186 -16 -607 -16q-131 0 -206.5 68.5t-75.5 185.5z" />
<glyph unicode="&#x416;" horiz-adv-x="1871" d="M59 0q10 27 27 78q39 115 57.5 167t51 136t55 122t56.5 89t68 73.5t79 42t98 25.5v8q-70 8 -124 38t-96 84.5t-75 121t-67.5 162.5t-67.5 190q-16 49 -25 76h209q117 -326 168 -418q98 -176 242 -176h139q-12 78 -12 160v434h194v-434q0 -96 -10 -160h127q94 0 169 80 t111.5 165t112.5 294q14 37 21 55h209q-117 -342 -166 -438q-100 -193 -250 -227q-18 -5 -41 -7v-8q61 -6 110.5 -25.5t93.5 -67.5t71.5 -86t66.5 -132t58.5 -150.5t66.5 -193.5q18 -51 26 -78h-217q-131 362 -168 440q-84 168 -194 203q-37 10 -82 10h-127q12 -74 12 -145 v-508h-194v508q0 59 14 145h-137q-100 0 -174 -73.5t-111 -156.5t-121 -319q-25 -68 -39 -104h-215z" />
<glyph unicode="&#x417;" horiz-adv-x="1128" d="M72 33l18 147q229 -29 440 -28q156 0 214.5 47t58.5 188q0 154 -62.5 209t-224.5 55h-242v162h242q141 0 195.5 46t54.5 177q0 135 -58.5 181.5t-215.5 46.5q-138 0 -369 -25l-17 158q182 33 398 33q264 0 365.5 -77t101.5 -292q0 -154 -56.5 -232.5t-181.5 -91.5v-8 q152 -14 215.5 -107.5t63.5 -269.5q0 -213 -100.5 -290.5t-346.5 -77.5q-291 0 -493 49z" />
<glyph unicode="&#x418;" horiz-adv-x="1421" d="M172 0v1413h197v-987q0 -86 -13 -174h11q35 84 79 160l590 1001h213v-1413h-198v997q0 102 12 168h-12q-29 -76 -74 -159l-594 -1006h-211z" />
<glyph unicode="&#x419;" horiz-adv-x="1421" d="M172 0v1413h197v-987q0 -86 -13 -174h11q35 84 79 160l590 1001h213v-1413h-198v997q0 102 12 168h-12q-29 -76 -74 -159l-594 -1006h-211zM401 1810h150q0 -88 43 -134t123 -46q162 0 162 180h147q10 -123 -75 -204.5t-234 -81.5q-152 0 -239 82t-77 204z" />
<glyph unicode="&#x41a;" horiz-adv-x="1239" d="M172 0v1413h205v-434q0 -70 -15 -160h142q68 0 122 27.5t94 76t75.5 122t66.5 157.5t68 191q4 14 6 20h207q-117 -342 -164 -434q-96 -193 -244 -229q-22 -7 -49 -9v-8q41 -4 76 -16t62.5 -24.5t56 -43.5t47 -51t44 -69.5t40 -77t40 -96t38 -103.5t43 -121t47.5 -131 h-215q-125 354 -162 432q-84 170 -199 207q-45 14 -100 14h-142q14 -86 15 -145v-508h-205z" />
<glyph unicode="&#x41b;" horiz-adv-x="1341" d="M20 156q143 39 203 172q53 127 78 284.5t55 532.5q25 268 293 268h520v-1413h-206v1247h-261q-133 0 -145 -139q-35 -395 -59.5 -552t-81.5 -284q-123 -283 -379 -276z" />
<glyph unicode="&#x41c;" horiz-adv-x="1804" d="M145 0l54 1329q4 84 84 84h227q63 0 86 -70l240 -827q20 -74 47 -190h37q25 109 49 192l237 825q22 70 90 70h224q80 0 84 -84l57 -1329h-205l-49 1243h-41l-287 -1005q-18 -70 -88 -70h-178q-72 0 -90 70l-289 1005h-39l-47 -1243h-203z" />
<glyph unicode="&#x41d;" horiz-adv-x="1372" d="M172 0v1413h205v-571h616v571h207v-1413h-207v666h-616v-666h-205z" />
<glyph unicode="&#x41e;" horiz-adv-x="1370" d="M121 706.5q0 413.5 125 573.5t438 160q315 0 440 -160t125 -573.5t-125 -573.5t-440 -160q-313 0 -438 160t-125 573.5zM336 706.5q0 -313.5 74.5 -432t273.5 -118.5t274.5 118.5t75.5 432t-75.5 432t-274.5 118.5t-273.5 -118.5t-74.5 -432z" />
<glyph unicode="&#x41f;" horiz-adv-x="1374" d="M172 0v1413h1030v-1413h-205v1247h-620v-1247h-205z" />
<glyph unicode="&#x420;" horiz-adv-x="1212" d="M172 0v1413q174 18 494 19q262 0 361 -94.5t99 -352.5q0 -260 -95 -354t-343 -94q-154 0 -309 18v-555h-207zM379 713h280q150 2 205.5 57t55.5 215t-55.5 215t-205.5 55q-205 0 -280 -2v-540z" />
<glyph unicode="&#x421;" d="M121 706.5q0 403.5 125 567.5t434 164q221 0 391 -41l-20 -158q-164 16 -371 16q-195 0 -269.5 -118.5t-74.5 -430t74.5 -430t269.5 -118.5q260 -1 399 22l21 -155q-170 -49 -420 -50q-309 0 -434 164t-125 567.5z" />
<glyph unicode="&#x422;" horiz-adv-x="1196" d="M49 1231v182h1100v-182h-449v-1231h-206v1231h-445z" />
<glyph unicode="&#x423;" horiz-adv-x="1161" d="M39 1413h209l274 -801q14 -31 43 -30h78l291 831h209l-375 -1063q-63 -172 -135 -263t-193 -101q-127 -10 -266 30l23 150q66 -4 102.5 -5t73.5 -1t57.5 10t38.5 19.5t32.5 36t27 51t30.5 73.5l25 60h-76q-61 0 -95 23.5t-55 78.5z" />
<glyph unicode="&#x424;" horiz-adv-x="1683" d="M94 721q0 324 144.5 459t500.5 147v197h205v-197q356 -14 499.5 -148.5t145.5 -457.5q-2 -317 -145.5 -449.5t-499.5 -146.5v-197h-205v197q-356 12 -500.5 145t-144.5 451zM305 721q0 -233 94.5 -324.5t348.5 -101.5v862q-254 -10 -348.5 -103t-94.5 -333zM936 295 q252 12 346 103t96 323q-2 240 -96 333t-346 103v-862z" />
<glyph unicode="&#x425;" horiz-adv-x="1261" d="M47 0l387 731l-360 682h219l309 -602h55l308 602h223l-363 -682l389 -731h-223l-338 655h-49l-336 -655h-221z" />
<glyph unicode="&#x426;" horiz-adv-x="1423" d="M172 0v1413h205v-1247h602v1247h207v-1247h172v-475h-139l-19 309h-1028z" />
<glyph unicode="&#x427;" horiz-adv-x="1288" d="M119 831v582h205v-541q-2 -96 42 -139t148 -43q186 0 399 98v625h205v-1413h-205v631q-231 -123 -473 -123q-164 0 -242.5 80t-78.5 243z" />
<glyph unicode="&#x428;" horiz-adv-x="1914" d="M172 0v1413h201v-1247h485v1247h199v-1247h485v1247h201v-1413h-1571z" />
<glyph unicode="&#x429;" horiz-adv-x="1966" d="M172 0v1413h201v-1247h479v1247h199v-1247h479v1247h201v-1247h172v-475h-140l-18 309h-1573z" />
<glyph unicode="&#x42a;" horiz-adv-x="1531" d="M47 1231v182h649v-559h275q266 0 368.5 -96t102.5 -344t-98.5 -339t-342.5 -91q-330 0 -512 16v1231h-442zM696 164l275 -2q160 0 212 51t52 205q0 152 -52.5 209t-211.5 57h-275v-520z" />
<glyph unicode="&#x42b;" horiz-adv-x="1746" d="M172 0v1413h205v-559h278q266 0 369.5 -96t103.5 -344t-98 -339t-342 -91q-330 0 -512 16h-4zM377 164l278 -2q162 0 214.5 51t52.5 205q0 152 -52.5 209t-214.5 57h-278v-520zM1372 0v1413h205v-1413h-205z" />
<glyph unicode="&#x42c;" horiz-adv-x="1218" d="M172 0v1413h205v-559h278q266 0 369.5 -96t103.5 -344t-98 -339t-342 -91q-330 0 -512 16h-4zM377 164l278 -2q162 0 214.5 51t52.5 205q0 152 -52.5 209t-214.5 57h-278v-520z" />
<glyph unicode="&#x42d;" horiz-adv-x="1183" d="M82 25l20 155q143 -20 390 -20q199 0 278.5 110.5t81.5 397.5h-598v159h594q-12 238 -92 332t-264 94q-211 0 -377 -16l-21 160q170 41 395 41q317 0 445.5 -164t128.5 -567.5t-128 -567.5t-446 -164q-244 0 -407 50z" />
<glyph unicode="&#x42e;" horiz-adv-x="1910" d="M174 0v1413h205v-596h309q14 348 134 485.5t401 137.5q315 0 441 -160t126 -573.5t-126 -573.5t-441 -160q-289 0 -409 148.5t-126 529.5h-309v-651h-205zM889 706.5q0 -313.5 72 -432t262 -118.5q199 0 273.5 118.5t76.5 432.5q-2 313 -77 431.5t-273 118.5 q-190 0 -262 -118.5t-72 -432z" />
<glyph unicode="&#x42f;" horiz-adv-x="1259" d="M84 0l125 432q47 164 199 201l-2 10q-141 20 -204 111.5t-61 263.5q0 223 105.5 318.5t349.5 95.5q319 0 491 -19v-1413h-204v567l-285 -2q-139 0 -178 -141l-119 -424h-217zM346 1006q0 -139 56.5 -202t193.5 -63h287v512q-76 2 -283 2q-143 0 -197.5 -52t-56.5 -197z " />
<glyph unicode="&#x430;" horiz-adv-x="1136" d="M102 264v105q0 119 75 184t210 65h401v78q-2 92 -42.5 127t-155.5 35q-117 1 -424 -24l-19 145q266 47 486 47q182 0 268 -73.5t86 -256.5v-696h-158l-20 158q-172 -176 -399 -176q-139 0 -223.5 74.5t-84.5 207.5zM303 289q0 -74 35 -106.5t113 -32.5q178 0 337 139v180 h-364q-66 -2 -93.5 -35t-27.5 -92v-53z" />
<glyph unicode="&#x431;" horiz-adv-x="1181" d="M139 602q0 176 13.5 290t51.5 217t113.5 166.5t194.5 100.5q59 18 149.5 32.5t165 36t148.5 66.5l47 -155q-76 -47 -145.5 -68.5t-157.5 -35t-141 -27.5q-229 -66 -271 -312q-14 -78 -20 -147h4q29 59 63.5 98t115.5 72t200 33q219 0 309 -110.5t90 -369t-100.5 -386.5 t-364.5 -128q-127 0 -215 33t-137 83t-74.5 139t-32 168t-6.5 204zM344 487q0 -197 57.5 -271.5t203 -74.5t201.5 75t56 269q0 184 -51.5 250t-192.5 66q-164 0 -219 -73t-55 -241z" />
<glyph unicode="&#x432;" horiz-adv-x="1136" d="M156 -2v999q156 12 417 13q238 0 330 -55.5t92 -211.5q0 -106 -51 -162.5t-164 -64.5v-6q135 -10 192.5 -74.5t57.5 -187.5q0 -152 -90 -207t-311 -55q-299 0 -473 12zM342 143l256 -2q133 0 183 30t50 118t-54 121.5t-189 33.5h-246v-301zM342 586h246q123 0 171 28.5 t48 110.5q0 78 -53.5 104.5t-190.5 26.5h-221v-270z" />
<glyph unicode="&#x433;" horiz-adv-x="956" d="M152 0v784q0 221 227 222q371 0 534 -19l-6 -139h-444q-59 0 -87 -27.5t-28 -89.5v-731h-196z" />
<glyph unicode="&#x434;" horiz-adv-x="1216" d="M57 160h121q117 250 141 602q16 238 267 237h418v-839h143v-455h-131l-17 295h-794l-17 -295h-131v455zM354 160h461v686h-197q-111 0 -120 -117q-25 -350 -144 -569z" />
<glyph unicode="&#x435;" horiz-adv-x="1112" d="M109 502q0 291 108.5 407.5t355.5 116.5q227 0 332 -84t107 -252q0 -287 -244 -287h-449q14 -156 81 -209t218 -53q133 0 351 25l18 -131q-135 -59 -395 -60q-262 0 -372.5 120t-110.5 407zM315 557h400q100 0 96 133q0 92 -50 130t-177 38q-150 0 -206.5 -62.5 t-62.5 -238.5z" />
<glyph unicode="&#x436;" horiz-adv-x="1628" d="M66 0q29 86 44 126t38.5 102.5t38 89t39 66.5t45 56.5t50 36t62.5 28.5t74 13v6q-43 4 -79 19.5t-61.5 29t-54.5 54.5t-43 61.5t-41.5 89t-38 98t-45.5 123.5h199q35 -96 55.5 -146t50 -109.5t56 -86t64.5 -45t83 -18.5h137q-10 61 -10 115v290h176v-290q0 -70 -10 -115 h129q109 0 166 86t143 319h201q-35 -94 -45 -123.5t-38 -98t-42 -89t-43 -61.5t-54.5 -54.5t-61.5 -29t-79 -19.5v-6q55 -6 95.5 -19.5t76 -48t58 -63.5t53.5 -100.5t49.5 -122.5t59.5 -164h-203q-106 279 -150 344q-66 98 -178 100h-137q10 -55 10 -94v-350h-176v350 q0 39 10 94h-145q-106 -2 -160.5 -80.5t-152.5 -326.5q-10 -25 -15 -37h-200z" />
<glyph unicode="&#x437;" horiz-adv-x="1026" d="M76 14l14 150q197 -16 379 -17q143 0 193.5 29t50.5 113q0 86 -52.5 116.5t-189.5 30.5h-248v146h246q127 0 171 29.5t44 113.5q0 76 -53 100.5t-203 24.5q-178 0 -303 -16l-16 149q129 35 315 35q258 0 357.5 -54.5t99.5 -213.5q0 -113 -47.5 -168.5t-161.5 -65.5v-6 q131 -10 188.5 -72.5t57.5 -189.5q0 -158 -97.5 -212t-337.5 -54q-248 0 -407 32z" />
<glyph unicode="&#x438;" horiz-adv-x="1204" d="M158 0v999h176v-634q0 -61 -6 -136h6q39 78 69 119l484 651h160v-999h-179v633q0 27 3 75t3 64h-4q-20 -55 -71 -123l-482 -649h-159z" />
<glyph unicode="&#x439;" horiz-adv-x="1204" d="M158 0v999h176v-634q0 -61 -6 -136h6q39 78 69 119l484 651h160v-999h-179v633q0 27 3 75t3 64h-4q-20 -55 -71 -123l-482 -649h-159zM283 1442h149q0 -178 166 -178q160 0 160 178h149q10 -123 -76 -205t-233 -82q-152 0 -239 82t-76 205z" />
<glyph unicode="&#x43a;" horiz-adv-x="1105" d="M158 0v999h196v-288q0 -53 -10 -115h125q131 0 194.5 87t143.5 316h205q-35 -92 -47.5 -125.5t-40 -99t-44 -88t-44 -61.5t-54 -53.5t-63.5 -29t-82 -20.5v-4q49 -6 87 -19.5t67.5 -28.5t58.5 -53t48.5 -68t46 -94.5t44 -111.5t51.5 -143h-206q-39 102 -56.5 146 t-46.5 108.5t-49 89.5t-52 53.5t-67 36.5t-82 8h-137q10 -51 10 -92v-350h-196z" />
<glyph unicode="&#x43b;" horiz-adv-x="1161" d="M39 141q80 18 115.5 46t58.5 85q47 125 82 486q14 123 78.5 182t193.5 59h437v-999h-199v846h-201q-61 0 -86.5 -26.5t-36.5 -96.5q-49 -381 -92 -506q-74 -233 -330 -227z" />
<glyph unicode="&#x43c;" horiz-adv-x="1542" d="M135 0l39 926q0 74 76 73h201q57 0 75 -63l189 -551q23 -66 39 -143h30q4 16 17.5 66t21.5 77l189 551q23 63 78 63h202q74 0 74 -73l41 -926h-184l-37 850h-33l-233 -674q-18 -63 -76 -63h-150q-55 0 -78 63l-231 674h-33l-35 -850h-182z" />
<glyph unicode="&#x43d;" horiz-adv-x="1198" d="M158 0v999h194v-393h494v393h196v-999h-196v455h-494v-455h-194z" />
<glyph unicode="&#x43e;" horiz-adv-x="1173" d="M109 498q0 287 109.5 407.5t369.5 120.5t368.5 -121t108.5 -407.5t-108.5 -405.5t-368.5 -119q-262 0 -370.5 120t-108.5 405zM317 498q0 -207 57.5 -283t213.5 -76q154 0 212 76t58 283q0 209 -57.5 284.5t-213 75.5t-213 -75.5t-57.5 -284.5z" />
<glyph unicode="&#x43f;" horiz-adv-x="1181" d="M158 0v999h866v-999h-193v840h-481v-840h-192z" />
<glyph unicode="&#x440;" horiz-adv-x="1202" d="M158 -408v1407h164l14 -153q78 82 191.5 131t222.5 49q178 0 260 -134t82 -398q0 -283 -92.5 -401t-290.5 -118q-201 0 -361 101q8 -102 6 -203v-281h-196zM354 201q203 -53 303 -54q129 0 179.5 71t50.5 278q0 199 -46 278.5t-159 79.5q-74 0 -148 -33.5t-180 -111.5 v-508z" />
<glyph unicode="&#x441;" horiz-adv-x="1013" d="M109 499.5q0 288.5 108.5 407.5t370.5 119q199 0 330 -51l-25 -127q-154 10 -272 10q-172 0 -238 -75.5t-66 -282.5t66 -283t238 -76q167 0 294 23l21 -133q-154 -55 -350 -56q-262 0 -369.5 118t-107.5 406.5z" />
<glyph unicode="&#x442;" horiz-adv-x="1011" d="M53 838v161h908v-161h-355v-838h-198v838h-355z" />
<glyph unicode="&#x443;" horiz-adv-x="1097" d="M37 999h211l248 -727q29 -76 36 -122h29q4 14 13.5 40.5t15.5 46t12 35.5l246 727h213l-389 -1046q-74 -209 -189 -297q-137 -102 -391 -66l19 140q160 -12 239 41q78 55 137 192l15 37h-43q-53 0 -70 51z" />
<glyph unicode="&#x444;" horiz-adv-x="1480" d="M106 498q0 268 124 390t419 136v410h182v-410q295 -14 419 -136t124 -390q0 -266 -125 -386t-418 -135v-385h-182v385q-293 14 -418 134t-125 387zM299 498q0 -188 78.5 -266.5t277.5 -88.5v713q-201 -10 -278.5 -89t-77.5 -269zM825 143q199 10 278 88t79 267 q0 190 -78 269t-279 89v-713z" />
<glyph unicode="&#x445;" horiz-adv-x="1097" d="M45 0l326 516l-301 483h213l243 -403h45l244 403h213l-301 -483l326 -516h-215l-271 442h-37l-270 -442h-215z" />
<glyph unicode="&#x446;" horiz-adv-x="1226" d="M158 0v999h194v-839h465v839h197v-839h141v-455h-131l-18 295h-848z" />
<glyph unicode="&#x447;" horiz-adv-x="1099" d="M109 561v438h194v-370q0 -70 29.5 -98.5t99.5 -28.5q156 0 311 61v436h197v-999h-197v408q-197 -68 -376 -68q-258 0 -258 221z" />
<glyph unicode="&#x448;" horiz-adv-x="1660" d="M158 0v999h190v-839h391v839h179v-839h393v839h192v-999h-1345z" />
<glyph unicode="&#x449;" horiz-adv-x="1718" d="M158 0v999h190v-839h393v839h177v-839h395v839h190v-839h144v-455h-131l-19 295h-1339z" />
<glyph unicode="&#x44a;" horiz-adv-x="1298" d="M51 844v155h539v-376h215q233 0 321 -69t88 -251q0 -180 -87 -247.5t-293 -67.5q-276 0 -437 12v844h-346zM590 145l215 -2q119 0 163 34t44 134q0 94 -43 130t-164 36h-215v-332z" />
<glyph unicode="&#x44b;" horiz-adv-x="1497" d="M158 0v999h190v-376h219q231 0 317.5 -69t86.5 -251q0 -180 -84 -247.5t-287 -67.5q-279 0 -438 12h-4zM348 145l219 -2q117 0 160 34t43 134q0 94 -42 130t-161 36h-219v-332zM1141 0v999h198v-999h-198z" />
<glyph unicode="&#x44c;" horiz-adv-x="1060" d="M158 0v999h190v-376h219q233 0 321.5 -69t88.5 -251q0 -180 -85 -247.5t-292 -67.5q-279 0 -438 12h-4zM348 145l219 -2q121 0 165 34t44 134q0 94 -44 130t-165 36h-219v-332z" />
<glyph unicode="&#x44d;" horiz-adv-x="1046" d="M82 20l18 140q150 -12 338 -13q160 0 224.5 60.5t72.5 226.5h-506v150h504q-12 152 -77.5 209t-217.5 55q-192 0 -325 -10l-21 137q133 39 346 39q276 0 387 -115t111 -405q0 -285 -110.5 -401t-387.5 -116q-213 0 -356 43z" />
<glyph unicode="&#x44e;" horiz-adv-x="1640" d="M158 0v999h196v-407h244q12 246 113.5 340t339.5 94q268 0 373.5 -111.5t105.5 -412.5q0 -297 -105.5 -408.5t-373.5 -111.5q-244 0 -345.5 98t-109.5 358h-242v-438h-196zM784 502q0 -203 55.5 -279t207.5 -76q158 0 217 76t61 279q-2 205 -61.5 280.5t-216.5 75.5 q-152 0 -207.5 -74.5t-55.5 -281.5z" />
<glyph unicode="&#x44f;" horiz-adv-x="1120" d="M76 0l90 301q30 109 192 127v8q-119 18 -171 86t-52 191q0 154 84 226.5t297 72.5q301 0 449 -15v-997h-195v365h-258q-131 0 -158 -97l-73 -268h-205zM328 684q0 -98 39 -135t157 -37h246v340h-250q-119 0 -155.5 -34t-36.5 -134z" />
<glyph unicode="&#x451;" horiz-adv-x="1112" d="M109 502q0 291 108.5 407.5t355.5 116.5q227 0 332 -84t107 -252q0 -287 -244 -287h-449q14 -156 81 -209t218 -53q133 0 351 25l18 -131q-135 -59 -395 -60q-262 0 -372.5 120t-110.5 407zM309 1253v111q0 55 53 55h68q51 0 51 -55v-111q0 -53 -51 -53h-68q-53 0 -53 53 zM315 557h400q100 0 96 133q0 92 -50 130t-177 38q-150 0 -206.5 -62.5t-62.5 -238.5zM672 1253v111q0 55 55 55h66q53 0 53 -55v-111q0 -53 -53 -53h-66q-55 0 -55 53z" />
<glyph unicode="&#x452;" horiz-adv-x="1206" d="M53 1006v112h152v316h198v-316h369v-112h-369v-156q0 -88 -10 -174q219 152 430 151q274 0 275 -274v-553h-199v496q0 86 -36 120.5t-126 34.5q-127 0 -336 -121v-530h-196v1006h-152z" />
<glyph unicode="&#x453;" horiz-adv-x="956" d="M152 0v784q0 221 227 222q371 0 534 -19l-6 -139h-444q-59 0 -87 -27.5t-28 -89.5v-731h-196zM410 1210l362 301l113 -151l-408 -240z" />
<glyph unicode="&#x454;" horiz-adv-x="1046" d="M111 494q0 291 110.5 405.5t386.5 114.5q213 0 346 -39l-20 -137q-133 10 -326 10q-152 2 -217 -55.5t-78 -208.5h506v-150h-508q8 -166 73 -226.5t224 -60.5q188 1 338 13l19 -140q-143 -43 -357 -43q-276 0 -386.5 116t-110.5 401z" />
<glyph unicode="&#x455;" horiz-adv-x="1050" d="M102 748q0 166 88.5 223t305.5 55q240 -4 426 -35l-15 -143q-317 10 -381 10q-145 0 -189 -17.5t-44 -92.5q0 -35 6 -56.5t31.5 -36t40 -19.5t65.5 -20l283 -69q125 -33 179 -94.5t54 -186.5q0 -176 -97 -232.5t-337 -56.5q-209 0 -397 29l14 148q113 -10 340 -11 q168 0 226.5 23.5t58.5 99.5q0 33 -8.5 54.5t-35 36t-42 19.5t-66.5 17l-278 70q-125 33 -176.5 97.5t-51.5 187.5z" />
<glyph unicode="&#x456;" horiz-adv-x="526" d="M158 1253v115q0 57 59 57h94q57 0 58 -57v-115q0 -59 -58 -59h-94q-59 0 -59 59zM166 0v999h196v-999h-196z" />
<glyph unicode="&#x457;" horiz-adv-x="526" d="M-4 1253v111q0 55 53 55h66q53 0 53 -55v-111q0 -53 -53 -53h-66q-53 0 -53 53zM166 0v999h196v-999h-196zM358 1253v111q1 55 56 55h63q55 0 55 -55v-111q0 -53 -55 -53h-63q-55 0 -56 53z" />
<glyph unicode="&#x458;" horiz-adv-x="528" d="M53 -328q113 141 113 318v1009h199v-1009q0 -123 -54.5 -229.5t-148.5 -174.5zM160 1253v115q0 57 59 57h92q59 0 60 -57v-115q0 -59 -60 -59h-92q-59 0 -59 59z" />
<glyph unicode="&#x459;" horiz-adv-x="1656" d="M55 129q119 39 164 127q39 78 56.5 177t46.5 360q23 207 239 206h393v-374h213q231 0 318.5 -69t87.5 -251q0 -184 -87 -250.5t-296 -66.5q-264 0 -424 12v850h-150q-57 0 -82.5 -20.5t-31.5 -73.5q-43 -401 -103 -551q-43 -113 -131 -165t-196 -46zM954 143h205 q123 0 168 33t45 137q0 96 -43 132t-162 36h-213v-338z" />
<glyph unicode="&#x45a;" horiz-adv-x="1669" d="M158 0v999h182v-376h438v376h187v-376h215q233 0 319 -68t86 -250t-85 -249.5t-290 -67.5q-272 0 -432 12v479h-438v-479h-182zM965 143h215q117 0 160.5 34t43.5 136q0 94 -42 130t-162 36h-215v-336z" />
<glyph unicode="&#x45b;" horiz-adv-x="1206" d="M53 1006v112h152v316h198v-316h369v-112h-369v-156q0 -88 -10 -174q219 152 430 151q270 0 275 -274v-563q0 -123 -54.5 -229.5t-148.5 -174.5l-111 86q115 137 115 316v508q0 86 -36 120.5t-126 34.5q-127 0 -336 -121v-530h-196v1006h-152z" />
<glyph unicode="&#x45c;" horiz-adv-x="1105" d="M158 0v999h196v-288q0 -53 -10 -115h125q131 0 194.5 87t143.5 316h205q-35 -92 -47.5 -125.5t-40 -99t-44 -88t-44 -61.5t-54 -53.5t-63.5 -29t-82 -20.5v-4q49 -6 87 -19.5t67.5 -28.5t58.5 -53t48.5 -68t46 -94.5t44 -111.5t51.5 -143h-206q-39 102 -56.5 146 t-46.5 108.5t-49 89.5t-52 53.5t-67 36.5t-82 8h-137q10 -51 10 -92v-350h-196zM432 1210l363 301l112 -151l-409 -240z" />
<glyph unicode="&#x45d;" horiz-adv-x="1204" d="M158 0v999h176v-634q0 -61 -6 -136h6q39 78 69 119l484 651h160v-999h-179v633q0 27 3 75t3 64h-4q-20 -55 -71 -123l-482 -649h-159zM229 1360l111 151l362 -301l-65 -90z" />
<glyph unicode="&#x45e;" horiz-adv-x="1097" d="M37 999h211l248 -727q29 -76 36 -122h29q4 14 13.5 40.5t15.5 46t12 35.5l246 727h213l-389 -1046q-74 -209 -189 -297q-137 -102 -391 -66l19 140q160 -12 239 41q78 55 137 192l15 37h-43q-53 0 -70 51zM233 1444h150q0 -180 166 -180q160 0 160 180h149 q10 -123 -76 -206t-233 -83q-152 0 -239 83t-77 206z" />
<glyph unicode="&#x45f;" horiz-adv-x="1191" d="M158 0v999h198v-839h482v839h198v-999h-358l-16 -338h-134l-16 338h-354z" />
<glyph unicode="&#x490;" horiz-adv-x="1075" d="M168 0v1139q0 123 74.5 200.5t191.5 77.5q301 0 445 -14l22 321h133v-342l-8 -141h-522q-72 0 -101.5 -30.5t-29.5 -110.5v-1100h-205z" />
<glyph unicode="&#x491;" horiz-adv-x="960" d="M154 0v784q0 221 227 222q260 0 385 -7l20 299h132v-311l-9 -139h-446q-113 0 -113 -117v-731h-196z" />
<glyph unicode="&#x4b0;" horiz-adv-x="1198" d="M31 1413h219l282 -579q16 -35 62 -164h16q31 100 62 161l282 582h213l-424 -844h261v-120h-302v-449h-204v449h-301v120h262z" />
<glyph unicode="&#x4b1;" horiz-adv-x="1204" d="M33 999h217l282 -573q29 -61 62 -162h16q33 100 62 162l282 573h217l-428 -839h265v-125h-303v-443h-203v443h-305v125h264z" />
<glyph unicode="&#x4b6;" horiz-adv-x="1349" d="M119 831v582h207v-541q-4 -98 42 -142t152 -44q184 0 395 98v629h205v-1272h168v-450h-139l-21 309h-213v621q-233 -113 -466 -113q-168 0 -249 80t-81 243z" />
<glyph unicode="&#x4b7;" horiz-adv-x="1155" d="M109 561v438h194v-370q0 -70 29.5 -98.5t99.5 -28.5q156 0 311 61v436h197v-839h143v-455h-131l-18 295h-191v408q-197 -68 -376 -68q-258 0 -258 221z" />
<glyph unicode="&#x4ba;" horiz-adv-x="1290" d="M172 0v1413h205v-620q225 113 465 112q168 0 248.5 -80t80.5 -243v-582h-204v541q2 98 -44 142t-153 44q-195 0 -393 -98v-629h-205z" />
<glyph unicode="&#x4c0;" horiz-adv-x="550" d="M174 0v1413h205v-1413h-205z" />
<glyph unicode="&#x1e80;" horiz-adv-x="1947" d="M61 1413h218l202 -1077q6 -35 25 -180h47q10 88 31 180l202 1010q14 68 78 67h219q29 0 50.5 -19.5t27.5 -47.5l201 -1012q16 -82 31 -178h47q4 29 12 88t14 88l203 1081h217l-270 -1354q-18 -59 -80 -59h-227q-66 0 -80 61l-205 1039q-20 106 -29 160h-43l-30 -160 l-203 -1039q-4 -27 -27.5 -44t-52.5 -17h-229q-63 0 -78 59zM608 1724l111 154l362 -301l-65 -92z" />
<glyph unicode="&#x1e81;" horiz-adv-x="1691" d="M47 999h205l192 -720q25 -102 31 -154h27l35 154l147 659q14 61 74 61h178q59 0 74 -63l145 -657q4 -20 35 -154h27q14 92 30 154l193 720h205l-281 -944q-16 -55 -76 -55h-178q-61 0 -76 63l-145 658q-4 18 -9.5 50t-10.5 58.5t-11 51.5h-24l-33 -160l-144 -658 q-14 -63 -77 -63h-177q-61 0 -73 55zM479 1360l113 151l362 -301l-67 -90z" />
<glyph unicode="&#x1e82;" horiz-adv-x="1947" d="M61 1413h218l202 -1077q6 -35 25 -180h47q10 88 31 180l202 1010q14 68 78 67h219q29 0 50.5 -19.5t27.5 -47.5l201 -1012q16 -82 31 -178h47q4 29 12 88t14 88l203 1081h217l-270 -1354q-18 -59 -80 -59h-227q-66 0 -80 61l-205 1039q-20 106 -29 160h-43l-30 -160 l-203 -1039q-4 -27 -27.5 -44t-52.5 -17h-229q-63 0 -78 59zM836 1577l360 301l113 -154l-408 -239z" />
<glyph unicode="&#x1e83;" horiz-adv-x="1691" d="M47 999h205l192 -720q25 -102 31 -154h27l35 154l147 659q14 61 74 61h178q59 0 74 -63l145 -657q4 -20 35 -154h27q14 92 30 154l193 720h205l-281 -944q-16 -55 -76 -55h-178q-61 0 -76 63l-145 658q-4 18 -9.5 50t-10.5 58.5t-11 51.5h-24l-33 -160l-144 -658 q-14 -63 -77 -63h-177q-61 0 -73 55zM707 1210l362 301l111 -151l-408 -240z" />
<glyph unicode="&#x1e84;" horiz-adv-x="1947" d="M61 1413h218l202 -1077q6 -35 25 -180h47q10 88 31 180l202 1010q14 68 78 67h219q29 0 50.5 -19.5t27.5 -47.5l201 -1012q16 -82 31 -178h47q4 29 12 88t14 88l203 1081h217l-270 -1354q-18 -59 -80 -59h-227q-66 0 -80 61l-205 1039q-20 106 -29 160h-43l-30 -160 l-203 -1039q-4 -27 -27.5 -44t-52.5 -17h-229q-63 0 -78 59zM709 1620v111q0 55 51 55h67q51 0 52 -55v-111q0 -55 -52 -55h-67q-51 0 -51 55zM1071 1620v111q0 55 53 55h66q53 0 53 -55v-111q0 -55 -53 -55h-66q-53 0 -53 55z" />
<glyph unicode="&#x1e85;" horiz-adv-x="1691" d="M47 999h205l192 -720q25 -102 31 -154h27l35 154l147 659q14 61 74 61h178q59 0 74 -63l145 -657q4 -20 35 -154h27q14 92 30 154l193 720h205l-281 -944q-16 -55 -76 -55h-178q-61 0 -76 63l-145 658q-4 18 -9.5 50t-10.5 58.5t-11 51.5h-24l-33 -160l-144 -658 q-14 -63 -77 -63h-177q-61 0 -73 55zM580 1253v111q0 55 53 55h65q53 0 54 -55v-111q0 -55 -54 -55h-65q-53 0 -53 55zM942 1253v111q0 55 53 55h66q55 0 55 -55v-111q0 -55 -55 -55h-66q-53 0 -53 55z" />
<glyph unicode="&#x1ef2;" horiz-adv-x="1175" d="M18 1413h218l284 -579q16 -35 62 -164h14q43 127 61 161l285 582h213l-465 -924v-489h-205v492zM219 1726l113 152l360 -299l-65 -92z" />
<glyph unicode="&#x1ef3;" horiz-adv-x="1091" d="M33 999h213l248 -727q25 -63 34 -122h29q20 55 41 122l246 727h213l-387 -1046q-139 -369 -459 -373l-21 131q117 35 184.5 96.5t108.5 155.5l15 37h-41q-57 0 -70 51zM182 1360l113 151l362 -301l-67 -90z" />
<glyph unicode="&#x2000;" horiz-adv-x="961" />
<glyph unicode="&#x2001;" horiz-adv-x="1923" />
<glyph unicode="&#x2002;" horiz-adv-x="961" />
<glyph unicode="&#x2003;" horiz-adv-x="1923" />
<glyph unicode="&#x2004;" horiz-adv-x="641" />
<glyph unicode="&#x2005;" horiz-adv-x="480" />
<glyph unicode="&#x2006;" horiz-adv-x="320" />
<glyph unicode="&#x2007;" horiz-adv-x="320" />
<glyph unicode="&#x2008;" horiz-adv-x="240" />
<glyph unicode="&#x2009;" horiz-adv-x="384" />
<glyph unicode="&#x200a;" horiz-adv-x="106" />
<glyph unicode="&#x2010;" horiz-adv-x="905" d="M141 442v152h623v-152h-623z" />
<glyph unicode="&#x2011;" horiz-adv-x="905" d="M141 442v152h623v-152h-623z" />
<glyph unicode="&#x2012;" horiz-adv-x="905" d="M141 442v152h623v-152h-623z" />
<glyph unicode="&#x2013;" horiz-adv-x="1200" d="M141 442v152h918v-152h-918z" />
<glyph unicode="&#x2014;" horiz-adv-x="1820" d="M141 442v152h1536v-152h-1536z" />
<glyph unicode="&#x2018;" horiz-adv-x="452" d="M127 1073v119q2 170 78 301l92 -25q-20 -109 -21 -229q57 0 54 -57v-109q-2 -39 -18.5 -53t-57.5 -14h-57q-39 0 -54.5 14t-15.5 53z" />
<glyph unicode="&#x2019;" horiz-adv-x="446" d="M119 1303v110q2 37 19.5 51.5t56.5 14.5h57q41 0 56.5 -14.5t15.5 -51.5v-121q-2 -162 -78 -301l-94 25q23 106 22 229q-55 0 -55 58z" />
<glyph unicode="&#x201a;" horiz-adv-x="475" d="M135 59v111q2 66 76 66h57q41 0 56.5 -14.5t15.5 -51.5v-121q-2 -164 -78 -301l-94 25q23 123 22 229q-55 0 -55 57z" />
<glyph unicode="&#x201c;" horiz-adv-x="780" d="M127 1073v119q2 170 78 301l92 -25q-20 -109 -21 -229q57 0 54 -57v-109q-2 -39 -18.5 -53t-57.5 -14h-57q-39 0 -54.5 14t-15.5 53zM455 1073v119q2 164 77 301l95 -25q-23 -104 -23 -229q57 0 53 -57v-109q-2 -39 -18 -53t-57 -14h-58q-39 0 -54 14t-15 53z" />
<glyph unicode="&#x201d;" horiz-adv-x="774" d="M119 1303v110q2 37 19.5 51.5t56.5 14.5h57q41 0 56.5 -14.5t15.5 -51.5v-121q-2 -162 -78 -301l-94 25q23 106 22 229q-55 0 -55 58zM446 1303v110q2 37 19.5 51.5t56.5 14.5h60q39 0 54 -14.5t15 -51.5v-121q-2 -162 -78 -301l-94 25q23 106 23 229q-55 0 -56 58z" />
<glyph unicode="&#x201e;" horiz-adv-x="802" d="M135 59v111q2 37 19.5 51.5t56.5 14.5h57q41 0 56.5 -14.5t15.5 -51.5v-121q-2 -164 -78 -301l-94 25q23 123 22 229q-55 0 -55 57zM463 59v111q2 37 19.5 51.5t56.5 14.5h57q41 0 56.5 -14.5t15.5 -51.5v-121q-2 -164 -78 -301l-94 25q23 123 22 229q-55 0 -55 57z" />
<glyph unicode="&#x2020;" horiz-adv-x="935" d="M82 827v172h266v-149zM379 1415h180l-10 -424v-1216h-162v1216zM588 850v149h266v-172z" />
<glyph unicode="&#x2021;" horiz-adv-x="1013" d="M121 190v172l266 -22v-150h-266zM121 827v172h266v-149zM418 -225l8 415v805l-8 420h178l-8 -420v-805l8 -415h-178zM627 190v150l266 22v-172h-266zM627 850v149h266v-172z" />
<glyph unicode="&#x2022;" horiz-adv-x="747" d="M180 539v26q0 98 40.5 137t144.5 39h26q98 0 137 -38.5t39 -137.5v-26q0 -104 -39 -144.5t-137 -40.5h-26q-104 0 -144.5 40t-40.5 145z" />
<glyph unicode="&#x2026;" horiz-adv-x="1761" d="M127 74v108q0 39 16.5 55.5t55.5 16.5h65q39 0 55.5 -16.5t16.5 -55.5v-108q0 -41 -15.5 -57.5t-56.5 -16.5h-65q-41 0 -56.5 16.5t-15.5 57.5zM768 74v108q0 39 15.5 55.5t56.5 16.5h65q41 0 57.5 -15.5t16.5 -56.5v-108q0 -41 -16.5 -57.5t-57.5 -16.5h-65 q-41 0 -56.5 16.5t-15.5 57.5zM1409 74v108q0 39 16.5 55.5t57.5 16.5h65q41 0 56.5 -16.5t15.5 -55.5v-108q0 -41 -15.5 -57.5t-56.5 -16.5h-65q-41 0 -57.5 16.5t-16.5 57.5z" />
<glyph unicode="&#x202f;" horiz-adv-x="384" />
<glyph unicode="&#x2030;" horiz-adv-x="2605" d="M90 1020q0 229 75 324.5t259 95.5t259 -95.5t75 -324.5q0 -227 -75 -323.5t-259 -96.5t-259 96.5t-75 323.5zM242 1020q0 -170 38.5 -233.5t141.5 -63.5q106 0 144 62.5t38 234.5q0 170 -39 233.5t-143 63.5q-102 0 -141 -63.5t-39 -233.5zM393 0l903 1413h140 l-904 -1413h-139zM1077 399q0 227 75 323.5t259 96.5q182 0 257 -96t75 -324q0 -229 -75 -324t-257 -95q-184 0 -259 95t-75 324zM1229 399q-2 -168 37 -232.5t143 -64.5t143 64.5t39 232.5q0 170 -39 232.5t-143 62.5t-143 -63.5t-37 -231.5zM1845 399q0 227 74 323.5 t258 96.5t258 -96t74 -324q0 -229 -74 -324t-258 -95t-258 95t-74 324zM1995 399q0 -168 39 -232.5t141 -64.5q104 0 144 64.5t40 232.5q0 170 -39 232.5t-145 62.5q-102 0 -141 -63.5t-39 -231.5z" />
<glyph unicode="&#x2039;" horiz-adv-x="606" d="M80 492v45l328 405l104 -68l-250 -360l252 -367l-104 -69z" />
<glyph unicode="&#x203a;" horiz-adv-x="610" d="M92 147l252 367l-250 360l107 68l327 -405v-45l-329 -414z" />
<glyph unicode="&#x2044;" horiz-adv-x="327" d="M-358 0l903 1413h139l-901 -1413h-141z" />
<glyph unicode="&#x205f;" horiz-adv-x="480" />
<glyph unicode="&#x20ac;" horiz-adv-x="1304" d="M102 528v121h162v58q0 59 2 86h-162v120h170q31 266 164 395.5t398 129.5q184 0 342 -41l-21 -162q-164 29 -334 18q-147 -6 -227 -89t-104 -251h507l-14 -120h-506q0 -14 -1 -44t-1 -47l2 -53h445l-15 -121h-422q20 -184 100.5 -274t235.5 -94q193 -11 359 22l22 -157 q-154 -49 -368 -50q-270 0 -403.5 135.5t-160.5 417.5h-170z" />
<glyph unicode="&#x2122;" horiz-adv-x="1980" d="M133 1309v116h670v-116h-264v-662h-142v662h-264zM899 647l31 723q4 55 53 55h145q39 0 56 -45l143 -432q4 -14 13.5 -52t15.5 -58h20q6 18 15.5 56t15.5 56l139 430q14 45 58 45h147q51 0 53 -55l31 -723h-131l-31 670h-24l-172 -529q-16 -45 -60 -45h-102q-43 0 -60 45 l-172 529h-24l-29 -670h-131z" />
<glyph unicode="&#x25fc;" horiz-adv-x="1003" d="M0 0v1004h1004v-1004h-1004z" />
</font>
</defs>
</svg>
