<svg xmlns="http://www.w3.org/2000/svg" width="119" height="33" viewBox="0 0 119 33">
  <defs>
    <style>
      .cls-1 {
        fill: #8e9197;
        fill-rule: evenodd;
      }
    </style>
  </defs>
  <path id="Kiselev_logo" data-name="Kiselev logo" class="cls-1" d="M15.194,14.923c2.466-3.653,6.375-12.488,8.537-12.488a1.079,1.079,0,0,1,1.278.919c0,1.319-1.368,1.826-1.368,3.433A3.812,3.812,0,0,0,27.59,10.63,3.858,3.858,0,0,0,31.428,6.76c0-2.14-1.7-5.988-8.287-5.988-9.761,0-11.68,13.183-15.664,13.183v-12H0.353V32.438H7.476V17.775c2,0,3.742,3.988,6.763,9.66,1.018,1.912,2.363,5.026,6.106,5.026,2.2,0,3.48-.94,4.858-2.692a5.984,5.984,0,0,0,5.089,2.692c5.646,0,7.025-5.221,10.932-14.3,0-.033.032-0.033,0.066-0.033a0.171,0.171,0,0,1,.1.067,8.871,8.871,0,0,1,1.806,4.927c0,2.269-.46,4.279-3.053,4.279a11.9,11.9,0,0,1-1.514-.153l-1.247,4.28s1.843,0.931,6.11.931a28.453,28.453,0,0,0,11.129-2.692,8.565,8.565,0,0,0,6.271,2.692,10.7,10.7,0,0,0,9.192-4.994c0.426,3.827,3.922,4.969,6.843,4.969a11.354,11.354,0,0,0,6.353-1.758,8.487,8.487,0,0,0,5.286,1.814c4.76,0,8.469-3.436,9.29-5.218,0.919,3.436,3.972,5.187,7.946,5.187,7.155,0,9.06-4.994,9.06-10.244a55.089,55.089,0,0,0-.445-5.824c0.356,0.3,4.029,1.105,4.029-2.134a2.176,2.176,0,0,0-2.165-2.059h-9.5a50.68,50.68,0,0,1,1.477,10.211c0,2.853-.59,5.188-2.461,5.188-0.493,0-1.314-.228-1.314-1.88V12.2h-6.73v9.109c0,2.236-3.822,6.39-7.58,6.39a4.812,4.812,0,0,1-2.489-.426c3.281-2.252,7.672-5.383,7.672-10.406,0-3.015-2.4-5.609-6.7-5.609-5.023,0-9.159,3.665-9.159,9.922a13.114,13.114,0,0,0,1.313,6.158,4.133,4.133,0,0,1-2.135.487,1.959,1.959,0,0,1-1.9-2.2V1.955h-6.73V21.308c0,2.236-3.841,6.289-7.681,6.289a6.133,6.133,0,0,1-2.659-.453c4.661-2.691,7.944-6.42,7.944-10.277,0-3.015-2.363-5.609-6.664-5.609-5.056,0-9.159,3.665-9.159,9.922a15.449,15.449,0,0,0,.853,5.381A12.048,12.048,0,0,1,49.07,27.7,10.681,10.681,0,0,0,50,23.126c0-3.014-1.657-7.07-5.629-10.927H38.926c-3.217,8.428-5.515,14.3-7.124,14.3-0.722,0-.985-0.519-0.985-1.395V12.2H24.35V25.846c0,0.877-.23,1.2-0.788,1.2-2.18,0-5.757-9.982-8.36-12.043A0.059,0.059,0,0,1,15.194,14.923Zm70.545,9.309a15.379,15.379,0,0,1-.1-1.855c0-2.626.623-6.289,2.265-6.289a1.372,1.372,0,0,1,1.313,1.557c0,2.041-1.345,4.674-3.479,6.587h0ZM58.1,23.811A20.971,20.971,0,0,1,58,21.7c0-2.625.689-5.609,2.2-5.609a1.356,1.356,0,0,1,1.313,1.557A8.4,8.4,0,0,1,58.1,23.811Z"/>
</svg>
