<?xml version="1.0" encoding="utf-8"?>
<!-- Generator: Adobe Illustrator 19.2.1, SVG Export Plug-In . SVG Version: 6.00 Build 0)  -->
<svg version="1.1" id="Шар_1" xmlns="http://www.w3.org/2000/svg" xmlns:xlink="http://www.w3.org/1999/xlink" x="0px" y="0px"
	 viewBox="0 0 124.3 27" style="enable-background:new 0 0 124.3 27;" xml:space="preserve">
<style type="text/css">
	.st0{enable-background:new    ;}
	.st1{fill:#8E9197;}
</style>
<g class="st0">
	<path class="st1" d="M1,14l3.8-0.4c0.2,1.3,0.7,2.2,1.4,2.8C6.9,17,7.8,17.3,9,17.3c1.3,0,2.2-0.3,2.8-0.8c0.6-0.5,1-1.2,1-1.9
		c0-0.5-0.1-0.8-0.4-1.2s-0.7-0.6-1.4-0.8c-0.5-0.2-1.5-0.4-3.1-0.8c-2.1-0.5-3.6-1.2-4.4-1.9C2.3,8.9,1.7,7.6,1.7,6
		c0-1,0.3-1.9,0.8-2.8s1.4-1.5,2.4-2c1-0.4,2.3-0.7,3.8-0.7c2.4,0,4.2,0.5,5.5,1.6c1.2,1.1,1.9,2.5,1.9,4.3l-3.9,0.2
		c-0.2-1-0.5-1.7-1.1-2.1c-0.5-0.4-1.4-0.7-2.5-0.7c-1.1,0-2,0.2-2.7,0.7C5.6,4.9,5.4,5.3,5.4,5.8c0,0.5,0.2,0.8,0.6,1.2
		c0.5,0.4,1.7,0.8,3.6,1.3c1.9,0.4,3.3,0.9,4.2,1.4s1.6,1.1,2.1,2c0.5,0.8,0.8,1.9,0.8,3.1c0,1.1-0.3,2.1-0.9,3.1
		c-0.6,1-1.5,1.7-2.6,2.2c-1.1,0.5-2.5,0.7-4.2,0.7c-2.4,0-4.3-0.6-5.6-1.7C2,17.8,1.2,16.2,1,14z"/>
	<path class="st1" d="M19.9,4.4V1h3.7v3.4H19.9z M19.9,20.3v-14h3.7v14H19.9z"/>
	<path class="st1" d="M27.1,6.3h3.4v1.9C31.8,6.7,33.2,6,34.9,6c0.9,0,1.7,0.2,2.3,0.6c0.7,0.4,1.2,0.9,1.6,1.7
		c0.6-0.7,1.3-1.3,2-1.7S42.3,6,43.1,6c1,0,1.9,0.2,2.6,0.6c0.7,0.4,1.2,1,1.6,1.8c0.3,0.6,0.4,1.6,0.4,2.9v8.9H44v-8
		c0-1.4-0.1-2.3-0.4-2.7c-0.3-0.5-0.9-0.8-1.6-0.8c-0.5,0-1,0.2-1.5,0.5c-0.5,0.3-0.8,0.8-1,1.4c-0.2,0.6-0.3,1.6-0.3,2.9v6.7h-3.7
		v-7.7c0-1.4-0.1-2.2-0.2-2.6c-0.1-0.4-0.3-0.7-0.6-0.9c-0.3-0.2-0.7-0.3-1.1-0.3c-0.6,0-1.1,0.2-1.5,0.5c-0.5,0.3-0.8,0.8-1,1.3
		c-0.2,0.6-0.3,1.5-0.3,2.9v6.8h-3.7V6.3z"/>
	<path class="st1" d="M51.3,6.3h3.4v2.1c0.4-0.7,1.1-1.3,1.8-1.7C57.3,6.2,58.2,6,59.1,6c1.6,0,3,0.6,4.1,1.9c1.1,1.3,1.7,3,1.7,5.3
		c0,2.3-0.6,4.1-1.7,5.4c-1.1,1.3-2.5,1.9-4.1,1.9c-0.8,0-1.5-0.2-2.1-0.5c-0.6-0.3-1.3-0.8-2-1.6v7h-3.7V6.3z M54.9,13
		c0,1.6,0.3,2.7,0.9,3.5c0.6,0.8,1.4,1.1,2.3,1.1c0.9,0,1.6-0.3,2.1-1c0.6-0.7,0.9-1.8,0.9-3.4c0-1.5-0.3-2.6-0.9-3.3
		c-0.6-0.7-1.3-1.1-2.2-1.1c-0.9,0-1.7,0.3-2.2,1C55.2,10.6,54.9,11.7,54.9,13z"/>
	<path class="st1" d="M67.9,20.3V1h3.7v19.3H67.9z"/>
	<path class="st1" d="M73.6,6.3h3.9l3.3,9.9l3.3-9.9H88L83,19.7l-0.9,2.4c-0.3,0.8-0.6,1.4-0.9,1.9s-0.6,0.8-1,1
		c-0.4,0.3-0.9,0.5-1.4,0.6c-0.6,0.1-1.2,0.2-1.9,0.2c-0.7,0-1.4-0.1-2.1-0.2l-0.3-2.9c0.6,0.1,1.1,0.2,1.6,0.2
		c0.9,0,1.5-0.3,1.9-0.8c0.4-0.5,0.7-1.1,0.9-1.9L73.6,6.3z"/>
	<path class="st1" d="M102.7,13.2l3.8,1.2c-0.6,2.1-1.5,3.7-2.9,4.7c-1.3,1-3.1,1.5-5.1,1.5c-2.6,0-4.7-0.9-6.3-2.6
		c-1.6-1.8-2.5-4.1-2.5-7.2c0-3.2,0.8-5.7,2.5-7.5c1.7-1.8,3.8-2.7,6.5-2.7c2.4,0,4.3,0.7,5.8,2.1c0.9,0.8,1.5,2,2,3.6l-3.9,0.9
		c-0.2-1-0.7-1.8-1.4-2.4S99.5,4,98.5,4c-1.4,0-2.6,0.5-3.5,1.5c-0.9,1-1.3,2.7-1.3,5c0,2.4,0.4,4.2,1.3,5.2c0.9,1,2,1.6,3.4,1.6
		c1,0,1.9-0.3,2.7-1C101.8,15.6,102.4,14.6,102.7,13.2z"/>
	<path class="st1" d="M108.9,13.1c0-1.2,0.3-2.4,0.9-3.6s1.5-2,2.6-2.6c1.1-0.6,2.3-0.9,3.7-0.9c2.1,0,3.8,0.7,5.2,2.1
		c1.4,1.4,2,3.1,2,5.2c0,2.1-0.7,3.9-2,5.3s-3.1,2.1-5.2,2.1c-1.3,0-2.5-0.3-3.7-0.9c-1.2-0.6-2-1.4-2.7-2.5S108.9,14.7,108.9,13.1z
		 M112.7,13.3c0,1.4,0.3,2.4,1,3.2c0.7,0.7,1.5,1.1,2.4,1.1c1,0,1.8-0.4,2.4-1.1c0.7-0.7,1-1.8,1-3.2c0-1.4-0.3-2.4-1-3.2
		c-0.7-0.7-1.5-1.1-2.4-1.1c-1,0-1.8,0.4-2.4,1.1C113.1,10.8,112.7,11.9,112.7,13.3z"/>
</g>
</svg>
