<?xml version="1.0" encoding="utf-8"?>
<!-- Generator: Adobe Illustrator 18.0.0, SVG Export Plug-In . SVG Version: 6.00 Build 0)  -->
<!DOCTYPE svg PUBLIC "-//W3C//DTD SVG 1.1//EN" "http://www.w3.org/Graphics/SVG/1.1/DTD/svg11.dtd">
<svg version="1.1" id="Layer_1" xmlns="http://www.w3.org/2000/svg" xmlns:xlink="http://www.w3.org/1999/xlink" x="0px" y="0px"
	 viewBox="-15.8 3.2 32 32" enable-background="new -15.8 3.2 32 32" xml:space="preserve">
<g>
	<path fill="#8E9197" d="M7.5,13.7c-0.3-0.8-1-1.5-1.8-1.8c-0.6-0.2-1.1-0.3-1.7-0.3c-1,0-1.3-0.1-3.8-0.1s-2.8,0-3.8,0.1
		c-0.6,0-1.2,0.1-1.7,0.3c-0.8,0.3-1.5,1-1.8,1.8c-0.2,0.6-0.3,1.1-0.3,1.7c0,1-0.1,1.3-0.1,3.8s0,2.8,0.1,3.8
		c0,0.6,0.1,1.2,0.3,1.7c0.3,0.8,1,1.5,1.8,1.8c0.6,0.2,1.1,0.3,1.7,0.3c1,0,1.3,0.1,3.8,0.1s2.8,0,3.8-0.1c0.6,0,1.2-0.1,1.7-0.3
		c0.8-0.3,1.5-1,1.8-1.8c0.2-0.6,0.3-1.1,0.3-1.7c0-1,0.1-1.3,0.1-3.8c0-2.5,0-2.8-0.1-3.8C7.8,14.9,7.7,14.3,7.5,13.7z M5,19.3
		C5,21.9,2.8,24,0.2,24s-4.8-2.1-4.8-4.8c0-2.6,2.1-4.8,4.8-4.8v0c0,0,0,0,0,0C2.8,14.5,5,16.6,5,19.3C5,19.3,5,19.3,5,19.3z
		 M5.2,15.4c-0.6,0-1.1-0.5-1.1-1.1s0.5-1.1,1.1-1.1c0.6,0,1.1,0.5,1.1,1.1C6.3,14.9,5.8,15.4,5.2,15.4z"/>
	<path fill="#8E9197" d="M0.2,3.2c-8.8,0-16,7.2-16,16s7.2,16,16,16s16-7.2,16-16S9,3.2,0.2,3.2z M9.5,23.1c0,0.4,0,0.8-0.1,1.2
		C9.3,24.6,9.2,25,9,25.4c-0.1,0.3-0.3,0.6-0.5,0.9c-0.5,0.8-1.3,1.5-2.3,1.8c-0.7,0.3-1.5,0.4-2.3,0.4c-0.2,0-0.5,0-0.7,0
		c-0.2,0-0.4,0-0.7,0c-0.3,0-0.6,0-1,0s-0.9,0-1.5,0c-1.9,0-2.6,0-3.2,0c-0.2,0-0.4,0-0.7,0c-0.8,0-1.5-0.2-2.3-0.4
		c-1.3-0.5-2.2-1.5-2.7-2.7c-0.3-0.7-0.4-1.5-0.4-2.3c0-0.2,0-0.5,0-0.7c0-0.2,0-0.4,0-0.7c0-0.3,0-0.6,0-1c0-0.4,0-0.9,0-1.5
		s0-1.1,0-1.5c0-0.4,0-0.7,0-1c0-0.3,0-0.5,0-0.7c0-0.2,0-0.4,0-0.7c0-0.8,0.2-1.5,0.4-2.3c0.5-1.3,1.5-2.2,2.7-2.7
		c0.7-0.3,1.5-0.4,2.3-0.4c0.4,0,0.7,0,1,0c0.6,0,1.3,0,2.9,0s2.3,0,2.9,0c0.3,0,0.6,0,1,0c0.8,0,1.5,0.2,2.3,0.4
		c1.3,0.5,2.2,1.5,2.7,2.7c0.1,0.4,0.2,0.7,0.3,1.1c0.1,0.4,0.1,0.8,0.1,1.2c0,1,0.1,1.3,0.1,3.8S9.5,22.1,9.5,23.1z"/>
	<g>
		<path d="M0.2,16.1c-1.7,0-3.1,1.4-3.1,3.1c0,1.7,1.4,3.1,3.1,3.1v0c1.7,0,3.1-1.4,3.1-3.1C3.3,17.5,1.9,16.1,0.2,16.1z"/>
		<path d="M0.2,16.1c-1.7,0-3.1,1.4-3.1,3.1c0,1.7,1.4,3.1,3.1,3.1v0c1.7,0,3.1-1.4,3.1-3.1C3.3,17.5,1.9,16.1,0.2,16.1z"/>
		<path fill="#8E9197" d="M0.2,16.1c-1.7,0-3.1,1.4-3.1,3.1c0,1.7,1.4,3.1,3.1,3.1v0c1.7,0,3.1-1.4,3.1-3.1
			C3.3,17.5,1.9,16.1,0.2,16.1z"/>
	</g>
</g>
</svg>
