<?xml version="1.0" encoding="utf-8"?>
<!-- Generator: Adobe Illustrator 18.0.0, SVG Export Plug-In . SVG Version: 6.00 Build 0)  -->
<!DOCTYPE svg PUBLIC "-//W3C//DTD SVG 1.1//EN" "http://www.w3.org/Graphics/SVG/1.1/DTD/svg11.dtd">
<svg version="1.1" id="Layer_1" xmlns="http://www.w3.org/2000/svg" xmlns:xlink="http://www.w3.org/1999/xlink" x="0px" y="0px"
	 viewBox="0 0 31.2 31.3" enable-background="new 0 0 31.2 31.3" xml:space="preserve">
<path fill="#8E9197" d="M15.6,0C15.6,0,15.6,0,15.6,0C7,0,0.1,7.1,0.1,15.6C0.1,24.1,7,31,15.6,31c8.6,0,15.5-7,15.5-15.5
	S24.2,0,15.6,0z M22.9,12.8L22.9,12.8c0,0.2,0,0.3,0,0.5c0,4.7-3.5,10.1-9.8,10.1c-1.9,0-3.7-0.6-5.3-1.6c0.3,0,0.5,0,0.8,0
	c1.6,0,3.1-0.5,4.3-1.5c-1.5,0-2.8-1-3.2-2.5c0.5,0.1,1.2,0.1,1.7-0.1c-1.6-0.4-2.6-1.8-2.6-3.5v0c1,0.3,0.9,0.4,1.4,0.4
	c-1-0.7-1.6-1.8-1.6-3c0-0.6,0.1-1.2,0.4-1.8c1.7,2.2,4.3,3.6,7.1,3.7c-0.1-0.3-0.1-0.7-0.1-1c0-1.9,1.5-3.7,3.4-3.7c0,0,0,0,0,0
	c1,0,1.9,0.6,2.5,1.3c0.8-0.2,1.5-0.4,2.2-0.8c-0.2,0.8-0.8,1.6-1.5,2c0.7-0.1,1.4-0.3,2-0.5C24.2,11.7,23.6,12.3,22.9,12.8z"/>
</svg>
